ISO-10303-21;
HEADER;
FILE_DESCRIPTION(('STEP AP203'),
    '1');
FILE_NAME('Держатель',
    '',
    ('UNSPECIFIED'),
    ('UNSPECIFIED'),
    'C3D Converter',
    'C3D Toolkit',
    '');
FILE_SCHEMA(('CONFIG_CONTROL_DESIGN'));
ENDSEC;

DATA;
#1=PRODUCT_DEFINITION('','UNSPECIFIED',#28,#31);
#2=SHAPE_DEFINITION_REPRESENTATION(#26,#3);
#3=SHAPE_REPRESENTATION('NONE',(#4),#8);
#4=AXIS2_PLACEMENT_3D('',#5,#6,#7);
#5=CARTESIAN_POINT('',(0.,0.,0.));
#6=DIRECTION('',(0.,0.,1.));
#7=DIRECTION('',(1.,0.,0.));
#8=(GEOMETRIC_REPRESENTATION_CONTEXT(3)GLOBAL_UNCERTAINTY_ASSIGNED_CONTEXT((#10))
GLOBAL_UNIT_ASSIGNED_CONTEXT((#9,#11,#12))REPRESENTATION_CONTEXT('NONE','NONE'));
#9=(LENGTH_UNIT()NAMED_UNIT(*)SI_UNIT(.MILLI.,.METRE.));
#10=UNCERTAINTY_MEASURE_WITH_UNIT(LENGTH_MEASURE(1.E-5),#9,'NONE','NONE');
#11=(NAMED_UNIT(*)PLANE_ANGLE_UNIT()SI_UNIT($,.RADIAN.));
#12=(NAMED_UNIT(*)SI_UNIT($,.STERADIAN.)SOLID_ANGLE_UNIT());
#13=MANIFOLD_SOLID_BREP('',#14);
#14=CLOSED_SHELL('',(#53,#54,#55,#56,#57,#58,#59,#60,#61,#62,#63,#64,#65,#66,#67,
#68,#69,#70,#71,#72,#73,#74,#75,#76,#77,#78,#79,#80,#81,#82,#83,#84,#85));
#15=COLOUR_RGB('',0.564705882352941,0.564705882352941,0.564705882352941);
#16=FILL_AREA_STYLE_COLOUR('',#15);
#17=FILL_AREA_STYLE($,(#16));
#18=SURFACE_STYLE_FILL_AREA(#17);
#19=SURFACE_SIDE_STYLE('',(#18));
#20=SURFACE_STYLE_USAGE(.BOTH.,#19);
#21=PRESENTATION_STYLE_ASSIGNMENT((#20));
#22=MECHANICAL_DESIGN_GEOMETRIC_PRESENTATION_REPRESENTATION('NONE',(#23),#8);
#23=STYLED_ITEM('',(#21),#13);
#24=ADVANCED_BREP_SHAPE_REPRESENTATION('NONE',(#13),#8);
#25=SHAPE_REPRESENTATION_RELATIONSHIP('','',#3,#24);
#26=PRODUCT_DEFINITION_SHAPE('NONE','NONE',#1);
#27=MECHANICAL_CONTEXT('NONE',#32,'mechanical');
#28=PRODUCT_DEFINITION_FORMATION_WITH_SPECIFIED_SOURCE('ANY','UNSPECIFIED',#29,.NOT_KNOWN.);
#29=PRODUCT('','\X2\0414043504420430043B044C\X0\','NONE',(#27));
#30=PRODUCT_RELATED_PRODUCT_CATEGORY('detail','',(#29));
#31=DESIGN_CONTEXT('detailed design',#32,'design');
#32=APPLICATION_CONTEXT('configuration controlled 3d designs of mechanical parts and assemblies');
#33=APPLICATION_PROTOCOL_DEFINITION('international standard','config_control_design',
1994,#32);
#34=CC_DESIGN_DATE_AND_TIME_ASSIGNMENT(#35,#39,(#1));
#35=DATE_AND_TIME(#36,#37);
#36=CALENDAR_DATE(0,1,1);
#37=LOCAL_TIME(0,0,0.,#38);
#38=COORDINATED_UNIVERSAL_TIME_OFFSET(0,0,.AHEAD.);
#39=DATE_TIME_ROLE('creation_date');
#40=CC_DESIGN_APPROVAL(#41,(#1));
#41=APPROVAL(#42,'UNSPECIFIED');
#42=APPROVAL_STATUS('not_yet_approved');
#43=APPROVAL_DATE_TIME(#44,#41);
#44=DATE_AND_TIME(#45,#46);
#45=CALENDAR_DATE(0,1,1);
#46=LOCAL_TIME(0,0,0.,#47);
#47=COORDINATED_UNIVERSAL_TIME_OFFSET(0,0,.AHEAD.);
#48=PERSON('UNSPECIFIED','Nik','UNSPECIFIED',('UNSPECIFIED'),('UNSPECIFIED'),('UNSPECIFIED'));
#49=ORGANIZATION('UNSPECIFIED','UNSPECIFIED','UNSPECIFIED');
#50=PERSON_AND_ORGANIZATION(#48,#49);
#51=PERSON_AND_ORGANIZATION_ROLE('creator');
#52=CC_DESIGN_PERSON_AND_ORGANIZATION_ASSIGNMENT(#50,#51,(#28,#1));
#53=ADVANCED_FACE('',(#86,#88),#90,.T.);
#54=ADVANCED_FACE('',(#95,#97),#99,.T.);
#55=ADVANCED_FACE('',(#104),#106,.T.);
#56=ADVANCED_FACE('',(#111),#113,.T.);
#57=ADVANCED_FACE('',(#118,#120),#122,.F.);
#58=ADVANCED_FACE('',(#127,#129),#131,.F.);
#59=ADVANCED_FACE('',(#136),#138,.F.);
#60=ADVANCED_FACE('',(#143),#145,.F.);
#61=ADVANCED_FACE('',(#150),#152,.F.);
#62=ADVANCED_FACE('',(#157),#159,.F.);
#63=ADVANCED_FACE('',(#164),#166,.F.);
#64=ADVANCED_FACE('',(#171),#173,.F.);
#65=ADVANCED_FACE('',(#178),#180,.F.);
#66=ADVANCED_FACE('',(#185),#187,.F.);
#67=ADVANCED_FACE('',(#192),#194,.F.);
#68=ADVANCED_FACE('',(#199),#201,.F.);
#69=ADVANCED_FACE('',(#206),#208,.F.);
#70=ADVANCED_FACE('',(#213),#215,.F.);
#71=ADVANCED_FACE('',(#220,#222),#224,.T.);
#72=ADVANCED_FACE('',(#229),#231,.T.);
#73=ADVANCED_FACE('',(#236,#238),#240,.F.);
#74=ADVANCED_FACE('',(#245),#247,.T.);
#75=ADVANCED_FACE('',(#252,#254,#256,#258),#260,.F.);
#76=ADVANCED_FACE('',(#265),#267,.T.);
#77=ADVANCED_FACE('',(#272,#274),#276,.T.);
#78=ADVANCED_FACE('',(#281),#283,.T.);
#79=ADVANCED_FACE('',(#288),#290,.T.);
#80=ADVANCED_FACE('',(#295),#297,.T.);
#81=ADVANCED_FACE('',(#302),#304,.T.);
#82=ADVANCED_FACE('',(#309),#311,.T.);
#83=ADVANCED_FACE('',(#316,#318),#320,.T.);
#84=ADVANCED_FACE('',(#325),#327,.T.);
#85=ADVANCED_FACE('',(#332,#334),#336,.F.);
#86=FACE_BOUND('',#87,.T.);
#87=EDGE_LOOP('',(#341,#342,#343,#344,#345,#346));
#88=FACE_BOUND('',#89,.T.);
#89=EDGE_LOOP('',(#347));
#90=PLANE('',#91);
#91=AXIS2_PLACEMENT_3D('',#92,#93,#94);
#92=CARTESIAN_POINT('',(-12.,-7.9602041944578E-16,13.));
#93=DIRECTION('',(1.,0.,0.));
#94=DIRECTION('',(0.,6.12323399573677E-17,-1.));
#95=FACE_BOUND('',#96,.T.);
#96=EDGE_LOOP('',(#348,#349,#350,#351,#352,#353));
#97=FACE_BOUND('',#98,.T.);
#98=EDGE_LOOP('',(#354));
#99=PLANE('',#100);
#100=AXIS2_PLACEMENT_3D('',#101,#102,#103);
#101=CARTESIAN_POINT('',(-12.,-7.9602041944578E-16,13.));
#102=DIRECTION('',(1.,0.,0.));
#103=DIRECTION('',(0.,6.12323399573677E-17,-1.));
#104=FACE_BOUND('',#105,.T.);
#105=EDGE_LOOP('',(#355,#356,#357,#358,#359,#360,#361,#362));
#106=CYLINDRICAL_SURFACE('',#107,13.);
#107=AXIS2_PLACEMENT_3D('',#108,#109,#110);
#108=CARTESIAN_POINT('',(0.,0.,0.));
#109=DIRECTION('',(0.,1.,6.12323399573677E-17));
#110=DIRECTION('',(6.12323399573677E-17,6.12323399573677E-17,-1.));
#111=FACE_BOUND('',#112,.T.);
#112=EDGE_LOOP('',(#363,#364,#365,#366,#367,#368,#369,#370));
#113=PLANE('',#114);
#114=AXIS2_PLACEMENT_3D('',#115,#116,#117);
#115=CARTESIAN_POINT('',(-13.,4.87421929365104E-32,-7.9602041944578E-16));
#116=DIRECTION('',(-1.,0.,0.));
#117=DIRECTION('',(0.,-6.12323399573677E-17,1.));
#118=FACE_OUTER_BOUND('',#119,.T.);
#119=EDGE_LOOP('',(#371));
#120=FACE_BOUND('',#121,.T.);
#121=EDGE_LOOP('',(#372,#373));
#122=CYLINDRICAL_SURFACE('',#123,1.5);
#123=AXIS2_PLACEMENT_3D('',#124,#125,#126);
#124=CARTESIAN_POINT('',(-22.,6.,-3.67394039744206E-16));
#125=DIRECTION('',(1.,0.,0.));
#126=DIRECTION('',(0.,-1.,6.12323399573676E-17));
#127=FACE_OUTER_BOUND('',#128,.T.);
#128=EDGE_LOOP('',(#374));
#129=FACE_BOUND('',#130,.T.);
#130=EDGE_LOOP('',(#375,#376));
#131=CYLINDRICAL_SURFACE('',#132,1.5);
#132=AXIS2_PLACEMENT_3D('',#133,#134,#135);
#133=CARTESIAN_POINT('',(-22.,24.,-1.46957615897682E-15));
#134=DIRECTION('',(1.,0.,0.));
#135=DIRECTION('',(0.,-1.,6.12323399573676E-17));
#136=FACE_BOUND('',#137,.T.);
#137=EDGE_LOOP('',(#377,#378,#379,#380));
#138=PLANE('',#139);
#139=AXIS2_PLACEMENT_3D('',#140,#141,#142);
#140=CARTESIAN_POINT('',(-3.,25.7897858344878,3.1));
#141=DIRECTION('',(0.,0.866025403784439,0.5));
#142=DIRECTION('',(0.,0.5,-0.866025403784439));
#143=FACE_BOUND('',#144,.T.);
#144=EDGE_LOOP('',(#381,#382,#383,#384));
#145=PLANE('',#146);
#146=AXIS2_PLACEMENT_3D('',#147,#148,#149);
#147=CARTESIAN_POINT('',(-3.,22.2102141655122,3.1));
#148=DIRECTION('',(0.,-1.11655897919045E-15,1.));
#149=DIRECTION('',(0.,1.,1.11655897919045E-15));
#150=FACE_BOUND('',#151,.T.);
#151=EDGE_LOOP('',(#385,#386,#387,#388));
#152=PLANE('',#153);
#153=AXIS2_PLACEMENT_3D('',#154,#155,#156);
#154=CARTESIAN_POINT('',(-3.,20.4204283310243,-3.93851232354522E-15));
#155=DIRECTION('',(0.,-0.866025403784439,0.499999999999999));
#156=DIRECTION('',(0.,0.499999999999999,0.866025403784439));
#157=FACE_BOUND('',#158,.T.);
#158=EDGE_LOOP('',(#389,#390,#391,#392));
#159=PLANE('',#160);
#160=AXIS2_PLACEMENT_3D('',#161,#162,#163);
#161=CARTESIAN_POINT('',(-3.,22.2102141655122,-3.1));
#162=DIRECTION('',(0.,-0.866025403784438,-0.5));
#163=DIRECTION('',(0.,-0.5,0.866025403784438));
#164=FACE_BOUND('',#165,.T.);
#165=EDGE_LOOP('',(#393,#394,#395,#396));
#166=PLANE('',#167);
#167=AXIS2_PLACEMENT_3D('',#168,#169,#170);
#168=CARTESIAN_POINT('',(-3.,25.7897858344878,-3.1));
#169=DIRECTION('',(0.,2.48124217597879E-16,-1.));
#170=DIRECTION('',(0.,-1.,-2.48124217597879E-16));
#171=FACE_BOUND('',#172,.T.);
#172=EDGE_LOOP('',(#397,#398,#399,#400));
#173=PLANE('',#174);
#174=AXIS2_PLACEMENT_3D('',#175,#176,#177);
#175=CARTESIAN_POINT('',(-3.,27.5795716689757,4.90943552601202E-16));
#176=DIRECTION('',(0.,0.866025403784439,-0.5));
#177=DIRECTION('',(0.,-0.5,-0.866025403784439));
#178=FACE_BOUND('',#179,.T.);
#179=EDGE_LOOP('',(#401,#402,#403,#404));
#180=PLANE('',#181);
#181=AXIS2_PLACEMENT_3D('',#182,#183,#184);
#182=CARTESIAN_POINT('',(-3.,7.78978583448784,3.1));
#183=DIRECTION('',(0.,0.866025403784439,0.5));
#184=DIRECTION('',(0.,0.5,-0.866025403784439));
#185=FACE_BOUND('',#186,.T.);
#186=EDGE_LOOP('',(#405,#406,#407,#408));
#187=PLANE('',#188);
#188=AXIS2_PLACEMENT_3D('',#189,#190,#191);
#189=CARTESIAN_POINT('',(-3.,4.21021416551216,3.1));
#190=DIRECTION('',(0.,-2.48124217597879E-16,1.));
#191=DIRECTION('',(0.,1.,2.48124217597879E-16));
#192=FACE_BOUND('',#193,.T.);
#193=EDGE_LOOP('',(#409,#410,#411,#412));
#194=PLANE('',#195);
#195=AXIS2_PLACEMENT_3D('',#196,#197,#198);
#196=CARTESIAN_POINT('',(-3.,2.42042833102432,-5.25469814231033E-15));
#197=DIRECTION('',(0.,-0.866025403784439,0.499999999999999));
#198=DIRECTION('',(0.,0.499999999999999,0.866025403784439));
#199=FACE_BOUND('',#200,.T.);
#200=EDGE_LOOP('',(#413,#414,#415,#416));
#201=PLANE('',#202);
#202=AXIS2_PLACEMENT_3D('',#203,#204,#205);
#203=CARTESIAN_POINT('',(-3.,4.21021416551216,-3.1));
#204=DIRECTION('',(0.,-0.866025403784438,-0.5));
#205=DIRECTION('',(0.,-0.5,0.866025403784438));
#206=FACE_BOUND('',#207,.T.);
#207=EDGE_LOOP('',(#417,#418,#419,#420));
#208=PLANE('',#209);
#209=AXIS2_PLACEMENT_3D('',#210,#211,#212);
#210=CARTESIAN_POINT('',(-3.,7.78978583448784,-3.1));
#211=DIRECTION('',(0.,4.96248435195758E-16,-1.));
#212=DIRECTION('',(0.,-1.,-4.96248435195758E-16));
#213=FACE_BOUND('',#214,.T.);
#214=EDGE_LOOP('',(#421,#422,#423,#424));
#215=PLANE('',#216);
#216=AXIS2_PLACEMENT_3D('',#217,#218,#219);
#217=CARTESIAN_POINT('',(-3.,9.57957166897568,-1.93546529078906E-15));
#218=DIRECTION('',(0.,0.866025403784439,-0.5));
#219=DIRECTION('',(0.,-0.5,-0.866025403784439));
#220=FACE_BOUND('',#221,.T.);
#221=EDGE_LOOP('',(#425,#426,#427,#428,#429,#430,#431,#432,#433));
#222=FACE_BOUND('',#223,.T.);
#223=EDGE_LOOP('',(#434));
#224=PLANE('',#225);
#225=AXIS2_PLACEMENT_3D('',#226,#227,#228);
#226=CARTESIAN_POINT('',(0.,30.,1.83697019872103E-15));
#227=DIRECTION('',(0.,1.,6.12323399573677E-17));
#228=DIRECTION('',(6.12323399573677E-17,6.12323399573677E-17,-1.));
#229=FACE_BOUND('',#230,.T.);
#230=EDGE_LOOP('',(#435,#436,#437,#438,#439,#440,#441,#442));
#231=PLANE('',#232);
#232=AXIS2_PLACEMENT_3D('',#233,#234,#235);
#233=CARTESIAN_POINT('',(13.,7.9602041944578E-16,-13.));
#234=DIRECTION('',(0.,5.9211894646675E-17,-1.));
#235=DIRECTION('',(-1.,0.,0.));
#236=FACE_BOUND('',#237,.T.);
#237=EDGE_LOOP('',(#443,#444,#445,#446,#447,#448,#449,#450,#451));
#238=FACE_BOUND('',#239,.T.);
#239=EDGE_LOOP('',(#452));
#240=PLANE('',#241);
#241=AXIS2_PLACEMENT_3D('',#242,#243,#244);
#242=CARTESIAN_POINT('',(0.,0.,0.));
#243=DIRECTION('',(0.,1.,6.12323399573677E-17));
#244=DIRECTION('',(6.12323399573677E-17,6.12323399573677E-17,-1.));
#245=FACE_BOUND('',#246,.T.);
#246=EDGE_LOOP('',(#453,#454,#455,#456));
#247=PLANE('',#248);
#248=AXIS2_PLACEMENT_3D('',#249,#250,#251);
#249=CARTESIAN_POINT('',(-13.,-7.9602041944578E-16,13.));
#250=DIRECTION('',(0.,-5.9211894646675E-17,1.));
#251=DIRECTION('',(1.,0.,0.));
#252=FACE_OUTER_BOUND('',#253,.T.);
#253=EDGE_LOOP('',(#457));
#254=FACE_OUTER_BOUND('',#255,.T.);
#255=EDGE_LOOP('',(#458));
#256=FACE_BOUND('',#257,.T.);
#257=EDGE_LOOP('',(#459,#460,#461,#462,#463,#464));
#258=FACE_BOUND('',#259,.T.);
#259=EDGE_LOOP('',(#465,#466,#467,#468,#469,#470));
#260=CYLINDRICAL_SURFACE('',#261,10.);
#261=AXIS2_PLACEMENT_3D('',#262,#263,#264);
#262=CARTESIAN_POINT('',(0.,0.,0.));
#263=DIRECTION('',(0.,1.,6.12323399573677E-17));
#264=DIRECTION('',(6.12323399573677E-17,6.12323399573677E-17,-1.));
#265=FACE_BOUND('',#266,.T.);
#266=EDGE_LOOP('',(#471,#472,#473,#474));
#267=PLANE('',#268);
#268=AXIS2_PLACEMENT_3D('',#269,#270,#271);
#269=CARTESIAN_POINT('',(-13.,-7.9602041944578E-16,13.));
#270=DIRECTION('',(0.,-5.9211894646675E-17,1.));
#271=DIRECTION('',(1.,0.,0.));
#272=FACE_BOUND('',#273,.T.);
#273=EDGE_LOOP('',(#475,#476,#477,#478,#479,#480,#481,#482));
#274=FACE_BOUND('',#275,.T.);
#275=EDGE_LOOP('',(#483));
#276=PLANE('',#277);
#277=AXIS2_PLACEMENT_3D('',#278,#279,#280);
#278=CARTESIAN_POINT('',(13.,-7.9602041944578E-16,13.));
#279=DIRECTION('',(1.,0.,0.));
#280=DIRECTION('',(0.,6.12323399573677E-17,-1.));
#281=FACE_BOUND('',#282,.T.);
#282=EDGE_LOOP('',(#484,#485,#486,#487));
#283=PLANE('',#284);
#284=AXIS2_PLACEMENT_3D('',#285,#286,#287);
#285=CARTESIAN_POINT('',(-1.5,30.,13.));
#286=DIRECTION('',(-0.866025403784439,8.08849522935659E-17,-0.5));
#287=DIRECTION('',(-5.9211894646675E-17,-1.,-5.9211894646675E-17));
#288=FACE_BOUND('',#289,.T.);
#289=EDGE_LOOP('',(#488,#489,#490,#491));
#290=PLANE('',#291);
#291=AXIS2_PLACEMENT_3D('',#292,#293,#294);
#292=CARTESIAN_POINT('',(0.,-1.77635683940025E-16,16.));
#293=DIRECTION('',(0.,-5.9211894646675E-17,1.));
#294=DIRECTION('',(6.12323399573677E-17,1.,5.9211894646675E-17));
#295=FACE_BOUND('',#296,.T.);
#296=EDGE_LOOP('',(#492,#493,#494,#495));
#297=PLANE('',#298);
#298=AXIS2_PLACEMENT_3D('',#299,#300,#301);
#299=CARTESIAN_POINT('',(1.5,-9.18485099360515E-17,13.));
#300=DIRECTION('',(0.866025403784439,-2.16730576468909E-17,-0.5));
#301=DIRECTION('',(5.9211894646675E-17,1.,5.9211894646675E-17));
#302=FACE_BOUND('',#303,.T.);
#303=EDGE_LOOP('',(#496,#497,#498,#499));
#304=PLANE('',#305);
#305=AXIS2_PLACEMENT_3D('',#306,#307,#308);
#306=CARTESIAN_POINT('',(13.,12.,-13.));
#307=DIRECTION('',(0.,-1.,-5.9211894646675E-16));
#308=DIRECTION('',(-1.,0.,0.));
#309=FACE_BOUND('',#310,.T.);
#310=EDGE_LOOP('',(#500,#501,#502,#503));
#311=PLANE('',#312);
#312=AXIS2_PLACEMENT_3D('',#313,#314,#315);
#313=CARTESIAN_POINT('',(11.,18.,-13.));
#314=DIRECTION('',(0.,1.,0.));
#315=DIRECTION('',(1.,0.,0.));
#316=FACE_BOUND('',#317,.T.);
#317=EDGE_LOOP('',(#504,#505,#506,#507));
#318=FACE_BOUND('',#319,.T.);
#319=EDGE_LOOP('',(#508));
#320=PLANE('',#321);
#321=AXIS2_PLACEMENT_3D('',#322,#323,#324);
#322=CARTESIAN_POINT('',(11.,12.,-13.));
#323=DIRECTION('',(-1.,2.96059473233375E-16,1.75302423382447E-31));
#324=DIRECTION('',(2.96059473233375E-16,1.,2.96059473233375E-16));
#325=FACE_BOUND('',#326,.T.);
#326=EDGE_LOOP('',(#509,#510,#511,#512));
#327=CYLINDRICAL_SURFACE('',#328,3.);
#328=AXIS2_PLACEMENT_3D('',#329,#330,#331);
#329=CARTESIAN_POINT('',(11.,15.,-16.));
#330=DIRECTION('',(1.,0.,0.));
#331=DIRECTION('',(0.,-1.,6.12323399573676E-17));
#332=FACE_OUTER_BOUND('',#333,.T.);
#333=EDGE_LOOP('',(#513));
#334=FACE_OUTER_BOUND('',#335,.T.);
#335=EDGE_LOOP('',(#514));
#336=CYLINDRICAL_SURFACE('',#337,0.7);
#337=AXIS2_PLACEMENT_3D('',#338,#339,#340);
#338=CARTESIAN_POINT('',(3.,15.,-16.));
#339=DIRECTION('',(1.,0.,0.));
#340=DIRECTION('',(0.,-1.,6.12323399573676E-17));
#341=ORIENTED_EDGE('',*,*,#515,.T.);
#342=ORIENTED_EDGE('',*,*,#516,.T.);
#343=ORIENTED_EDGE('',*,*,#517,.T.);
#344=ORIENTED_EDGE('',*,*,#518,.T.);
#345=ORIENTED_EDGE('',*,*,#519,.T.);
#346=ORIENTED_EDGE('',*,*,#520,.T.);
#347=ORIENTED_EDGE('',*,*,#521,.T.);
#348=ORIENTED_EDGE('',*,*,#522,.T.);
#349=ORIENTED_EDGE('',*,*,#523,.T.);
#350=ORIENTED_EDGE('',*,*,#524,.T.);
#351=ORIENTED_EDGE('',*,*,#525,.T.);
#352=ORIENTED_EDGE('',*,*,#526,.T.);
#353=ORIENTED_EDGE('',*,*,#527,.T.);
#354=ORIENTED_EDGE('',*,*,#528,.T.);
#355=ORIENTED_EDGE('',*,*,#529,.T.);
#356=ORIENTED_EDGE('',*,*,#530,.T.);
#357=ORIENTED_EDGE('',*,*,#531,.F.);
#358=ORIENTED_EDGE('',*,*,#532,.F.);
#359=ORIENTED_EDGE('',*,*,#533,.T.);
#360=ORIENTED_EDGE('',*,*,#534,.T.);
#361=ORIENTED_EDGE('',*,*,#535,.T.);
#362=ORIENTED_EDGE('',*,*,#536,.T.);
#363=ORIENTED_EDGE('',*,*,#537,.T.);
#364=ORIENTED_EDGE('',*,*,#536,.F.);
#365=ORIENTED_EDGE('',*,*,#538,.T.);
#366=ORIENTED_EDGE('',*,*,#534,.F.);
#367=ORIENTED_EDGE('',*,*,#539,.T.);
#368=ORIENTED_EDGE('',*,*,#540,.T.);
#369=ORIENTED_EDGE('',*,*,#541,.F.);
#370=ORIENTED_EDGE('',*,*,#530,.F.);
#371=ORIENTED_EDGE('',*,*,#528,.F.);
#372=ORIENTED_EDGE('',*,*,#535,.F.);
#373=ORIENTED_EDGE('',*,*,#538,.F.);
#374=ORIENTED_EDGE('',*,*,#521,.F.);
#375=ORIENTED_EDGE('',*,*,#529,.F.);
#376=ORIENTED_EDGE('',*,*,#537,.F.);
#377=ORIENTED_EDGE('',*,*,#515,.F.);
#378=ORIENTED_EDGE('',*,*,#542,.F.);
#379=ORIENTED_EDGE('',*,*,#543,.F.);
#380=ORIENTED_EDGE('',*,*,#544,.T.);
#381=ORIENTED_EDGE('',*,*,#516,.F.);
#382=ORIENTED_EDGE('',*,*,#544,.F.);
#383=ORIENTED_EDGE('',*,*,#545,.F.);
#384=ORIENTED_EDGE('',*,*,#546,.T.);
#385=ORIENTED_EDGE('',*,*,#517,.F.);
#386=ORIENTED_EDGE('',*,*,#546,.F.);
#387=ORIENTED_EDGE('',*,*,#547,.F.);
#388=ORIENTED_EDGE('',*,*,#548,.T.);
#389=ORIENTED_EDGE('',*,*,#518,.F.);
#390=ORIENTED_EDGE('',*,*,#548,.F.);
#391=ORIENTED_EDGE('',*,*,#549,.F.);
#392=ORIENTED_EDGE('',*,*,#550,.T.);
#393=ORIENTED_EDGE('',*,*,#519,.F.);
#394=ORIENTED_EDGE('',*,*,#550,.F.);
#395=ORIENTED_EDGE('',*,*,#551,.F.);
#396=ORIENTED_EDGE('',*,*,#552,.T.);
#397=ORIENTED_EDGE('',*,*,#520,.F.);
#398=ORIENTED_EDGE('',*,*,#552,.F.);
#399=ORIENTED_EDGE('',*,*,#553,.F.);
#400=ORIENTED_EDGE('',*,*,#542,.T.);
#401=ORIENTED_EDGE('',*,*,#522,.F.);
#402=ORIENTED_EDGE('',*,*,#554,.F.);
#403=ORIENTED_EDGE('',*,*,#555,.F.);
#404=ORIENTED_EDGE('',*,*,#556,.T.);
#405=ORIENTED_EDGE('',*,*,#523,.F.);
#406=ORIENTED_EDGE('',*,*,#556,.F.);
#407=ORIENTED_EDGE('',*,*,#557,.F.);
#408=ORIENTED_EDGE('',*,*,#558,.T.);
#409=ORIENTED_EDGE('',*,*,#524,.F.);
#410=ORIENTED_EDGE('',*,*,#558,.F.);
#411=ORIENTED_EDGE('',*,*,#559,.F.);
#412=ORIENTED_EDGE('',*,*,#560,.T.);
#413=ORIENTED_EDGE('',*,*,#525,.F.);
#414=ORIENTED_EDGE('',*,*,#560,.F.);
#415=ORIENTED_EDGE('',*,*,#561,.F.);
#416=ORIENTED_EDGE('',*,*,#562,.T.);
#417=ORIENTED_EDGE('',*,*,#526,.F.);
#418=ORIENTED_EDGE('',*,*,#562,.F.);
#419=ORIENTED_EDGE('',*,*,#563,.F.);
#420=ORIENTED_EDGE('',*,*,#564,.T.);
#421=ORIENTED_EDGE('',*,*,#527,.F.);
#422=ORIENTED_EDGE('',*,*,#564,.F.);
#423=ORIENTED_EDGE('',*,*,#565,.F.);
#424=ORIENTED_EDGE('',*,*,#554,.T.);
#425=ORIENTED_EDGE('',*,*,#566,.T.);
#426=ORIENTED_EDGE('',*,*,#567,.T.);
#427=ORIENTED_EDGE('',*,*,#568,.T.);
#428=ORIENTED_EDGE('',*,*,#531,.T.);
#429=ORIENTED_EDGE('',*,*,#541,.T.);
#430=ORIENTED_EDGE('',*,*,#569,.T.);
#431=ORIENTED_EDGE('',*,*,#570,.F.);
#432=ORIENTED_EDGE('',*,*,#571,.F.);
#433=ORIENTED_EDGE('',*,*,#572,.F.);
#434=ORIENTED_EDGE('',*,*,#573,.T.);
#435=ORIENTED_EDGE('',*,*,#574,.F.);
#436=ORIENTED_EDGE('',*,*,#575,.F.);
#437=ORIENTED_EDGE('',*,*,#576,.T.);
#438=ORIENTED_EDGE('',*,*,#532,.T.);
#439=ORIENTED_EDGE('',*,*,#568,.F.);
#440=ORIENTED_EDGE('',*,*,#577,.F.);
#441=ORIENTED_EDGE('',*,*,#578,.F.);
#442=ORIENTED_EDGE('',*,*,#579,.F.);
#443=ORIENTED_EDGE('',*,*,#580,.F.);
#444=ORIENTED_EDGE('',*,*,#539,.F.);
#445=ORIENTED_EDGE('',*,*,#533,.F.);
#446=ORIENTED_EDGE('',*,*,#576,.F.);
#447=ORIENTED_EDGE('',*,*,#581,.F.);
#448=ORIENTED_EDGE('',*,*,#582,.F.);
#449=ORIENTED_EDGE('',*,*,#583,.F.);
#450=ORIENTED_EDGE('',*,*,#584,.F.);
#451=ORIENTED_EDGE('',*,*,#585,.F.);
#452=ORIENTED_EDGE('',*,*,#586,.T.);
#453=ORIENTED_EDGE('',*,*,#587,.F.);
#454=ORIENTED_EDGE('',*,*,#569,.F.);
#455=ORIENTED_EDGE('',*,*,#540,.F.);
#456=ORIENTED_EDGE('',*,*,#580,.T.);
#457=ORIENTED_EDGE('',*,*,#573,.F.);
#458=ORIENTED_EDGE('',*,*,#586,.F.);
#459=ORIENTED_EDGE('',*,*,#553,.T.);
#460=ORIENTED_EDGE('',*,*,#551,.T.);
#461=ORIENTED_EDGE('',*,*,#549,.T.);
#462=ORIENTED_EDGE('',*,*,#547,.T.);
#463=ORIENTED_EDGE('',*,*,#545,.T.);
#464=ORIENTED_EDGE('',*,*,#543,.T.);
#465=ORIENTED_EDGE('',*,*,#565,.T.);
#466=ORIENTED_EDGE('',*,*,#563,.T.);
#467=ORIENTED_EDGE('',*,*,#561,.T.);
#468=ORIENTED_EDGE('',*,*,#559,.T.);
#469=ORIENTED_EDGE('',*,*,#557,.T.);
#470=ORIENTED_EDGE('',*,*,#555,.T.);
#471=ORIENTED_EDGE('',*,*,#588,.F.);
#472=ORIENTED_EDGE('',*,*,#582,.T.);
#473=ORIENTED_EDGE('',*,*,#589,.T.);
#474=ORIENTED_EDGE('',*,*,#566,.F.);
#475=ORIENTED_EDGE('',*,*,#581,.T.);
#476=ORIENTED_EDGE('',*,*,#575,.T.);
#477=ORIENTED_EDGE('',*,*,#590,.T.);
#478=ORIENTED_EDGE('',*,*,#591,.T.);
#479=ORIENTED_EDGE('',*,*,#592,.F.);
#480=ORIENTED_EDGE('',*,*,#577,.T.);
#481=ORIENTED_EDGE('',*,*,#567,.F.);
#482=ORIENTED_EDGE('',*,*,#589,.F.);
#483=ORIENTED_EDGE('',*,*,#593,.T.);
#484=ORIENTED_EDGE('',*,*,#585,.T.);
#485=ORIENTED_EDGE('',*,*,#594,.F.);
#486=ORIENTED_EDGE('',*,*,#570,.T.);
#487=ORIENTED_EDGE('',*,*,#587,.T.);
#488=ORIENTED_EDGE('',*,*,#584,.T.);
#489=ORIENTED_EDGE('',*,*,#595,.T.);
#490=ORIENTED_EDGE('',*,*,#571,.T.);
#491=ORIENTED_EDGE('',*,*,#594,.T.);
#492=ORIENTED_EDGE('',*,*,#583,.T.);
#493=ORIENTED_EDGE('',*,*,#588,.T.);
#494=ORIENTED_EDGE('',*,*,#572,.T.);
#495=ORIENTED_EDGE('',*,*,#595,.F.);
#496=ORIENTED_EDGE('',*,*,#596,.F.);
#497=ORIENTED_EDGE('',*,*,#590,.F.);
#498=ORIENTED_EDGE('',*,*,#574,.T.);
#499=ORIENTED_EDGE('',*,*,#597,.T.);
#500=ORIENTED_EDGE('',*,*,#598,.F.);
#501=ORIENTED_EDGE('',*,*,#599,.F.);
#502=ORIENTED_EDGE('',*,*,#578,.T.);
#503=ORIENTED_EDGE('',*,*,#592,.T.);
#504=ORIENTED_EDGE('',*,*,#579,.T.);
#505=ORIENTED_EDGE('',*,*,#599,.T.);
#506=ORIENTED_EDGE('',*,*,#600,.F.);
#507=ORIENTED_EDGE('',*,*,#597,.F.);
#508=ORIENTED_EDGE('',*,*,#601,.T.);
#509=ORIENTED_EDGE('',*,*,#596,.T.);
#510=ORIENTED_EDGE('',*,*,#600,.T.);
#511=ORIENTED_EDGE('',*,*,#598,.T.);
#512=ORIENTED_EDGE('',*,*,#591,.F.);
#513=ORIENTED_EDGE('',*,*,#593,.F.);
#514=ORIENTED_EDGE('',*,*,#601,.F.);
#515=EDGE_CURVE('',#602,#603,#604,.F.);
#516=EDGE_CURVE('',#603,#605,#606,.F.);
#517=EDGE_CURVE('',#605,#607,#608,.F.);
#518=EDGE_CURVE('',#607,#609,#610,.F.);
#519=EDGE_CURVE('',#609,#611,#612,.F.);
#520=EDGE_CURVE('',#611,#602,#613,.F.);
#521=EDGE_CURVE('',#614,#614,#615,.F.);
#522=EDGE_CURVE('',#616,#617,#618,.F.);
#523=EDGE_CURVE('',#617,#619,#620,.F.);
#524=EDGE_CURVE('',#619,#621,#622,.F.);
#525=EDGE_CURVE('',#621,#623,#624,.F.);
#526=EDGE_CURVE('',#623,#625,#626,.F.);
#527=EDGE_CURVE('',#625,#616,#627,.F.);
#528=EDGE_CURVE('',#628,#628,#629,.F.);
#529=EDGE_CURVE('',#630,#631,#632,.T.);
#530=EDGE_CURVE('',#631,#633,#634,.T.);
#531=EDGE_CURVE('',#635,#633,#636,.T.);
#532=EDGE_CURVE('',#637,#635,#638,.T.);
#533=EDGE_CURVE('',#637,#639,#640,.T.);
#534=EDGE_CURVE('',#639,#641,#642,.T.);
#535=EDGE_CURVE('',#641,#643,#644,.T.);
#536=EDGE_CURVE('',#643,#630,#645,.T.);
#537=EDGE_CURVE('',#631,#630,#646,.T.);
#538=EDGE_CURVE('',#643,#641,#647,.T.);
#539=EDGE_CURVE('',#639,#648,#649,.T.);
#540=EDGE_CURVE('',#648,#650,#651,.T.);
#541=EDGE_CURVE('',#633,#650,#652,.T.);
#542=EDGE_CURVE('',#653,#602,#654,.T.);
#543=EDGE_CURVE('',#655,#653,#656,.F.);
#544=EDGE_CURVE('',#655,#603,#657,.T.);
#545=EDGE_CURVE('',#658,#655,#659,.T.);
#546=EDGE_CURVE('',#658,#605,#660,.T.);
#547=EDGE_CURVE('',#661,#658,#662,.T.);
#548=EDGE_CURVE('',#661,#607,#663,.T.);
#549=EDGE_CURVE('',#664,#661,#665,.T.);
#550=EDGE_CURVE('',#664,#609,#666,.T.);
#551=EDGE_CURVE('',#667,#664,#668,.F.);
#552=EDGE_CURVE('',#667,#611,#669,.T.);
#553=EDGE_CURVE('',#653,#667,#670,.F.);
#554=EDGE_CURVE('',#671,#616,#672,.T.);
#555=EDGE_CURVE('',#673,#671,#674,.F.);
#556=EDGE_CURVE('',#673,#617,#675,.T.);
#557=EDGE_CURVE('',#676,#673,#677,.T.);
#558=EDGE_CURVE('',#676,#619,#678,.T.);
#559=EDGE_CURVE('',#679,#676,#680,.T.);
#560=EDGE_CURVE('',#679,#621,#681,.T.);
#561=EDGE_CURVE('',#682,#679,#683,.T.);
#562=EDGE_CURVE('',#682,#623,#684,.T.);
#563=EDGE_CURVE('',#685,#682,#686,.F.);
#564=EDGE_CURVE('',#685,#625,#687,.T.);
#565=EDGE_CURVE('',#671,#685,#688,.F.);
#566=EDGE_CURVE('',#689,#690,#691,.T.);
#567=EDGE_CURVE('',#690,#692,#693,.T.);
#568=EDGE_CURVE('',#692,#635,#694,.T.);
#569=EDGE_CURVE('',#650,#695,#696,.T.);
#570=EDGE_CURVE('',#697,#695,#698,.F.);
#571=EDGE_CURVE('',#699,#697,#700,.F.);
#572=EDGE_CURVE('',#689,#699,#701,.F.);
#573=EDGE_CURVE('',#702,#702,#703,.F.);
#574=EDGE_CURVE('',#704,#705,#706,.T.);
#575=EDGE_CURVE('',#707,#704,#708,.T.);
#576=EDGE_CURVE('',#707,#637,#709,.T.);
#577=EDGE_CURVE('',#710,#692,#711,.T.);
#578=EDGE_CURVE('',#712,#710,#713,.T.);
#579=EDGE_CURVE('',#705,#712,#714,.T.);
#580=EDGE_CURVE('',#648,#715,#716,.T.);
#581=EDGE_CURVE('',#717,#707,#718,.T.);
#582=EDGE_CURVE('',#719,#717,#720,.T.);
#583=EDGE_CURVE('',#721,#719,#722,.F.);
#584=EDGE_CURVE('',#723,#721,#724,.F.);
#585=EDGE_CURVE('',#715,#723,#725,.F.);
#586=EDGE_CURVE('',#726,#726,#727,.T.);
#587=EDGE_CURVE('',#695,#715,#728,.T.);
#588=EDGE_CURVE('',#719,#689,#729,.T.);
#589=EDGE_CURVE('',#717,#690,#730,.T.);
#590=EDGE_CURVE('',#704,#731,#732,.T.);
#591=EDGE_CURVE('',#731,#733,#734,.T.);
#592=EDGE_CURVE('',#710,#733,#735,.T.);
#593=EDGE_CURVE('',#736,#736,#737,.F.);
#594=EDGE_CURVE('',#697,#723,#738,.T.);
#595=EDGE_CURVE('',#721,#699,#739,.T.);
#596=EDGE_CURVE('',#731,#740,#741,.T.);
#597=EDGE_CURVE('',#705,#740,#742,.T.);
#598=EDGE_CURVE('',#743,#733,#744,.T.);
#599=EDGE_CURVE('',#712,#743,#745,.T.);
#600=EDGE_CURVE('',#740,#743,#746,.T.);
#601=EDGE_CURVE('',#747,#747,#748,.T.);
#602=VERTEX_POINT('',#749);
#603=VERTEX_POINT('',#750);
#604=LINE('',#751,#752);
#605=VERTEX_POINT('',#754);
#606=LINE('',#755,#756);
#607=VERTEX_POINT('',#758);
#608=LINE('',#759,#760);
#609=VERTEX_POINT('',#762);
#610=LINE('',#763,#764);
#611=VERTEX_POINT('',#766);
#612=LINE('',#767,#768);
#613=LINE('',#770,#771);
#614=VERTEX_POINT('',#773);
#615=CIRCLE('',#774,1.5);
#616=VERTEX_POINT('',#778);
#617=VERTEX_POINT('',#779);
#618=LINE('',#780,#781);
#619=VERTEX_POINT('',#783);
#620=LINE('',#784,#785);
#621=VERTEX_POINT('',#787);
#622=LINE('',#788,#789);
#623=VERTEX_POINT('',#791);
#624=LINE('',#792,#793);
#625=VERTEX_POINT('',#795);
#626=LINE('',#796,#797);
#627=LINE('',#799,#800);
#628=VERTEX_POINT('',#802);
#629=CIRCLE('',#803,1.5);
#630=VERTEX_POINT('',#807);
#631=VERTEX_POINT('',#808);
#632=B_SPLINE_CURVE_WITH_KNOTS('',3,
(#809,#810,#811,#812,#813,#814,#815,#816,#817,#818,#819,#820,#821,#822,#823,#824,
#825,#826,#827,#828,#829,#830,#831,#832,#833,#834,#835,#836,#837,#838,#839,#840,
#841,#842),
.UNSPECIFIED.,.F.,.F.,
(4,1,1,1,1,1,1,1,1,1,1,1,1,1,1,1,1,1,1,1,1,1,1,1,1,1,1,1,1,1,1,4),
(0.,0.0200289649334864,0.0466953035505615,0.0800319376310171,0.12001298160986,0.15553894689945,
0.186612928727404,0.215442073487436,0.246483651905499,0.281935233990326,0.319583657273761,
0.357925207360775,0.394763205470494,0.435974303008947,0.474234741993425,0.500000772036571,
0.50954082107876,0.53748761695138,0.566916276533328,0.600763301547131,0.637541904239834,
0.67507997177058,0.71044884110174,0.754745333748109,0.805771192637283,0.854618423432017,
0.890167117685514,0.921247251061109,0.94808098818598,0.970634671993542,0.985046004396291,
1.),
.UNSPECIFIED.);
#633=VERTEX_POINT('',#843);
#634=LINE('',#844,#845);
#635=VERTEX_POINT('',#847);
#636=CIRCLE('',#848,13.);
#637=VERTEX_POINT('',#852);
#638=LINE('',#853,#854);
#639=VERTEX_POINT('',#856);
#640=CIRCLE('',#857,13.);
#641=VERTEX_POINT('',#861);
#642=LINE('',#862,#863);
#643=VERTEX_POINT('',#865);
#644=B_SPLINE_CURVE_WITH_KNOTS('',3,
(#866,#867,#868,#869,#870,#871,#872,#873,#874,#875,#876,#877,#878,#879,#880,#881,
#882,#883,#884,#885,#886,#887,#888,#889,#890,#891,#892,#893,#894,#895,#896,#897,
#898,#899),
.UNSPECIFIED.,.F.,.F.,
(4,1,1,1,1,1,1,1,1,1,1,1,1,1,1,1,1,1,1,1,1,1,1,1,1,1,1,1,1,1,1,4),
(0.,0.0200289649334867,0.0466953035505618,0.0800319376310173,0.120012981609861,0.15553894689945,
0.186612928727405,0.215442073487437,0.2464836519055,0.281935233990325,0.319583657273763,
0.357925207360776,0.394763205470494,0.435974303008945,0.474234741993425,0.500000772036571,
0.509540821078761,0.537487616951383,0.566916276533329,0.600763301547131,0.637541904239834,
0.675079971770581,0.710448841101741,0.754745333748108,0.805771192637282,0.854618423432018,
0.890167117685514,0.92124725106111,0.948080988185982,0.970634671993545,0.985046004396292,
1.),
.UNSPECIFIED.);
#645=LINE('',#900,#901);
#646=CIRCLE('',#903,1.5);
#647=CIRCLE('',#907,1.5);
#648=VERTEX_POINT('',#911);
#649=LINE('',#912,#913);
#650=VERTEX_POINT('',#915);
#651=LINE('',#916,#917);
#652=LINE('',#919,#920);
#653=VERTEX_POINT('',#922);
#654=LINE('',#923,#924);
#655=VERTEX_POINT('',#926);
#656=(BOUNDED_CURVE()B_SPLINE_CURVE(3,
(#927,#928,#929,#930),
.UNSPECIFIED.,.F.,.F.)B_SPLINE_CURVE_WITH_KNOTS((4,4),
(0.,1.),
.UNSPECIFIED.)CURVE()GEOMETRIC_REPRESENTATION_ITEM()RATIONAL_B_SPLINE_CURVE((1.,
0.991738233505922,0.991738233505922,1.))REPRESENTATION_ITEM(''));
#657=LINE('',#931,#932);
#658=VERTEX_POINT('',#934);
#659=LINE('',#935,#936);
#660=LINE('',#938,#939);
#661=VERTEX_POINT('',#941);
#662=(BOUNDED_CURVE()B_SPLINE_CURVE(3,
(#942,#943,#944,#945),
.UNSPECIFIED.,.F.,.F.)B_SPLINE_CURVE_WITH_KNOTS((4,4),
(0.,1.),
.UNSPECIFIED.)CURVE()GEOMETRIC_REPRESENTATION_ITEM()RATIONAL_B_SPLINE_CURVE((1.,
0.991738233505922,0.991738233505922,1.))REPRESENTATION_ITEM(''));
#663=LINE('',#946,#947);
#664=VERTEX_POINT('',#949);
#665=(BOUNDED_CURVE()B_SPLINE_CURVE(3,
(#950,#951,#952,#953),
.UNSPECIFIED.,.F.,.F.)B_SPLINE_CURVE_WITH_KNOTS((4,4),
(0.,1.),
.UNSPECIFIED.)CURVE()GEOMETRIC_REPRESENTATION_ITEM()RATIONAL_B_SPLINE_CURVE((1.,
0.991738233505922,0.991738233505922,1.))REPRESENTATION_ITEM(''));
#666=LINE('',#954,#955);
#667=VERTEX_POINT('',#957);
#668=LINE('',#958,#959);
#669=LINE('',#961,#962);
#670=(BOUNDED_CURVE()B_SPLINE_CURVE(3,
(#964,#965,#966,#967),
.UNSPECIFIED.,.F.,.F.)B_SPLINE_CURVE_WITH_KNOTS((4,4),
(0.,1.),
.UNSPECIFIED.)CURVE()GEOMETRIC_REPRESENTATION_ITEM()RATIONAL_B_SPLINE_CURVE((1.,
0.991738233505922,0.991738233505922,1.))REPRESENTATION_ITEM(''));
#671=VERTEX_POINT('',#968);
#672=LINE('',#969,#970);
#673=VERTEX_POINT('',#972);
#674=(BOUNDED_CURVE()B_SPLINE_CURVE(3,
(#973,#974,#975,#976),
.UNSPECIFIED.,.F.,.F.)B_SPLINE_CURVE_WITH_KNOTS((4,4),
(0.,1.),
.UNSPECIFIED.)CURVE()GEOMETRIC_REPRESENTATION_ITEM()RATIONAL_B_SPLINE_CURVE((1.,
0.991738233505922,0.991738233505922,1.))REPRESENTATION_ITEM(''));
#675=LINE('',#977,#978);
#676=VERTEX_POINT('',#980);
#677=LINE('',#981,#982);
#678=LINE('',#984,#985);
#679=VERTEX_POINT('',#987);
#680=(BOUNDED_CURVE()B_SPLINE_CURVE(3,
(#988,#989,#990,#991),
.UNSPECIFIED.,.F.,.F.)B_SPLINE_CURVE_WITH_KNOTS((4,4),
(0.,1.),
.UNSPECIFIED.)CURVE()GEOMETRIC_REPRESENTATION_ITEM()RATIONAL_B_SPLINE_CURVE((1.,
0.991738233505922,0.991738233505922,1.))REPRESENTATION_ITEM(''));
#681=LINE('',#992,#993);
#682=VERTEX_POINT('',#995);
#683=(BOUNDED_CURVE()B_SPLINE_CURVE(3,
(#996,#997,#998,#999),
.UNSPECIFIED.,.F.,.F.)B_SPLINE_CURVE_WITH_KNOTS((4,4),
(0.,1.),
.UNSPECIFIED.)CURVE()GEOMETRIC_REPRESENTATION_ITEM()RATIONAL_B_SPLINE_CURVE((1.,
0.991738233505922,0.991738233505922,1.))REPRESENTATION_ITEM(''));
#684=LINE('',#1000,#1001);
#685=VERTEX_POINT('',#1003);
#686=LINE('',#1004,#1005);
#687=LINE('',#1007,#1008);
#688=(BOUNDED_CURVE()B_SPLINE_CURVE(3,
(#1010,#1011,#1012,#1013),
.UNSPECIFIED.,.F.,.F.)B_SPLINE_CURVE_WITH_KNOTS((4,4),
(0.,1.),
.UNSPECIFIED.)CURVE()GEOMETRIC_REPRESENTATION_ITEM()RATIONAL_B_SPLINE_CURVE((1.,
0.991738233505922,0.991738233505922,1.))REPRESENTATION_ITEM(''));
#689=VERTEX_POINT('',#1014);
#690=VERTEX_POINT('',#1015);
#691=LINE('',#1016,#1017);
#692=VERTEX_POINT('',#1019);
#693=LINE('',#1020,#1021);
#694=LINE('',#1023,#1024);
#695=VERTEX_POINT('',#1026);
#696=LINE('',#1027,#1028);
#697=VERTEX_POINT('',#1030);
#698=LINE('',#1031,#1032);
#699=VERTEX_POINT('',#1034);
#700=LINE('',#1035,#1036);
#701=LINE('',#1038,#1039);
#702=VERTEX_POINT('',#1041);
#703=CIRCLE('',#1042,10.);
#704=VERTEX_POINT('',#1046);
#705=VERTEX_POINT('',#1047);
#706=LINE('',#1048,#1049);
#707=VERTEX_POINT('',#1051);
#708=LINE('',#1052,#1053);
#709=LINE('',#1055,#1056);
#710=VERTEX_POINT('',#1058);
#711=LINE('',#1059,#1060);
#712=VERTEX_POINT('',#1062);
#713=LINE('',#1063,#1064);
#714=LINE('',#1066,#1067);
#715=VERTEX_POINT('',#1069);
#716=LINE('',#1070,#1071);
#717=VERTEX_POINT('',#1073);
#718=LINE('',#1074,#1075);
#719=VERTEX_POINT('',#1077);
#720=LINE('',#1078,#1079);
#721=VERTEX_POINT('',#1081);
#722=LINE('',#1082,#1083);
#723=VERTEX_POINT('',#1085);
#724=LINE('',#1086,#1087);
#725=LINE('',#1089,#1090);
#726=VERTEX_POINT('',#1092);
#727=CIRCLE('',#1093,10.);
#728=LINE('',#1097,#1098);
#729=LINE('',#1100,#1101);
#730=LINE('',#1103,#1104);
#731=VERTEX_POINT('',#1106);
#732=LINE('',#1107,#1108);
#733=VERTEX_POINT('',#1110);
#734=CIRCLE('',#1111,3.);
#735=LINE('',#1115,#1116);
#736=VERTEX_POINT('',#1118);
#737=CIRCLE('',#1119,0.7);
#738=LINE('',#1123,#1124);
#739=LINE('',#1126,#1127);
#740=VERTEX_POINT('',#1129);
#741=LINE('',#1130,#1131);
#742=LINE('',#1133,#1134);
#743=VERTEX_POINT('',#1136);
#744=LINE('',#1137,#1138);
#745=LINE('',#1140,#1141);
#746=CIRCLE('',#1143,3.);
#747=VERTEX_POINT('',#1147);
#748=CIRCLE('',#1148,0.7);
#749=CARTESIAN_POINT('',(-12.,27.5795716689757,2.45471776300601E-16));
#750=CARTESIAN_POINT('',(-12.,25.7897858344878,3.1));
#751=CARTESIAN_POINT('',(-12.,25.7897858344878,3.1));
#752=VECTOR('',#753,1.);
#753=DIRECTION('',(0.,0.5,-0.866025403784439));
#754=CARTESIAN_POINT('',(-12.,22.2102141655122,3.1));
#755=CARTESIAN_POINT('',(-12.,22.2102141655122,3.1));
#756=VECTOR('',#757,1.);
#757=DIRECTION('',(0.,1.,1.36468319678833E-15));
#758=CARTESIAN_POINT('',(-12.,20.4204283310243,-4.18970221102292E-15));
#759=CARTESIAN_POINT('',(-12.,20.4204283310243,-9.31720506893059E-15));
#760=VECTOR('',#761,1.);
#761=DIRECTION('',(0.,0.499999999999999,0.866025403784439));
#762=CARTESIAN_POINT('',(-12.,22.2102141655122,-3.1));
#763=CARTESIAN_POINT('',(-12.,22.2102141655122,-3.1));
#764=VECTOR('',#765,1.);
#765=DIRECTION('',(0.,-0.500000000000001,0.866025403784438));
#766=CARTESIAN_POINT('',(-12.,25.7897858344878,-3.1));
#767=CARTESIAN_POINT('',(-12.,25.7897858344878,-3.1));
#768=VECTOR('',#769,1.);
#769=DIRECTION('',(0.,-1.,-1.2406210879894E-16));
#770=CARTESIAN_POINT('',(-12.,27.5795716689757,2.01674210757128E-16));
#771=VECTOR('',#772,1.);
#772=DIRECTION('',(0.,-0.5,-0.866025403784438));
#773=CARTESIAN_POINT('',(-12.,22.5,-1.19403062916867E-15));
#774=AXIS2_PLACEMENT_3D('',#775,#776,#777);
#775=CARTESIAN_POINT('',(-12.,24.,-1.77635683940025E-15));
#776=DIRECTION('',(1.,0.,0.));
#777=DIRECTION('',(0.,-1.,6.12323399573676E-17));
#778=CARTESIAN_POINT('',(-12.,9.57957166897568,-1.85591106509466E-15));
#779=CARTESIAN_POINT('',(-12.,7.78978583448784,3.1));
#780=CARTESIAN_POINT('',(-12.,7.78978583448784,3.1));
#781=VECTOR('',#782,1.);
#782=DIRECTION('',(0.,0.5,-0.866025403784439));
#783=CARTESIAN_POINT('',(-12.,4.21021416551216,3.1));
#784=CARTESIAN_POINT('',(-12.,4.21021416551216,3.1));
#785=VECTOR('',#786,1.);
#786=DIRECTION('',(0.,1.,3.72186326396818E-16));
#787=CARTESIAN_POINT('',(-12.,2.42042833102432,-5.29188433025554E-15));
#788=CARTESIAN_POINT('',(-12.,2.42042833102432,-1.0574463105089E-14));
#789=VECTOR('',#790,1.);
#790=DIRECTION('',(0.,0.499999999999999,0.866025403784439));
#791=CARTESIAN_POINT('',(-12.,4.21021416551216,-3.1));
#792=CARTESIAN_POINT('',(-12.,4.21021416551216,-3.1));
#793=VECTOR('',#794,1.);
#794=DIRECTION('',(0.,-0.500000000000001,0.866025403784438));
#795=CARTESIAN_POINT('',(-12.,7.78978583448784,-3.1));
#796=CARTESIAN_POINT('',(-12.,7.78978583448784,-3.1));
#797=VECTOR('',#798,1.);
#798=DIRECTION('',(0.,-1.,-7.44372652793638E-16));
#799=CARTESIAN_POINT('',(-12.,9.57957166897568,-1.1780287332776E-15));
#800=VECTOR('',#801,1.);
#801=DIRECTION('',(0.,-0.5,-0.866025403784439));
#802=CARTESIAN_POINT('',(-12.,4.5,-9.18485099360514E-17));
#803=AXIS2_PLACEMENT_3D('',#804,#805,#806);
#804=CARTESIAN_POINT('',(-12.,6.,0.));
#805=DIRECTION('',(1.,0.,0.));
#806=DIRECTION('',(0.,-1.,6.12323399573676E-17));
#807=CARTESIAN_POINT('',(-13.,22.5,-7.04171909509727E-16));
#808=CARTESIAN_POINT('',(-13.,25.4999999999999,3.67394039744203E-16));
#809=CARTESIAN_POINT('',(-13.,22.5,-7.96020419445778E-16));
#810=CARTESIAN_POINT('',(-13.0000012882809,22.4999971146377,-0.0314901696885255));
#811=CARTESIAN_POINT('',(-12.9997321592959,22.5023142848991,-0.104902155952488));
#812=CARTESIAN_POINT('',(-12.9982164598837,22.5154962364883,-0.23013007552684));
#813=CARTESIAN_POINT('',(-12.9946787759762,22.5466403480776,-0.384385421830195));
#814=CARTESIAN_POINT('',(-12.9888257032348,22.5996394427574,-0.547338821614992));
#815=CARTESIAN_POINT('',(-12.9814136709709,22.6699981031499,-0.699517475221683));
#816=CARTESIAN_POINT('',(-12.9737597205158,22.7468197362468,-0.828362493303443));
#817=CARTESIAN_POINT('',(-12.9658594458772,22.8312039960241,-0.943690400410557));
#818=CARTESIAN_POINT('',(-12.9572236327022,22.9306056756275,-1.05574157591501));
#819=CARTESIAN_POINT('',(-12.9477388269983,23.0514033331802,-1.16621694775448));
#820=CARTESIAN_POINT('',(-12.9380447075867,23.1934069223864,-1.2689001709687));
#821=CARTESIAN_POINT('',(-12.9292622539407,23.3485809859198,-1.35504003607999));
#822=CARTESIAN_POINT('',(-12.9217706699214,23.5180530380219,-1.42444537487261));
#823=CARTESIAN_POINT('',(-12.9163411374667,23.6947636762835,-1.47260606926542));
#824=CARTESIAN_POINT('',(-12.9136458783118,23.8588347532284,-1.49592100629457));
#825=CARTESIAN_POINT('',(-12.9131009732422,23.9744903072132,-1.50060760401285));
#826=CARTESIAN_POINT('',(-12.913274221204,24.0739331303026,-1.49911613716703));
#827=CARTESIAN_POINT('',(-12.9141777294792,24.1789470077654,-1.49133814808735));
#828=CARTESIAN_POINT('',(-12.9168738754252,24.3205650478212,-1.46788291174113));
#829=CARTESIAN_POINT('',(-12.9214920931263,24.4725803957594,-1.4268592025484));
#830=CARTESIAN_POINT('',(-12.928251541599,24.6309756707424,-1.36459207769498));
#831=CARTESIAN_POINT('',(-12.9366196144517,24.7831072823568,-1.28319639941803));
#832=CARTESIAN_POINT('',(-12.9466628789509,24.9345875922877,-1.17828294293975));
#833=CARTESIAN_POINT('',(-12.9585842212947,25.0877001948241,-1.04105001190624));
#834=CARTESIAN_POINT('',(-12.9716042812685,25.2322720576181,-0.866036882149402));
#835=CARTESIAN_POINT('',(-12.9824929544375,25.3407442325634,-0.682442222762843));
#836=CARTESIAN_POINT('',(-12.9900699205953,25.4116754127532,-0.515187168949627));
#837=CARTESIAN_POINT('',(-12.9948287928629,25.4546238990987,-0.374567129759));
#838=CARTESIAN_POINT('',(-12.9977535279072,25.4804418048029,-0.250655865714248));
#839=CARTESIAN_POINT('',(-12.9992203311896,25.4932335983408,-0.151096953954532));
#840=CARTESIAN_POINT('',(-12.9998746836198,25.4989154262599,-0.0696424844774485));
#841=CARTESIAN_POINT('',(-13.0000003469543,25.500001087918,-0.0234922141002593));
#842=CARTESIAN_POINT('',(-13.,25.5,1.11331792780808E-16));
#843=CARTESIAN_POINT('',(-13.,30.,6.42939569552361E-16));
#844=CARTESIAN_POINT('',(-13.,25.4999999999999,3.67394039744203E-16));
#845=VECTOR('',#846,1.);
#846=DIRECTION('',(0.,1.,6.12323399573677E-17));
#847=CARTESIAN_POINT('',(7.9602041944578E-16,30.,-13.));
#848=AXIS2_PLACEMENT_3D('',#849,#850,#851);
#849=CARTESIAN_POINT('',(0.,30.,1.83697019872103E-15));
#850=DIRECTION('',(0.,1.,6.12323399573677E-17));
#851=DIRECTION('',(6.12323399573677E-17,6.12323399573677E-17,-1.));
#852=CARTESIAN_POINT('',(7.9602041944578E-16,7.9602041944578E-16,-13.));
#853=CARTESIAN_POINT('',(3.9801020972289E-16,7.9602041944578E-16,-13.));
#854=VECTOR('',#855,1.);
#855=DIRECTION('',(0.,1.,5.9211894646675E-17));
#856=CARTESIAN_POINT('',(-13.,7.31132894047656E-32,-1.19403062916867E-15));
#857=AXIS2_PLACEMENT_3D('',#858,#859,#860);
#858=CARTESIAN_POINT('',(0.,0.,0.));
#859=DIRECTION('',(0.,1.,6.12323399573677E-17));
#860=DIRECTION('',(6.12323399573677E-17,6.12323399573677E-17,-1.));
#861=CARTESIAN_POINT('',(-13.,4.5,-4.28626379701574E-16));
#862=CARTESIAN_POINT('',(-13.,7.31132894047656E-32,-1.19403062916867E-15));
#863=VECTOR('',#864,1.);
#864=DIRECTION('',(0.,1.,6.12323399573677E-17));
#865=CARTESIAN_POINT('',(-13.,7.5,-7.34788079488412E-16));
#866=CARTESIAN_POINT('',(-13.,4.5,-7.96020419445779E-16));
#867=CARTESIAN_POINT('',(-13.0000012882809,4.49999711463766,-0.0314901696885255));
#868=CARTESIAN_POINT('',(-12.9997321592959,4.50231428489911,-0.104902155952488));
#869=CARTESIAN_POINT('',(-12.9982164598837,4.51549623648832,-0.230130075526841));
#870=CARTESIAN_POINT('',(-12.9946787759762,4.54664034807758,-0.384385421830198));
#871=CARTESIAN_POINT('',(-12.9888257032348,4.59963944275741,-0.547338821614992));
#872=CARTESIAN_POINT('',(-12.9814136709709,4.66999810314995,-0.699517475221686));
#873=CARTESIAN_POINT('',(-12.9737597205158,4.74681973624676,-0.828362493303445));
#874=CARTESIAN_POINT('',(-12.9658594458772,4.83120399602407,-0.943690400410558));
#875=CARTESIAN_POINT('',(-12.9572236327022,4.93060567562746,-1.05574157591501));
#876=CARTESIAN_POINT('',(-12.9477388269983,5.05140333318023,-1.16621694775449));
#877=CARTESIAN_POINT('',(-12.9380447075867,5.1934069223864,-1.26890017096869));
#878=CARTESIAN_POINT('',(-12.9292622539407,5.34858098591985,-1.35504003607999));
#879=CARTESIAN_POINT('',(-12.9217706699214,5.51805303802193,-1.4244453748726));
#880=CARTESIAN_POINT('',(-12.9163411374667,5.69476367628355,-1.47260606926542));
#881=CARTESIAN_POINT('',(-12.9136458783118,5.85883475322834,-1.49592100629457));
#882=CARTESIAN_POINT('',(-12.9131009732422,5.97449030721323,-1.50060760401285));
#883=CARTESIAN_POINT('',(-12.913274221204,6.07393313030263,-1.49911613716703));
#884=CARTESIAN_POINT('',(-12.9141777294792,6.17894700776542,-1.49133814808735));
#885=CARTESIAN_POINT('',(-12.9168738754252,6.32056504782123,-1.46788291174113));
#886=CARTESIAN_POINT('',(-12.9214920931263,6.4725803957594,-1.4268592025484));
#887=CARTESIAN_POINT('',(-12.928251541599,6.63097567074243,-1.36459207769498));
#888=CARTESIAN_POINT('',(-12.9366196144517,6.78310728235681,-1.28319639941803));
#889=CARTESIAN_POINT('',(-12.9466628789509,6.93458759228769,-1.17828294293975));
#890=CARTESIAN_POINT('',(-12.9585842212947,7.08770019482409,-1.04105001190624));
#891=CARTESIAN_POINT('',(-12.9716042812685,7.23227205761811,-0.866036882149402));
#892=CARTESIAN_POINT('',(-12.9824929544375,7.34074423256338,-0.682442222762841));
#893=CARTESIAN_POINT('',(-12.9900699205953,7.41167541275321,-0.515187168949625));
#894=CARTESIAN_POINT('',(-12.9948287928629,7.45462389909874,-0.374567129758996));
#895=CARTESIAN_POINT('',(-12.9977535279072,7.48044180480292,-0.25065586571424));
#896=CARTESIAN_POINT('',(-12.9992203311896,7.49323359834084,-0.151096953954527));
#897=CARTESIAN_POINT('',(-12.9998746836198,7.49891542625991,-0.069642484477446));
#898=CARTESIAN_POINT('',(-13.0000003469543,7.50000108791804,-0.0234922141002594));
#899=CARTESIAN_POINT('',(-13.,7.5,-1.22093583676938E-15));
#900=CARTESIAN_POINT('',(-13.,7.5,-7.34788079488412E-16));
#901=VECTOR('',#902,1.);
#902=DIRECTION('',(0.,1.,6.12323399573677E-17));
#903=AXIS2_PLACEMENT_3D('',#904,#905,#906);
#904=CARTESIAN_POINT('',(-13.,24.,-1.46957615897682E-15));
#905=DIRECTION('',(1.,0.,0.));
#906=DIRECTION('',(0.,1.,1.14857060967808E-15));
#907=AXIS2_PLACEMENT_3D('',#908,#909,#910);
#908=CARTESIAN_POINT('',(-13.,6.,-3.67394039744206E-16));
#909=DIRECTION('',(1.,0.,0.));
#910=DIRECTION('',(0.,1.,-1.83697019872103E-16));
#911=CARTESIAN_POINT('',(-13.,-7.9602041944578E-16,13.));
#912=CARTESIAN_POINT('',(-13.,4.87421929365104E-32,-7.9602041944578E-16));
#913=VECTOR('',#914,1.);
#914=DIRECTION('',(0.,-6.12323399573677E-17,1.));
#915=CARTESIAN_POINT('',(-13.,30.,13.));
#916=CARTESIAN_POINT('',(-13.,-7.9602041944578E-16,13.));
#917=VECTOR('',#918,1.);
#918=DIRECTION('',(0.,1.,5.9211894646675E-17));
#919=CARTESIAN_POINT('',(-13.,30.,1.04094977927525E-15));
#920=VECTOR('',#921,1.);
#921=DIRECTION('',(0.,0.,1.));
#922=CARTESIAN_POINT('',(-10.,27.5795716689757,2.45471776300601E-16));
#923=CARTESIAN_POINT('',(-10.,27.5795716689757,2.45471776300601E-16));
#924=VECTOR('',#925,1.);
#925=DIRECTION('',(-1.,0.,0.));
#926=CARTESIAN_POINT('',(-9.50736556570746,25.7897858344878,3.1));
#927=CARTESIAN_POINT('',(-10.,27.5795716689757,-6.12323399573677E-16));
#928=CARTESIAN_POINT('',(-10.,26.9704578649966,1.05501605608337));
#929=CARTESIAN_POINT('',(-9.83442054309331,26.3688925950426,2.09695766771245));
#930=CARTESIAN_POINT('',(-9.50736556570746,25.7897858344878,3.1));
#931=CARTESIAN_POINT('',(-9.50736556570746,25.7897858344878,3.1));
#932=VECTOR('',#933,1.);
#933=DIRECTION('',(-1.,0.,0.));
#934=CARTESIAN_POINT('',(-9.50736556570747,22.2102141655122,3.1));
#935=CARTESIAN_POINT('',(-9.50736556570746,22.2102141655122,3.1));
#936=VECTOR('',#937,1.);
#937=DIRECTION('',(0.,1.,4.96248435195758E-16));
#938=CARTESIAN_POINT('',(-9.50736556570747,22.2102141655122,3.1));
#939=VECTOR('',#940,1.);
#940=DIRECTION('',(-1.,0.,0.));
#941=CARTESIAN_POINT('',(-10.,20.4204283310243,-3.96765760609789E-15));
#942=CARTESIAN_POINT('',(-10.,20.4204283310243,-9.22721937027147E-15));
#943=CARTESIAN_POINT('',(-10.,21.0295421350034,1.05501605608336));
#944=CARTESIAN_POINT('',(-9.83442054309331,21.6311074049573,2.09695766771244));
#945=CARTESIAN_POINT('',(-9.50736556570747,22.2102141655122,3.09999999999999));
#946=CARTESIAN_POINT('',(-10.,20.4204283310243,-3.96765760609789E-15));
#947=VECTOR('',#948,1.);
#948=DIRECTION('',(-1.,0.,-1.11022302462516E-16));
#949=CARTESIAN_POINT('',(-9.50736556570746,22.2102141655122,-3.1));
#950=CARTESIAN_POINT('',(-9.50736556570746,22.2102141655122,-3.1));
#951=CARTESIAN_POINT('',(-9.83442054309331,21.6311074049574,-2.09695766771245));
#952=CARTESIAN_POINT('',(-10.,21.0295421350034,-1.05501605608338));
#953=CARTESIAN_POINT('',(-10.,20.4204283310243,-5.49730470792437E-15));
#954=CARTESIAN_POINT('',(-9.50736556570746,22.2102141655122,-3.1));
#955=VECTOR('',#956,1.);
#956=DIRECTION('',(-1.,0.,0.));
#957=CARTESIAN_POINT('',(-9.50736556570746,25.7897858344878,-3.1));
#958=CARTESIAN_POINT('',(-9.50736556570746,22.2102141655122,-3.1));
#959=VECTOR('',#960,1.);
#960=DIRECTION('',(0.,1.,1.2406210879894E-16));
#961=CARTESIAN_POINT('',(-9.50736556570746,25.7897858344878,-3.1));
#962=VECTOR('',#963,1.);
#963=DIRECTION('',(-1.,0.,0.));
#964=CARTESIAN_POINT('',(-9.50736556570746,25.7897858344878,-3.1));
#965=CARTESIAN_POINT('',(-9.83442054309331,26.3688925950426,-2.09695766771245));
#966=CARTESIAN_POINT('',(-10.,26.9704578649966,-1.05501605608337));
#967=CARTESIAN_POINT('',(-10.,27.5795716689757,-4.4766302933575E-16));
#968=CARTESIAN_POINT('',(-10.,9.57957166897568,-1.85591106509466E-15));
#969=CARTESIAN_POINT('',(-10.,9.57957166897568,-1.85591106509466E-15));
#970=VECTOR('',#971,1.);
#971=DIRECTION('',(-1.,0.,0.));
#972=CARTESIAN_POINT('',(-9.50736556570747,7.78978583448784,3.1));
#973=CARTESIAN_POINT('',(-10.,9.57957166897568,-2.83276944882399E-15));
#974=CARTESIAN_POINT('',(-10.,8.97045786499657,1.05501605608337));
#975=CARTESIAN_POINT('',(-9.83442054309331,8.36889259504265,2.09695766771244));
#976=CARTESIAN_POINT('',(-9.50736556570746,7.78978583448784,3.1));
#977=CARTESIAN_POINT('',(-9.50736556570747,7.78978583448784,3.1));
#978=VECTOR('',#979,1.);
#979=DIRECTION('',(-1.,0.,0.));
#980=CARTESIAN_POINT('',(-9.50736556570746,4.21021416551216,3.1));
#981=CARTESIAN_POINT('',(-9.50736556570746,4.21021416551216,3.1));
#982=VECTOR('',#983,1.);
#983=DIRECTION('',(0.,1.,1.2406210879894E-16));
#984=CARTESIAN_POINT('',(-9.50736556570746,4.21021416551216,3.1));
#985=VECTOR('',#986,1.);
#986=DIRECTION('',(-1.,0.,0.));
#987=CARTESIAN_POINT('',(-10.,2.42042833102432,-5.29188433025554E-15));
#988=CARTESIAN_POINT('',(-10.,2.42042833102432,-1.05751986830256E-14));
#989=CARTESIAN_POINT('',(-10.,3.02954213500343,1.05501605608337));
#990=CARTESIAN_POINT('',(-9.83442054309331,3.63110740495735,2.09695766771245));
#991=CARTESIAN_POINT('',(-9.50736556570746,4.21021416551216,3.1));
#992=CARTESIAN_POINT('',(-10.,2.42042833102432,-5.29188433025554E-15));
#993=VECTOR('',#994,1.);
#994=DIRECTION('',(-1.,0.,0.));
#995=CARTESIAN_POINT('',(-9.50736556570746,4.21021416551216,-3.1));
#996=CARTESIAN_POINT('',(-9.50736556570746,4.21021416551216,-3.10000000000001));
#997=CARTESIAN_POINT('',(-9.83442054309331,3.63110740495735,-2.09695766771245));
#998=CARTESIAN_POINT('',(-10.,3.02954213500343,-1.05501605608338));
#999=CARTESIAN_POINT('',(-10.,2.42042833102432,-7.27366154732462E-15));
#1000=CARTESIAN_POINT('',(-9.50736556570746,4.21021416551216,-3.1));
#1001=VECTOR('',#1002,1.);
#1002=DIRECTION('',(-1.,0.,0.));
#1003=CARTESIAN_POINT('',(-9.50736556570746,7.78978583448784,-3.1));
#1004=CARTESIAN_POINT('',(-9.50736556570746,4.21021416551216,-3.1));
#1005=VECTOR('',#1006,1.);
#1006=DIRECTION('',(0.,1.,2.48124217597879E-16));
#1007=CARTESIAN_POINT('',(-9.50736556570746,7.78978583448784,-3.1));
#1008=VECTOR('',#1009,1.);
#1009=DIRECTION('',(-1.,0.,0.));
#1010=CARTESIAN_POINT('',(-9.50736556570746,7.78978583448784,-3.1));
#1011=CARTESIAN_POINT('',(-9.83442054309331,8.36889259504265,-2.09695766771245));
#1012=CARTESIAN_POINT('',(-10.,8.97045786499657,-1.05501605608337));
#1013=CARTESIAN_POINT('',(-10.,9.57957166897568,-1.11171675505435E-15));
#1014=CARTESIAN_POINT('',(1.5,30.,13.));
#1015=CARTESIAN_POINT('',(13.,30.,13.));
#1016=CARTESIAN_POINT('',(1.5,30.,13.));
#1017=VECTOR('',#1018,1.);
#1018=DIRECTION('',(1.,0.,0.));
#1019=CARTESIAN_POINT('',(13.,30.,-13.));
#1020=CARTESIAN_POINT('',(13.,30.,13.));
#1021=VECTOR('',#1022,1.);
#1022=DIRECTION('',(0.,0.,-1.));
#1023=CARTESIAN_POINT('',(13.,30.,-13.));
#1024=VECTOR('',#1025,1.);
#1025=DIRECTION('',(-1.,0.,0.));
#1026=CARTESIAN_POINT('',(-1.5,30.,13.));
#1027=CARTESIAN_POINT('',(-13.,30.,13.));
#1028=VECTOR('',#1029,1.);
#1029=DIRECTION('',(1.,0.,0.));
#1030=CARTESIAN_POINT('',(-3.23205080756888,30.,16.));
#1031=CARTESIAN_POINT('',(-1.5,30.,13.));
#1032=VECTOR('',#1033,1.);
#1033=DIRECTION('',(-0.5,0.,0.866025403784439));
#1034=CARTESIAN_POINT('',(3.23205080756888,30.,16.));
#1035=CARTESIAN_POINT('',(-3.23205080756888,30.,16.));
#1036=VECTOR('',#1037,1.);
#1037=DIRECTION('',(1.,0.,0.));
#1038=CARTESIAN_POINT('',(3.23205080756888,30.,16.));
#1039=VECTOR('',#1040,1.);
#1040=DIRECTION('',(-0.5,0.,-0.866025403784439));
#1041=CARTESIAN_POINT('',(1.83697019872103E-15,30.,-10.));
#1042=AXIS2_PLACEMENT_3D('',#1043,#1044,#1045);
#1043=CARTESIAN_POINT('',(0.,30.,1.83697019872103E-15));
#1044=DIRECTION('',(0.,1.,6.12323399573677E-17));
#1045=DIRECTION('',(6.12323399573677E-17,6.12323399573677E-17,-1.));
#1046=CARTESIAN_POINT('',(13.,12.,-13.));
#1047=CARTESIAN_POINT('',(11.,12.,-13.));
#1048=CARTESIAN_POINT('',(13.,12.,-13.));
#1049=VECTOR('',#1050,1.);
#1050=DIRECTION('',(-1.,0.,0.));
#1051=CARTESIAN_POINT('',(13.,7.9602041944578E-16,-13.));
#1052=CARTESIAN_POINT('',(13.,7.9602041944578E-16,-13.));
#1053=VECTOR('',#1054,1.);
#1054=DIRECTION('',(0.,1.,0.));
#1055=CARTESIAN_POINT('',(13.,7.9602041944578E-16,-13.));
#1056=VECTOR('',#1057,1.);
#1057=DIRECTION('',(-1.,0.,0.));
#1058=CARTESIAN_POINT('',(13.,18.,-13.));
#1059=CARTESIAN_POINT('',(13.,18.,-13.));
#1060=VECTOR('',#1061,1.);
#1061=DIRECTION('',(0.,1.,0.));
#1062=CARTESIAN_POINT('',(11.,18.,-13.));
#1063=CARTESIAN_POINT('',(11.,18.,-13.));
#1064=VECTOR('',#1065,1.);
#1065=DIRECTION('',(1.,0.,0.));
#1066=CARTESIAN_POINT('',(11.,12.,-13.));
#1067=VECTOR('',#1068,1.);
#1068=DIRECTION('',(2.96059473233375E-16,1.,2.96059473233375E-16));
#1069=CARTESIAN_POINT('',(-1.5,-6.67087802057029E-16,13.));
#1070=CARTESIAN_POINT('',(-13.,-7.9602041944578E-16,13.));
#1071=VECTOR('',#1072,1.);
#1072=DIRECTION('',(1.,0.,0.));
#1073=CARTESIAN_POINT('',(13.,-7.9602041944578E-16,13.));
#1074=CARTESIAN_POINT('',(13.,-7.9602041944578E-16,13.));
#1075=VECTOR('',#1076,1.);
#1076=DIRECTION('',(0.,6.12323399573677E-17,-1.));
#1077=CARTESIAN_POINT('',(1.5,-5.24004248916099E-16,13.));
#1078=CARTESIAN_POINT('',(1.5,-7.9602041944578E-16,13.));
#1079=VECTOR('',#1080,1.);
#1080=DIRECTION('',(1.,0.,0.));
#1081=CARTESIAN_POINT('',(3.23205080756888,6.64968763883366E-15,16.));
#1082=CARTESIAN_POINT('',(1.5,2.64248554376702E-15,13.));
#1083=VECTOR('',#1084,1.);
#1084=DIRECTION('',(0.5,-5.90688704021887E-17,0.866025403784439));
#1085=CARTESIAN_POINT('',(-3.23205080756888,8.89191937193551E-15,16.));
#1086=CARTESIAN_POINT('',(3.23205080756888,2.40879042992471E-15,16.));
#1087=VECTOR('',#1088,1.);
#1088=DIRECTION('',(-1.,3.06161699786839E-17,0.));
#1089=CARTESIAN_POINT('',(-3.23205080756888,2.95183265667904E-15,16.));
#1090=VECTOR('',#1091,1.);
#1091=DIRECTION('',(0.5,5.85637590745155E-17,-0.866025403784439));
#1092=CARTESIAN_POINT('',(1.83697019872103E-15,6.12323399573677E-16,-10.));
#1093=AXIS2_PLACEMENT_3D('',#1094,#1095,#1096);
#1094=CARTESIAN_POINT('',(0.,0.,0.));
#1095=DIRECTION('',(0.,1.,6.12323399573677E-17));
#1096=DIRECTION('',(6.12323399573677E-17,6.12323399573677E-17,-1.));
#1097=CARTESIAN_POINT('',(-1.5,30.,13.));
#1098=VECTOR('',#1099,1.);
#1099=DIRECTION('',(-3.70074341541719E-17,-1.,-5.9211894646675E-17));
#1100=CARTESIAN_POINT('',(1.5,-7.9602041944578E-16,13.));
#1101=VECTOR('',#1102,1.);
#1102=DIRECTION('',(6.66133814775094E-17,1.,5.9211894646675E-17));
#1103=CARTESIAN_POINT('',(13.,-7.9602041944578E-16,13.));
#1104=VECTOR('',#1105,1.);
#1105=DIRECTION('',(0.,1.,5.9211894646675E-17));
#1106=CARTESIAN_POINT('',(13.,12.,-16.));
#1107=CARTESIAN_POINT('',(13.,12.,-13.));
#1108=VECTOR('',#1109,1.);
#1109=DIRECTION('',(0.,1.1842378929335E-15,-1.));
#1110=CARTESIAN_POINT('',(13.,18.,-16.));
#1111=AXIS2_PLACEMENT_3D('',#1112,#1113,#1114);
#1112=CARTESIAN_POINT('',(13.,15.,-16.));
#1113=DIRECTION('',(1.,0.,0.));
#1114=DIRECTION('',(0.,-1.,0.));
#1115=CARTESIAN_POINT('',(13.,18.,-13.));
#1116=VECTOR('',#1117,1.);
#1117=DIRECTION('',(0.,0.,-1.));
#1118=CARTESIAN_POINT('',(13.,14.3,-16.));
#1119=AXIS2_PLACEMENT_3D('',#1120,#1121,#1122);
#1120=CARTESIAN_POINT('',(13.,15.,-16.));
#1121=DIRECTION('',(1.,0.,0.));
#1122=DIRECTION('',(0.,-1.,6.12323399573676E-17));
#1123=CARTESIAN_POINT('',(-3.23205080756888,30.,16.));
#1124=VECTOR('',#1125,1.);
#1125=DIRECTION('',(-5.9211894646675E-17,-1.,0.));
#1126=CARTESIAN_POINT('',(3.23205080756888,6.64968763883366E-15,16.));
#1127=VECTOR('',#1128,1.);
#1128=DIRECTION('',(7.40148683083438E-17,1.,0.));
#1129=CARTESIAN_POINT('',(11.,12.,-16.));
#1130=CARTESIAN_POINT('',(13.,12.,-16.));
#1131=VECTOR('',#1132,1.);
#1132=DIRECTION('',(-1.,0.,0.));
#1133=CARTESIAN_POINT('',(11.,12.,-13.));
#1134=VECTOR('',#1135,1.);
#1135=DIRECTION('',(0.,0.,-1.));
#1136=CARTESIAN_POINT('',(11.,18.,-16.));
#1137=CARTESIAN_POINT('',(11.,18.,-16.));
#1138=VECTOR('',#1139,1.);
#1139=DIRECTION('',(1.,0.,0.));
#1140=CARTESIAN_POINT('',(11.,18.,-13.));
#1141=VECTOR('',#1142,1.);
#1142=DIRECTION('',(0.,0.,-1.));
#1143=AXIS2_PLACEMENT_3D('',#1144,#1145,#1146);
#1144=CARTESIAN_POINT('',(11.,15.,-16.));
#1145=DIRECTION('',(1.,-2.96059473233375E-16,-1.75302423382447E-31));
#1146=DIRECTION('',(-2.96059473233375E-16,-1.,5.18999431231414E-47));
#1147=CARTESIAN_POINT('',(11.,14.3,-16.));
#1148=AXIS2_PLACEMENT_3D('',#1149,#1150,#1151);
#1149=CARTESIAN_POINT('',(11.,15.,-16.));
#1150=DIRECTION('',(1.,-2.96059473233375E-16,-1.75302423382447E-31));
#1151=DIRECTION('',(-2.96059473233375E-16,-1.,6.12323399573677E-17));
ENDSEC;
END-ISO-10303-21;
