ISO-10303-21;
HEADER;
FILE_DESCRIPTION(('STEP AP203'),
    '1');
FILE_NAME('Каретка',
    '',
    ('UNSPECIFIED'),
    ('UNSPECIFIED'),
    'C3D Converter',
    'C3D Toolkit',
    '');
FILE_SCHEMA(('CONFIG_CONTROL_DESIGN'));
ENDSEC;

DATA;
#1=PRODUCT_DEFINITION('','UNSPECIFIED',#28,#31);
#2=SHAPE_DEFINITION_REPRESENTATION(#26,#3);
#3=SHAPE_REPRESENTATION('NONE',(#4),#8);
#4=AXIS2_PLACEMENT_3D('',#5,#6,#7);
#5=CARTESIAN_POINT('',(0.,0.,0.));
#6=DIRECTION('',(0.,0.,1.));
#7=DIRECTION('',(1.,0.,0.));
#8=(GEOMETRIC_REPRESENTATION_CONTEXT(3)GLOBAL_UNCERTAINTY_ASSIGNED_CONTEXT((#10))
GLOBAL_UNIT_ASSIGNED_CONTEXT((#9,#11,#12))REPRESENTATION_CONTEXT('NONE','NONE'));
#9=(LENGTH_UNIT()NAMED_UNIT(*)SI_UNIT(.MILLI.,.METRE.));
#10=UNCERTAINTY_MEASURE_WITH_UNIT(LENGTH_MEASURE(1.E-5),#9,'NONE','NONE');
#11=(NAMED_UNIT(*)PLANE_ANGLE_UNIT()SI_UNIT($,.RADIAN.));
#12=(NAMED_UNIT(*)SI_UNIT($,.STERADIAN.)SOLID_ANGLE_UNIT());
#13=MANIFOLD_SOLID_BREP('',#14);
#14=CLOSED_SHELL('',(#53,#54,#55,#56,#57,#58,#59,#60,#61,#62,#63,#64,#65,#66,#67,
#68,#69,#70,#71,#72,#73,#74,#75,#76,#77,#78,#79,#80,#81,#82,#83,#84,#85,#86,#87,
#88));
#15=COLOUR_RGB('',0.564705882352941,0.564705882352941,0.564705882352941);
#16=FILL_AREA_STYLE_COLOUR('',#15);
#17=FILL_AREA_STYLE($,(#16));
#18=SURFACE_STYLE_FILL_AREA(#17);
#19=SURFACE_SIDE_STYLE('',(#18));
#20=SURFACE_STYLE_USAGE(.BOTH.,#19);
#21=PRESENTATION_STYLE_ASSIGNMENT((#20));
#22=MECHANICAL_DESIGN_GEOMETRIC_PRESENTATION_REPRESENTATION('NONE',(#23),#8);
#23=STYLED_ITEM('',(#21),#13);
#24=ADVANCED_BREP_SHAPE_REPRESENTATION('NONE',(#13),#8);
#25=SHAPE_REPRESENTATION_RELATIONSHIP('','',#3,#24);
#26=PRODUCT_DEFINITION_SHAPE('NONE','NONE',#1);
#27=MECHANICAL_CONTEXT('NONE',#32,'mechanical');
#28=PRODUCT_DEFINITION_FORMATION_WITH_SPECIFIED_SOURCE('ANY','UNSPECIFIED',#29,.NOT_KNOWN.);
#29=PRODUCT('','\X2\0414043504420430043B044C\X0\','NONE',(#27));
#30=PRODUCT_RELATED_PRODUCT_CATEGORY('detail','',(#29));
#31=DESIGN_CONTEXT('detailed design',#32,'design');
#32=APPLICATION_CONTEXT('configuration controlled 3d designs of mechanical parts and assemblies');
#33=APPLICATION_PROTOCOL_DEFINITION('international standard','config_control_design',
1994,#32);
#34=CC_DESIGN_DATE_AND_TIME_ASSIGNMENT(#35,#39,(#1));
#35=DATE_AND_TIME(#36,#37);
#36=CALENDAR_DATE(0,1,1);
#37=LOCAL_TIME(0,0,0.,#38);
#38=COORDINATED_UNIVERSAL_TIME_OFFSET(0,0,.AHEAD.);
#39=DATE_TIME_ROLE('creation_date');
#40=CC_DESIGN_APPROVAL(#41,(#1));
#41=APPROVAL(#42,'UNSPECIFIED');
#42=APPROVAL_STATUS('not_yet_approved');
#43=APPROVAL_DATE_TIME(#44,#41);
#44=DATE_AND_TIME(#45,#46);
#45=CALENDAR_DATE(0,1,1);
#46=LOCAL_TIME(0,0,0.,#47);
#47=COORDINATED_UNIVERSAL_TIME_OFFSET(0,0,.AHEAD.);
#48=PERSON('UNSPECIFIED','Nik','UNSPECIFIED',('UNSPECIFIED'),('UNSPECIFIED'),('UNSPECIFIED'));
#49=ORGANIZATION('UNSPECIFIED','UNSPECIFIED','UNSPECIFIED');
#50=PERSON_AND_ORGANIZATION(#48,#49);
#51=PERSON_AND_ORGANIZATION_ROLE('creator');
#52=CC_DESIGN_PERSON_AND_ORGANIZATION_ASSIGNMENT(#50,#51,(#28,#1));
#53=ADVANCED_FACE('',(#89,#91),#93,.F.);
#54=ADVANCED_FACE('',(#98),#100,.T.);
#55=ADVANCED_FACE('',(#105,#107),#109,.F.);
#56=ADVANCED_FACE('',(#114),#116,.T.);
#57=ADVANCED_FACE('',(#121),#123,.F.);
#58=ADVANCED_FACE('',(#128),#130,.F.);
#59=ADVANCED_FACE('',(#135,#137,#139),#141,.F.);
#60=ADVANCED_FACE('',(#146,#148,#150,#152),#154,.T.);
#61=ADVANCED_FACE('',(#159),#161,.T.);
#62=ADVANCED_FACE('',(#166,#168),#170,.T.);
#63=ADVANCED_FACE('',(#175,#177),#179,.T.);
#64=ADVANCED_FACE('',(#184,#186),#188,.T.);
#65=ADVANCED_FACE('',(#193),#195,.T.);
#66=ADVANCED_FACE('',(#200,#202),#204,.T.);
#67=ADVANCED_FACE('',(#209),#211,.T.);
#68=ADVANCED_FACE('',(#216,#218),#220,.T.);
#69=ADVANCED_FACE('',(#225),#227,.F.);
#70=ADVANCED_FACE('',(#232),#234,.T.);
#71=ADVANCED_FACE('',(#239),#241,.F.);
#72=ADVANCED_FACE('',(#246),#248,.T.);
#73=ADVANCED_FACE('',(#253),#255,.T.);
#74=ADVANCED_FACE('',(#260),#262,.F.);
#75=ADVANCED_FACE('',(#267),#269,.F.);
#76=ADVANCED_FACE('',(#274),#276,.F.);
#77=ADVANCED_FACE('',(#281),#283,.F.);
#78=ADVANCED_FACE('',(#288),#290,.F.);
#79=ADVANCED_FACE('',(#295),#297,.F.);
#80=ADVANCED_FACE('',(#302,#304),#306,.F.);
#81=ADVANCED_FACE('',(#311),#313,.T.);
#82=ADVANCED_FACE('',(#318),#320,.T.);
#83=ADVANCED_FACE('',(#325,#327),#329,.T.);
#84=ADVANCED_FACE('',(#334),#336,.T.);
#85=ADVANCED_FACE('',(#341,#343),#345,.T.);
#86=ADVANCED_FACE('',(#350,#352),#354,.F.);
#87=ADVANCED_FACE('',(#359),#361,.T.);
#88=ADVANCED_FACE('',(#366,#368),#370,.F.);
#89=FACE_OUTER_BOUND('',#90,.T.);
#90=EDGE_LOOP('',(#375));
#91=FACE_OUTER_BOUND('',#92,.T.);
#92=EDGE_LOOP('',(#376));
#93=CYLINDRICAL_SURFACE('',#94,2.5);
#94=AXIS2_PLACEMENT_3D('',#95,#96,#97);
#95=CARTESIAN_POINT('',(0.,5.,35.));
#96=DIRECTION('',(1.,0.,0.));
#97=DIRECTION('',(0.,-1.22464679914735E-16,-1.));
#98=FACE_BOUND('',#99,.T.);
#99=EDGE_LOOP('',(#377,#378,#379,#380,#381));
#100=CYLINDRICAL_SURFACE('',#101,5.);
#101=AXIS2_PLACEMENT_3D('',#102,#103,#104);
#102=CARTESIAN_POINT('',(0.,5.,35.));
#103=DIRECTION('',(-1.,0.,0.));
#104=DIRECTION('',(0.,-1.,1.22464679914735E-16));
#105=FACE_OUTER_BOUND('',#106,.T.);
#106=EDGE_LOOP('',(#382));
#107=FACE_OUTER_BOUND('',#108,.T.);
#108=EDGE_LOOP('',(#383));
#109=CYLINDRICAL_SURFACE('',#110,2.);
#110=AXIS2_PLACEMENT_3D('',#111,#112,#113);
#111=CARTESIAN_POINT('',(0.,4.99999999999999,-6.12323399573676E-16));
#112=DIRECTION('',(1.,0.,0.));
#113=DIRECTION('',(0.,-1.22464679914735E-16,-1.));
#114=FACE_BOUND('',#115,.T.);
#115=EDGE_LOOP('',(#384,#385,#386,#387,#388,#389,#390,#391));
#116=PLANE('',#117);
#117=AXIS2_PLACEMENT_3D('',#118,#119,#120);
#118=CARTESIAN_POINT('',(0.,10.,6.12323399573677E-16));
#119=DIRECTION('',(0.,1.,6.12323399573677E-17));
#120=DIRECTION('',(6.12323399573677E-17,6.12323399573677E-17,-1.));
#121=FACE_BOUND('',#122,.T.);
#122=EDGE_LOOP('',(#392,#393,#394,#395,#396,#397,#398,#399,#400,#401));
#123=PLANE('',#124);
#124=AXIS2_PLACEMENT_3D('',#125,#126,#127);
#125=CARTESIAN_POINT('',(0.,0.,0.));
#126=DIRECTION('',(0.,1.,6.12323399573677E-17));
#127=DIRECTION('',(6.12323399573677E-17,6.12323399573677E-17,-1.));
#128=FACE_BOUND('',#129,.T.);
#129=EDGE_LOOP('',(#402,#403,#404,#405));
#130=PLANE('',#131);
#131=AXIS2_PLACEMENT_3D('',#132,#133,#134);
#132=CARTESIAN_POINT('',(10.,1.53080849893419E-16,-2.5));
#133=DIRECTION('',(-1.11022302462516E-16,-4.44089209850063E-17,1.));
#134=DIRECTION('',(1.,-7.92382605690748E-33,1.11022302462516E-16));
#135=FACE_BOUND('',#136,.T.);
#136=EDGE_LOOP('',(#406,#407,#408,#409));
#137=FACE_BOUND('',#138,.T.);
#138=EDGE_LOOP('',(#410));
#139=FACE_BOUND('',#140,.T.);
#140=EDGE_LOOP('',(#411));
#141=PLANE('',#142);
#142=AXIS2_PLACEMENT_3D('',#143,#144,#145);
#143=CARTESIAN_POINT('',(31.6,1.53080849893419E-16,-2.49999999999999));
#144=DIRECTION('',(-1.,3.58573138736824E-33,-8.07434927000114E-17));
#145=DIRECTION('',(-8.07434927000114E-17,-6.12323399573677E-17,1.));
#146=FACE_BOUND('',#147,.T.);
#147=EDGE_LOOP('',(#412,#413,#414,#415,#416,#417));
#148=FACE_BOUND('',#149,.T.);
#149=EDGE_LOOP('',(#418,#419,#420,#421,#422,#423));
#150=FACE_BOUND('',#151,.T.);
#151=EDGE_LOOP('',(#424));
#152=FACE_BOUND('',#153,.T.);
#153=EDGE_LOOP('',(#425));
#154=PLANE('',#155);
#155=AXIS2_PLACEMENT_3D('',#156,#157,#158);
#156=CARTESIAN_POINT('',(2.44929359829471E-15,2.44929359829471E-15,-40.));
#157=DIRECTION('',(-1.,-6.84227765783602E-49,-6.12323399573677E-17));
#158=DIRECTION('',(-6.12323399573677E-17,-6.12323399573677E-17,1.));
#159=FACE_BOUND('',#160,.T.);
#160=EDGE_LOOP('',(#426,#427,#428,#429));
#161=PLANE('',#162);
#162=AXIS2_PLACEMENT_3D('',#163,#164,#165);
#163=CARTESIAN_POINT('',(-6.06262063641599E-15,10.,35.));
#164=DIRECTION('',(0.,0.,1.));
#165=DIRECTION('',(1.,0.,0.));
#166=FACE_BOUND('',#167,.T.);
#167=EDGE_LOOP('',(#430,#431,#432,#433,#434,#435));
#168=FACE_BOUND('',#169,.T.);
#169=EDGE_LOOP('',(#436));
#170=PLANE('',#171);
#171=AXIS2_PLACEMENT_3D('',#172,#173,#174);
#172=CARTESIAN_POINT('',(3.,2.05268329735081E-48,1.83697019872103E-16));
#173=DIRECTION('',(-1.,0.,-6.12323399573677E-17));
#174=DIRECTION('',(-6.12323399573677E-17,-1.22464679914735E-16,1.));
#175=FACE_BOUND('',#176,.T.);
#176=EDGE_LOOP('',(#437,#438,#439,#440,#441,#442,#443,#444,#445,#446));
#177=FACE_BOUND('',#178,.T.);
#178=EDGE_LOOP('',(#447,#448,#449,#450));
#179=PLANE('',#180);
#180=AXIS2_PLACEMENT_3D('',#181,#182,#183);
#181=CARTESIAN_POINT('',(5.,10.,35.));
#182=DIRECTION('',(1.,4.44089209850063E-17,1.01506105108586E-16));
#183=DIRECTION('',(1.01506105108586E-16,6.12323399573677E-17,-1.));
#184=FACE_BOUND('',#185,.T.);
#185=EDGE_LOOP('',(#451,#452,#453,#454));
#186=FACE_BOUND('',#187,.T.);
#187=EDGE_LOOP('',(#455));
#188=PLANE('',#189);
#189=AXIS2_PLACEMENT_3D('',#190,#191,#192);
#190=CARTESIAN_POINT('',(5.,10.,8.5));
#191=DIRECTION('',(1.48029736616688E-16,2.6832003578946E-32,-1.));
#192=DIRECTION('',(-1.81260901979617E-16,1.,0.));
#193=FACE_BOUND('',#194,.T.);
#194=EDGE_LOOP('',(#456,#457,#458,#459));
#195=PLANE('',#196);
#196=AXIS2_PLACEMENT_3D('',#197,#198,#199);
#197=CARTESIAN_POINT('',(17.,5.32907051820075E-16,1.21807326130303E-15));
#198=DIRECTION('',(1.,4.44089209850063E-17,1.01506105108586E-16));
#199=DIRECTION('',(1.01506105108586E-16,-1.22464679914735E-16,-1.));
#200=FACE_BOUND('',#201,.T.);
#201=EDGE_LOOP('',(#460,#461,#462,#463));
#202=FACE_BOUND('',#203,.T.);
#203=EDGE_LOOP('',(#464));
#204=PLANE('',#205);
#205=AXIS2_PLACEMENT_3D('',#206,#207,#208);
#206=CARTESIAN_POINT('',(5.,14.9,10.5));
#207=DIRECTION('',(-1.48029736616687E-16,-2.6832003578946E-32,1.));
#208=DIRECTION('',(1.81260901979617E-16,-1.,0.));
#209=FACE_BOUND('',#210,.T.);
#210=EDGE_LOOP('',(#465,#466,#467,#468));
#211=CYLINDRICAL_SURFACE('',#212,5.);
#212=AXIS2_PLACEMENT_3D('',#213,#214,#215);
#213=CARTESIAN_POINT('',(0.,5.,-35.));
#214=DIRECTION('',(-1.,0.,0.));
#215=DIRECTION('',(0.,1.,-1.22464679914735E-16));
#216=FACE_BOUND('',#217,.T.);
#217=EDGE_LOOP('',(#469,#470,#471,#472,#473));
#218=FACE_BOUND('',#219,.T.);
#219=EDGE_LOOP('',(#474));
#220=PLANE('',#221);
#221=AXIS2_PLACEMENT_3D('',#222,#223,#224);
#222=CARTESIAN_POINT('',(5.,10.,35.));
#223=DIRECTION('',(1.,4.44089209850063E-17,1.01506105108586E-16));
#224=DIRECTION('',(1.01506105108586E-16,6.12323399573677E-17,-1.));
#225=FACE_BOUND('',#226,.T.);
#226=EDGE_LOOP('',(#475,#476,#477,#478));
#227=PLANE('',#228);
#228=AXIS2_PLACEMENT_3D('',#229,#230,#231);
#229=CARTESIAN_POINT('',(1.9,-1.78978583448784,-20.8397858344878));
#230=DIRECTION('',(0.499999999999999,2.0721013439307E-17,-0.866025403784439));
#231=DIRECTION('',(-4.14420268786139E-17,1.,0.));
#232=FACE_BOUND('',#233,.T.);
#233=EDGE_LOOP('',(#479,#480,#481,#482));
#234=PLANE('',#235);
#235=AXIS2_PLACEMENT_3D('',#236,#237,#238);
#236=CARTESIAN_POINT('',(1.9,-1.37667655053519E-16,-3.14668925836616E-16));
#237=DIRECTION('',(1.,4.44089209850063E-17,1.01506105108586E-16));
#238=DIRECTION('',(-4.44089209850063E-17,1.,6.12323399573677E-17));
#239=FACE_BOUND('',#240,.T.);
#240=EDGE_LOOP('',(#483,#484,#485,#486));
#241=PLANE('',#242);
#242=AXIS2_PLACEMENT_3D('',#243,#244,#245);
#243=CARTESIAN_POINT('',(1.9,51.7897858344878,-14.1602141655121));
#244=DIRECTION('',(0.5,-6.54146219075663E-17,0.866025403784438));
#245=DIRECTION('',(4.1442026878614E-17,-1.,-9.94608645086735E-17));
#246=FACE_BOUND('',#247,.T.);
#247=EDGE_LOOP('',(#487,#488,#489,#490,#491,#492,#493,#494));
#248=PLANE('',#249);
#249=AXIS2_PLACEMENT_3D('',#250,#251,#252);
#250=CARTESIAN_POINT('',(0.,50.,3.06161699786838E-15));
#251=DIRECTION('',(0.,1.,6.12323399573677E-17));
#252=DIRECTION('',(-1.,7.49879891330929E-33,-1.22464679914735E-16));
#253=FACE_BOUND('',#254,.T.);
#254=EDGE_LOOP('',(#495,#496,#497,#498));
#255=PLANE('',#256);
#256=AXIS2_PLACEMENT_3D('',#257,#258,#259);
#257=CARTESIAN_POINT('',(10.,10.,-35.));
#258=DIRECTION('',(0.,1.77635683940025E-16,-1.));
#259=DIRECTION('',(-1.,0.,0.));
#260=FACE_BOUND('',#261,.T.);
#261=EDGE_LOOP('',(#499,#500,#501,#502));
#262=PLANE('',#263);
#263=AXIS2_PLACEMENT_3D('',#264,#265,#266);
#264=CARTESIAN_POINT('',(3.,5.,-3.57957166897568));
#265=DIRECTION('',(0.,-0.5,-0.866025403784439));
#266=DIRECTION('',(0.,-0.866025403784439,0.5));
#267=FACE_BOUND('',#268,.T.);
#268=EDGE_LOOP('',(#503,#504,#505,#506));
#269=PLANE('',#270);
#270=AXIS2_PLACEMENT_3D('',#271,#272,#273);
#271=CARTESIAN_POINT('',(3.,8.1,-1.78978583448784));
#272=DIRECTION('',(6.40987562127855E-17,0.5,-0.866025403784439));
#273=DIRECTION('',(0.,-0.866025403784439,-0.5));
#274=FACE_BOUND('',#275,.T.);
#275=EDGE_LOOP('',(#507,#508,#509,#510));
#276=PLANE('',#277);
#277=AXIS2_PLACEMENT_3D('',#278,#279,#280);
#278=CARTESIAN_POINT('',(3.,8.1,1.78978583448784));
#279=DIRECTION('',(0.,1.,0.));
#280=DIRECTION('',(0.,0.,-1.));
#281=FACE_BOUND('',#282,.T.);
#282=EDGE_LOOP('',(#511,#512,#513,#514));
#283=PLANE('',#284);
#284=AXIS2_PLACEMENT_3D('',#285,#286,#287);
#285=CARTESIAN_POINT('',(3.,5.,3.57957166897568));
#286=DIRECTION('',(0.,0.5,0.866025403784439));
#287=DIRECTION('',(0.,0.866025403784439,-0.5));
#288=FACE_BOUND('',#289,.T.);
#289=EDGE_LOOP('',(#515,#516,#517,#518));
#290=PLANE('',#291);
#291=AXIS2_PLACEMENT_3D('',#292,#293,#294);
#292=CARTESIAN_POINT('',(3.,1.9,1.78978583448784));
#293=DIRECTION('',(-6.40987562127855E-17,-0.5,0.866025403784439));
#294=DIRECTION('',(0.,0.866025403784439,0.5));
#295=FACE_BOUND('',#296,.T.);
#296=EDGE_LOOP('',(#519,#520,#521,#522));
#297=PLANE('',#298);
#298=AXIS2_PLACEMENT_3D('',#299,#300,#301);
#299=CARTESIAN_POINT('',(3.,1.9,-1.78978583448784));
#300=DIRECTION('',(2.29561016120223E-32,-1.,-3.10155271997349E-16));
#301=DIRECTION('',(0.,-3.10155271997349E-16,1.));
#302=FACE_OUTER_BOUND('',#303,.T.);
#303=EDGE_LOOP('',(#523));
#304=FACE_OUTER_BOUND('',#305,.T.);
#305=EDGE_LOOP('',(#524));
#306=CYLINDRICAL_SURFACE('',#307,2.5);
#307=AXIS2_PLACEMENT_3D('',#308,#309,#310);
#308=CARTESIAN_POINT('',(0.,5.,-35.));
#309=DIRECTION('',(1.,0.,0.));
#310=DIRECTION('',(0.,-1.22464679914735E-16,-1.));
#311=FACE_BOUND('',#312,.T.);
#312=EDGE_LOOP('',(#525,#526,#527,#528));
#313=PLANE('',#314);
#314=AXIS2_PLACEMENT_3D('',#315,#316,#317);
#315=CARTESIAN_POINT('',(5.,14.9,8.5));
#316=DIRECTION('',(0.,1.,0.));
#317=DIRECTION('',(0.,0.,1.));
#318=FACE_BOUND('',#319,.T.);
#319=EDGE_LOOP('',(#529,#530,#531,#532));
#320=PLANE('',#321);
#321=AXIS2_PLACEMENT_3D('',#322,#323,#324);
#322=CARTESIAN_POINT('',(5.,42.2,8.5));
#323=DIRECTION('',(0.,1.,0.));
#324=DIRECTION('',(0.,0.,1.));
#325=FACE_BOUND('',#326,.T.);
#326=EDGE_LOOP('',(#533,#534,#535,#536));
#327=FACE_BOUND('',#328,.T.);
#328=EDGE_LOOP('',(#537));
#329=PLANE('',#330);
#330=AXIS2_PLACEMENT_3D('',#331,#332,#333);
#331=CARTESIAN_POINT('',(5.,37.3,8.5));
#332=DIRECTION('',(1.48029736616687E-16,0.,-1.));
#333=DIRECTION('',(0.,1.,0.));
#334=FACE_BOUND('',#335,.T.);
#335=EDGE_LOOP('',(#538,#539,#540,#541));
#336=PLANE('',#337);
#337=AXIS2_PLACEMENT_3D('',#338,#339,#340);
#338=CARTESIAN_POINT('',(5.,37.3,10.5));
#339=DIRECTION('',(0.,-1.,0.));
#340=DIRECTION('',(0.,0.,-1.));
#341=FACE_BOUND('',#342,.T.);
#342=EDGE_LOOP('',(#542,#543,#544,#545));
#343=FACE_BOUND('',#344,.T.);
#344=EDGE_LOOP('',(#546));
#345=PLANE('',#346);
#346=AXIS2_PLACEMENT_3D('',#347,#348,#349);
#347=CARTESIAN_POINT('',(5.,42.2,10.5));
#348=DIRECTION('',(-1.48029736616688E-16,0.,1.));
#349=DIRECTION('',(0.,-1.,0.));
#350=FACE_OUTER_BOUND('',#351,.T.);
#351=EDGE_LOOP('',(#547));
#352=FACE_OUTER_BOUND('',#353,.T.);
#353=EDGE_LOOP('',(#548));
#354=CYLINDRICAL_SURFACE('',#355,0.5);
#355=AXIS2_PLACEMENT_3D('',#356,#357,#358);
#356=CARTESIAN_POINT('',(11.,12.3,18.5));
#357=DIRECTION('',(1.48029736616687E-16,2.6832003578946E-32,-1.));
#358=DIRECTION('',(-1.,3.97193442268939E-48,-1.48029736616687E-16));
#359=FACE_BOUND('',#360,.T.);
#360=EDGE_LOOP('',(#549,#550,#551,#552));
#361=PLANE('',#362);
#362=AXIS2_PLACEMENT_3D('',#363,#364,#365);
#363=CARTESIAN_POINT('',(17.,5.32907051820075E-16,1.21807326130303E-15));
#364=DIRECTION('',(1.,4.44089209850063E-17,1.01506105108586E-16));
#365=DIRECTION('',(1.01506105108586E-16,-1.22464679914735E-16,-1.));
#366=FACE_OUTER_BOUND('',#367,.T.);
#367=EDGE_LOOP('',(#553));
#368=FACE_OUTER_BOUND('',#369,.T.);
#369=EDGE_LOOP('',(#554));
#370=CYLINDRICAL_SURFACE('',#371,0.5);
#371=AXIS2_PLACEMENT_3D('',#372,#373,#374);
#372=CARTESIAN_POINT('',(11.,39.9,18.5));
#373=DIRECTION('',(1.48029736616687E-16,2.6832003578946E-32,-1.));
#374=DIRECTION('',(-1.,3.97193442268939E-48,-1.48029736616687E-16));
#375=ORIENTED_EDGE('',*,*,#555,.T.);
#376=ORIENTED_EDGE('',*,*,#556,.F.);
#377=ORIENTED_EDGE('',*,*,#557,.T.);
#378=ORIENTED_EDGE('',*,*,#558,.F.);
#379=ORIENTED_EDGE('',*,*,#559,.F.);
#380=ORIENTED_EDGE('',*,*,#560,.F.);
#381=ORIENTED_EDGE('',*,*,#561,.F.);
#382=ORIENTED_EDGE('',*,*,#562,.T.);
#383=ORIENTED_EDGE('',*,*,#563,.T.);
#384=ORIENTED_EDGE('',*,*,#564,.T.);
#385=ORIENTED_EDGE('',*,*,#565,.T.);
#386=ORIENTED_EDGE('',*,*,#566,.F.);
#387=ORIENTED_EDGE('',*,*,#567,.F.);
#388=ORIENTED_EDGE('',*,*,#568,.F.);
#389=ORIENTED_EDGE('',*,*,#569,.F.);
#390=ORIENTED_EDGE('',*,*,#570,.F.);
#391=ORIENTED_EDGE('',*,*,#558,.T.);
#392=ORIENTED_EDGE('',*,*,#571,.T.);
#393=ORIENTED_EDGE('',*,*,#561,.T.);
#394=ORIENTED_EDGE('',*,*,#572,.F.);
#395=ORIENTED_EDGE('',*,*,#573,.T.);
#396=ORIENTED_EDGE('',*,*,#574,.T.);
#397=ORIENTED_EDGE('',*,*,#575,.T.);
#398=ORIENTED_EDGE('',*,*,#576,.T.);
#399=ORIENTED_EDGE('',*,*,#577,.T.);
#400=ORIENTED_EDGE('',*,*,#578,.T.);
#401=ORIENTED_EDGE('',*,*,#579,.T.);
#402=ORIENTED_EDGE('',*,*,#580,.T.);
#403=ORIENTED_EDGE('',*,*,#579,.F.);
#404=ORIENTED_EDGE('',*,*,#581,.F.);
#405=ORIENTED_EDGE('',*,*,#565,.F.);
#406=ORIENTED_EDGE('',*,*,#580,.F.);
#407=ORIENTED_EDGE('',*,*,#564,.F.);
#408=ORIENTED_EDGE('',*,*,#557,.F.);
#409=ORIENTED_EDGE('',*,*,#571,.F.);
#410=ORIENTED_EDGE('',*,*,#562,.F.);
#411=ORIENTED_EDGE('',*,*,#555,.F.);
#412=ORIENTED_EDGE('',*,*,#560,.T.);
#413=ORIENTED_EDGE('',*,*,#582,.T.);
#414=ORIENTED_EDGE('',*,*,#583,.F.);
#415=ORIENTED_EDGE('',*,*,#584,.F.);
#416=ORIENTED_EDGE('',*,*,#585,.T.);
#417=ORIENTED_EDGE('',*,*,#572,.T.);
#418=ORIENTED_EDGE('',*,*,#586,.T.);
#419=ORIENTED_EDGE('',*,*,#587,.T.);
#420=ORIENTED_EDGE('',*,*,#588,.T.);
#421=ORIENTED_EDGE('',*,*,#589,.T.);
#422=ORIENTED_EDGE('',*,*,#590,.T.);
#423=ORIENTED_EDGE('',*,*,#591,.T.);
#424=ORIENTED_EDGE('',*,*,#592,.T.);
#425=ORIENTED_EDGE('',*,*,#556,.T.);
#426=ORIENTED_EDGE('',*,*,#593,.T.);
#427=ORIENTED_EDGE('',*,*,#594,.F.);
#428=ORIENTED_EDGE('',*,*,#582,.F.);
#429=ORIENTED_EDGE('',*,*,#559,.T.);
#430=ORIENTED_EDGE('',*,*,#595,.T.);
#431=ORIENTED_EDGE('',*,*,#596,.T.);
#432=ORIENTED_EDGE('',*,*,#597,.T.);
#433=ORIENTED_EDGE('',*,*,#598,.T.);
#434=ORIENTED_EDGE('',*,*,#599,.T.);
#435=ORIENTED_EDGE('',*,*,#600,.T.);
#436=ORIENTED_EDGE('',*,*,#563,.F.);
#437=ORIENTED_EDGE('',*,*,#601,.F.);
#438=ORIENTED_EDGE('',*,*,#566,.T.);
#439=ORIENTED_EDGE('',*,*,#581,.T.);
#440=ORIENTED_EDGE('',*,*,#578,.F.);
#441=ORIENTED_EDGE('',*,*,#602,.T.);
#442=ORIENTED_EDGE('',*,*,#603,.F.);
#443=ORIENTED_EDGE('',*,*,#593,.F.);
#444=ORIENTED_EDGE('',*,*,#570,.T.);
#445=ORIENTED_EDGE('',*,*,#604,.F.);
#446=ORIENTED_EDGE('',*,*,#605,.F.);
#447=ORIENTED_EDGE('',*,*,#606,.F.);
#448=ORIENTED_EDGE('',*,*,#607,.F.);
#449=ORIENTED_EDGE('',*,*,#608,.F.);
#450=ORIENTED_EDGE('',*,*,#609,.F.);
#451=ORIENTED_EDGE('',*,*,#601,.T.);
#452=ORIENTED_EDGE('',*,*,#610,.T.);
#453=ORIENTED_EDGE('',*,*,#611,.F.);
#454=ORIENTED_EDGE('',*,*,#567,.T.);
#455=ORIENTED_EDGE('',*,*,#612,.T.);
#456=ORIENTED_EDGE('',*,*,#568,.T.);
#457=ORIENTED_EDGE('',*,*,#611,.T.);
#458=ORIENTED_EDGE('',*,*,#613,.T.);
#459=ORIENTED_EDGE('',*,*,#614,.T.);
#460=ORIENTED_EDGE('',*,*,#604,.T.);
#461=ORIENTED_EDGE('',*,*,#569,.T.);
#462=ORIENTED_EDGE('',*,*,#614,.F.);
#463=ORIENTED_EDGE('',*,*,#615,.F.);
#464=ORIENTED_EDGE('',*,*,#616,.T.);
#465=ORIENTED_EDGE('',*,*,#617,.T.);
#466=ORIENTED_EDGE('',*,*,#573,.F.);
#467=ORIENTED_EDGE('',*,*,#585,.F.);
#468=ORIENTED_EDGE('',*,*,#618,.F.);
#469=ORIENTED_EDGE('',*,*,#619,.T.);
#470=ORIENTED_EDGE('',*,*,#574,.F.);
#471=ORIENTED_EDGE('',*,*,#617,.F.);
#472=ORIENTED_EDGE('',*,*,#620,.F.);
#473=ORIENTED_EDGE('',*,*,#621,.F.);
#474=ORIENTED_EDGE('',*,*,#622,.F.);
#475=ORIENTED_EDGE('',*,*,#619,.F.);
#476=ORIENTED_EDGE('',*,*,#623,.F.);
#477=ORIENTED_EDGE('',*,*,#624,.F.);
#478=ORIENTED_EDGE('',*,*,#575,.F.);
#479=ORIENTED_EDGE('',*,*,#576,.F.);
#480=ORIENTED_EDGE('',*,*,#624,.T.);
#481=ORIENTED_EDGE('',*,*,#625,.F.);
#482=ORIENTED_EDGE('',*,*,#626,.T.);
#483=ORIENTED_EDGE('',*,*,#602,.F.);
#484=ORIENTED_EDGE('',*,*,#577,.F.);
#485=ORIENTED_EDGE('',*,*,#626,.F.);
#486=ORIENTED_EDGE('',*,*,#627,.F.);
#487=ORIENTED_EDGE('',*,*,#627,.T.);
#488=ORIENTED_EDGE('',*,*,#625,.T.);
#489=ORIENTED_EDGE('',*,*,#623,.T.);
#490=ORIENTED_EDGE('',*,*,#621,.T.);
#491=ORIENTED_EDGE('',*,*,#628,.T.);
#492=ORIENTED_EDGE('',*,*,#583,.T.);
#493=ORIENTED_EDGE('',*,*,#594,.T.);
#494=ORIENTED_EDGE('',*,*,#603,.T.);
#495=ORIENTED_EDGE('',*,*,#620,.T.);
#496=ORIENTED_EDGE('',*,*,#618,.T.);
#497=ORIENTED_EDGE('',*,*,#584,.T.);
#498=ORIENTED_EDGE('',*,*,#628,.F.);
#499=ORIENTED_EDGE('',*,*,#586,.F.);
#500=ORIENTED_EDGE('',*,*,#629,.F.);
#501=ORIENTED_EDGE('',*,*,#595,.F.);
#502=ORIENTED_EDGE('',*,*,#630,.T.);
#503=ORIENTED_EDGE('',*,*,#587,.F.);
#504=ORIENTED_EDGE('',*,*,#630,.F.);
#505=ORIENTED_EDGE('',*,*,#600,.F.);
#506=ORIENTED_EDGE('',*,*,#631,.T.);
#507=ORIENTED_EDGE('',*,*,#588,.F.);
#508=ORIENTED_EDGE('',*,*,#631,.F.);
#509=ORIENTED_EDGE('',*,*,#599,.F.);
#510=ORIENTED_EDGE('',*,*,#632,.T.);
#511=ORIENTED_EDGE('',*,*,#589,.F.);
#512=ORIENTED_EDGE('',*,*,#632,.F.);
#513=ORIENTED_EDGE('',*,*,#598,.F.);
#514=ORIENTED_EDGE('',*,*,#633,.T.);
#515=ORIENTED_EDGE('',*,*,#590,.F.);
#516=ORIENTED_EDGE('',*,*,#633,.F.);
#517=ORIENTED_EDGE('',*,*,#597,.F.);
#518=ORIENTED_EDGE('',*,*,#634,.T.);
#519=ORIENTED_EDGE('',*,*,#591,.F.);
#520=ORIENTED_EDGE('',*,*,#634,.F.);
#521=ORIENTED_EDGE('',*,*,#596,.F.);
#522=ORIENTED_EDGE('',*,*,#629,.T.);
#523=ORIENTED_EDGE('',*,*,#622,.T.);
#524=ORIENTED_EDGE('',*,*,#592,.F.);
#525=ORIENTED_EDGE('',*,*,#605,.T.);
#526=ORIENTED_EDGE('',*,*,#615,.T.);
#527=ORIENTED_EDGE('',*,*,#613,.F.);
#528=ORIENTED_EDGE('',*,*,#610,.F.);
#529=ORIENTED_EDGE('',*,*,#606,.T.);
#530=ORIENTED_EDGE('',*,*,#635,.T.);
#531=ORIENTED_EDGE('',*,*,#636,.F.);
#532=ORIENTED_EDGE('',*,*,#637,.F.);
#533=ORIENTED_EDGE('',*,*,#607,.T.);
#534=ORIENTED_EDGE('',*,*,#637,.T.);
#535=ORIENTED_EDGE('',*,*,#638,.F.);
#536=ORIENTED_EDGE('',*,*,#639,.F.);
#537=ORIENTED_EDGE('',*,*,#640,.T.);
#538=ORIENTED_EDGE('',*,*,#608,.T.);
#539=ORIENTED_EDGE('',*,*,#639,.T.);
#540=ORIENTED_EDGE('',*,*,#641,.F.);
#541=ORIENTED_EDGE('',*,*,#642,.F.);
#542=ORIENTED_EDGE('',*,*,#609,.T.);
#543=ORIENTED_EDGE('',*,*,#642,.T.);
#544=ORIENTED_EDGE('',*,*,#643,.F.);
#545=ORIENTED_EDGE('',*,*,#635,.F.);
#546=ORIENTED_EDGE('',*,*,#644,.T.);
#547=ORIENTED_EDGE('',*,*,#616,.F.);
#548=ORIENTED_EDGE('',*,*,#612,.F.);
#549=ORIENTED_EDGE('',*,*,#636,.T.);
#550=ORIENTED_EDGE('',*,*,#643,.T.);
#551=ORIENTED_EDGE('',*,*,#641,.T.);
#552=ORIENTED_EDGE('',*,*,#638,.T.);
#553=ORIENTED_EDGE('',*,*,#644,.F.);
#554=ORIENTED_EDGE('',*,*,#640,.F.);
#555=EDGE_CURVE('',#645,#645,#646,.T.);
#556=EDGE_CURVE('',#647,#647,#648,.T.);
#557=EDGE_CURVE('',#649,#650,#651,.T.);
#558=EDGE_CURVE('',#652,#650,#653,.T.);
#559=EDGE_CURVE('',#654,#652,#655,.T.);
#560=EDGE_CURVE('',#656,#654,#657,.T.);
#561=EDGE_CURVE('',#649,#656,#658,.F.);
#562=EDGE_CURVE('',#659,#659,#660,.T.);
#563=EDGE_CURVE('',#661,#661,#662,.F.);
#564=EDGE_CURVE('',#650,#663,#664,.F.);
#565=EDGE_CURVE('',#663,#665,#666,.F.);
#566=EDGE_CURVE('',#667,#665,#668,.T.);
#567=EDGE_CURVE('',#669,#667,#670,.T.);
#568=EDGE_CURVE('',#671,#669,#672,.T.);
#569=EDGE_CURVE('',#673,#671,#674,.T.);
#570=EDGE_CURVE('',#652,#673,#675,.T.);
#571=EDGE_CURVE('',#676,#649,#677,.T.);
#572=EDGE_CURVE('',#678,#656,#679,.T.);
#573=EDGE_CURVE('',#678,#680,#681,.T.);
#574=EDGE_CURVE('',#680,#682,#683,.F.);
#575=EDGE_CURVE('',#682,#684,#685,.T.);
#576=EDGE_CURVE('',#684,#686,#687,.F.);
#577=EDGE_CURVE('',#686,#688,#689,.T.);
#578=EDGE_CURVE('',#688,#690,#691,.F.);
#579=EDGE_CURVE('',#690,#676,#692,.T.);
#580=EDGE_CURVE('',#663,#676,#693,.T.);
#581=EDGE_CURVE('',#665,#690,#694,.T.);
#582=EDGE_CURVE('',#654,#695,#696,.T.);
#583=EDGE_CURVE('',#697,#695,#698,.T.);
#584=EDGE_CURVE('',#699,#697,#700,.T.);
#585=EDGE_CURVE('',#699,#678,#701,.T.);
#586=EDGE_CURVE('',#702,#703,#704,.F.);
#587=EDGE_CURVE('',#703,#705,#706,.F.);
#588=EDGE_CURVE('',#705,#707,#708,.F.);
#589=EDGE_CURVE('',#707,#709,#710,.F.);
#590=EDGE_CURVE('',#709,#711,#712,.F.);
#591=EDGE_CURVE('',#711,#702,#713,.F.);
#592=EDGE_CURVE('',#714,#714,#715,.T.);
#593=EDGE_CURVE('',#652,#716,#717,.T.);
#594=EDGE_CURVE('',#695,#716,#718,.T.);
#595=EDGE_CURVE('',#719,#720,#721,.T.);
#596=EDGE_CURVE('',#720,#722,#723,.T.);
#597=EDGE_CURVE('',#722,#724,#725,.T.);
#598=EDGE_CURVE('',#724,#726,#727,.T.);
#599=EDGE_CURVE('',#726,#728,#729,.T.);
#600=EDGE_CURVE('',#728,#719,#730,.T.);
#601=EDGE_CURVE('',#667,#731,#732,.T.);
#602=EDGE_CURVE('',#688,#733,#734,.F.);
#603=EDGE_CURVE('',#716,#733,#735,.T.);
#604=EDGE_CURVE('',#736,#673,#737,.T.);
#605=EDGE_CURVE('',#731,#736,#738,.T.);
#606=EDGE_CURVE('',#739,#740,#741,.T.);
#607=EDGE_CURVE('',#742,#739,#743,.T.);
#608=EDGE_CURVE('',#744,#742,#745,.T.);
#609=EDGE_CURVE('',#740,#744,#746,.T.);
#610=EDGE_CURVE('',#731,#747,#748,.T.);
#611=EDGE_CURVE('',#669,#747,#749,.T.);
#612=EDGE_CURVE('',#750,#750,#751,.F.);
#613=EDGE_CURVE('',#747,#752,#753,.T.);
#614=EDGE_CURVE('',#752,#671,#754,.T.);
#615=EDGE_CURVE('',#736,#752,#755,.T.);
#616=EDGE_CURVE('',#756,#756,#757,.T.);
#617=EDGE_CURVE('',#758,#680,#759,.T.);
#618=EDGE_CURVE('',#758,#699,#760,.F.);
#619=EDGE_CURVE('',#761,#682,#762,.F.);
#620=EDGE_CURVE('',#763,#758,#764,.T.);
#621=EDGE_CURVE('',#761,#763,#765,.T.);
#622=EDGE_CURVE('',#766,#766,#767,.T.);
#623=EDGE_CURVE('',#768,#761,#769,.F.);
#624=EDGE_CURVE('',#684,#768,#770,.T.);
#625=EDGE_CURVE('',#771,#768,#772,.T.);
#626=EDGE_CURVE('',#771,#686,#773,.T.);
#627=EDGE_CURVE('',#733,#771,#774,.F.);
#628=EDGE_CURVE('',#763,#697,#775,.T.);
#629=EDGE_CURVE('',#720,#702,#776,.T.);
#630=EDGE_CURVE('',#719,#703,#777,.T.);
#631=EDGE_CURVE('',#728,#705,#778,.T.);
#632=EDGE_CURVE('',#726,#707,#779,.T.);
#633=EDGE_CURVE('',#724,#709,#780,.T.);
#634=EDGE_CURVE('',#722,#711,#781,.T.);
#635=EDGE_CURVE('',#740,#782,#783,.T.);
#636=EDGE_CURVE('',#784,#782,#785,.T.);
#637=EDGE_CURVE('',#739,#784,#786,.T.);
#638=EDGE_CURVE('',#787,#784,#788,.T.);
#639=EDGE_CURVE('',#742,#787,#789,.T.);
#640=EDGE_CURVE('',#790,#790,#791,.F.);
#641=EDGE_CURVE('',#792,#787,#793,.T.);
#642=EDGE_CURVE('',#744,#792,#794,.T.);
#643=EDGE_CURVE('',#782,#792,#795,.T.);
#644=EDGE_CURVE('',#796,#796,#797,.T.);
#645=VERTEX_POINT('',#798);
#646=CIRCLE('',#799,2.5);
#647=VERTEX_POINT('',#803);
#648=CIRCLE('',#804,2.5);
#649=VERTEX_POINT('',#808);
#650=VERTEX_POINT('',#809);
#651=CIRCLE('',#810,5.);
#652=VERTEX_POINT('',#814);
#653=LINE('',#815,#816);
#654=VERTEX_POINT('',#818);
#655=LINE('',#819,#820);
#656=VERTEX_POINT('',#822);
#657=CIRCLE('',#823,5.);
#658=LINE('',#827,#828);
#659=VERTEX_POINT('',#830);
#660=CIRCLE('',#831,2.);
#661=VERTEX_POINT('',#835);
#662=CIRCLE('',#836,2.);
#663=VERTEX_POINT('',#840);
#664=LINE('',#841,#842);
#665=VERTEX_POINT('',#844);
#666=LINE('',#845,#846);
#667=VERTEX_POINT('',#848);
#668=LINE('',#849,#850);
#669=VERTEX_POINT('',#852);
#670=LINE('',#853,#854);
#671=VERTEX_POINT('',#856);
#672=LINE('',#857,#858);
#673=VERTEX_POINT('',#860);
#674=LINE('',#861,#862);
#675=LINE('',#864,#865);
#676=VERTEX_POINT('',#867);
#677=LINE('',#868,#869);
#678=VERTEX_POINT('',#871);
#679=LINE('',#872,#873);
#680=VERTEX_POINT('',#875);
#681=LINE('',#876,#877);
#682=VERTEX_POINT('',#879);
#683=LINE('',#880,#881);
#684=VERTEX_POINT('',#883);
#685=LINE('',#884,#885);
#686=VERTEX_POINT('',#887);
#687=LINE('',#888,#889);
#688=VERTEX_POINT('',#891);
#689=LINE('',#892,#893);
#690=VERTEX_POINT('',#895);
#691=LINE('',#896,#897);
#692=LINE('',#899,#900);
#693=LINE('',#902,#903);
#694=LINE('',#905,#906);
#695=VERTEX_POINT('',#908);
#696=LINE('',#909,#910);
#697=VERTEX_POINT('',#912);
#698=LINE('',#913,#914);
#699=VERTEX_POINT('',#916);
#700=LINE('',#917,#918);
#701=CIRCLE('',#920,5.);
#702=VERTEX_POINT('',#924);
#703=VERTEX_POINT('',#925);
#704=LINE('',#926,#927);
#705=VERTEX_POINT('',#929);
#706=LINE('',#930,#931);
#707=VERTEX_POINT('',#933);
#708=LINE('',#934,#935);
#709=VERTEX_POINT('',#937);
#710=LINE('',#938,#939);
#711=VERTEX_POINT('',#941);
#712=LINE('',#942,#943);
#713=LINE('',#945,#946);
#714=VERTEX_POINT('',#948);
#715=CIRCLE('',#949,2.5);
#716=VERTEX_POINT('',#953);
#717=LINE('',#954,#955);
#718=LINE('',#957,#958);
#719=VERTEX_POINT('',#960);
#720=VERTEX_POINT('',#961);
#721=LINE('',#962,#963);
#722=VERTEX_POINT('',#965);
#723=LINE('',#966,#967);
#724=VERTEX_POINT('',#969);
#725=LINE('',#970,#971);
#726=VERTEX_POINT('',#973);
#727=LINE('',#974,#975);
#728=VERTEX_POINT('',#977);
#729=LINE('',#978,#979);
#730=LINE('',#981,#982);
#731=VERTEX_POINT('',#984);
#732=LINE('',#985,#986);
#733=VERTEX_POINT('',#988);
#734=LINE('',#989,#990);
#735=LINE('',#992,#993);
#736=VERTEX_POINT('',#995);
#737=LINE('',#996,#997);
#738=LINE('',#999,#1000);
#739=VERTEX_POINT('',#1002);
#740=VERTEX_POINT('',#1003);
#741=LINE('',#1004,#1005);
#742=VERTEX_POINT('',#1007);
#743=LINE('',#1008,#1009);
#744=VERTEX_POINT('',#1011);
#745=LINE('',#1012,#1013);
#746=LINE('',#1015,#1016);
#747=VERTEX_POINT('',#1018);
#748=LINE('',#1019,#1020);
#749=LINE('',#1022,#1023);
#750=VERTEX_POINT('',#1025);
#751=CIRCLE('',#1026,0.5);
#752=VERTEX_POINT('',#1030);
#753=LINE('',#1031,#1032);
#754=LINE('',#1034,#1035);
#755=LINE('',#1037,#1038);
#756=VERTEX_POINT('',#1040);
#757=CIRCLE('',#1041,0.5);
#758=VERTEX_POINT('',#1045);
#759=CIRCLE('',#1046,5.);
#760=LINE('',#1050,#1051);
#761=VERTEX_POINT('',#1053);
#762=LINE('',#1054,#1055);
#763=VERTEX_POINT('',#1057);
#764=LINE('',#1058,#1059);
#765=LINE('',#1061,#1062);
#766=VERTEX_POINT('',#1064);
#767=CIRCLE('',#1065,2.5);
#768=VERTEX_POINT('',#1069);
#769=LINE('',#1070,#1071);
#770=LINE('',#1073,#1074);
#771=VERTEX_POINT('',#1076);
#772=LINE('',#1077,#1078);
#773=LINE('',#1080,#1081);
#774=LINE('',#1083,#1084);
#775=LINE('',#1086,#1087);
#776=LINE('',#1089,#1090);
#777=LINE('',#1092,#1093);
#778=LINE('',#1095,#1096);
#779=LINE('',#1098,#1099);
#780=LINE('',#1101,#1102);
#781=LINE('',#1104,#1105);
#782=VERTEX_POINT('',#1107);
#783=LINE('',#1108,#1109);
#784=VERTEX_POINT('',#1111);
#785=LINE('',#1112,#1113);
#786=LINE('',#1115,#1116);
#787=VERTEX_POINT('',#1118);
#788=LINE('',#1119,#1120);
#789=LINE('',#1122,#1123);
#790=VERTEX_POINT('',#1125);
#791=CIRCLE('',#1126,0.5);
#792=VERTEX_POINT('',#1130);
#793=LINE('',#1131,#1132);
#794=LINE('',#1134,#1135);
#795=LINE('',#1137,#1138);
#796=VERTEX_POINT('',#1140);
#797=CIRCLE('',#1141,0.5);
#798=CARTESIAN_POINT('',(31.6,5.,32.5));
#799=AXIS2_PLACEMENT_3D('',#800,#801,#802);
#800=CARTESIAN_POINT('',(31.6,5.,35.));
#801=DIRECTION('',(1.,-3.58573138736824E-33,8.07434927000114E-17));
#802=DIRECTION('',(8.07434927000114E-17,-1.22464679914735E-16,-1.));
#803=CARTESIAN_POINT('',(0.,5.,32.5));
#804=AXIS2_PLACEMENT_3D('',#805,#806,#807);
#805=CARTESIAN_POINT('',(-2.14313189850787E-15,5.,35.));
#806=DIRECTION('',(1.,6.84227765783602E-49,6.12323399573677E-17));
#807=DIRECTION('',(6.12323399573677E-17,-1.22464679914735E-16,-1.));
#808=CARTESIAN_POINT('',(31.6,-1.95974436895406E-15,35.));
#809=CARTESIAN_POINT('',(31.6,10.,35.));
#810=AXIS2_PLACEMENT_3D('',#811,#812,#813);
#811=CARTESIAN_POINT('',(31.6,5.,35.));
#812=DIRECTION('',(-1.,3.58573138736824E-33,-8.07434927000114E-17));
#813=DIRECTION('',(-3.58573138736824E-33,-1.,-2.89524476100169E-49));
#814=CARTESIAN_POINT('',(5.,10.,35.));
#815=CARTESIAN_POINT('',(5.,10.,35.));
#816=VECTOR('',#817,1.);
#817=DIRECTION('',(1.,0.,0.));
#818=CARTESIAN_POINT('',(-1.72481407223862E-15,10.,35.));
#819=CARTESIAN_POINT('',(0.,10.,35.));
#820=VECTOR('',#821,1.);
#821=DIRECTION('',(1.,0.,0.));
#822=CARTESIAN_POINT('',(-2.14313189850787E-15,-2.14313189850787E-15,35.));
#823=AXIS2_PLACEMENT_3D('',#824,#825,#826);
#824=CARTESIAN_POINT('',(-2.14313189850787E-15,5.,35.));
#825=DIRECTION('',(-1.,1.3684555315672E-48,-6.12323399573677E-17));
#826=DIRECTION('',(-1.3684555315672E-48,-1.,-8.37937343254633E-65));
#827=CARTESIAN_POINT('',(0.,-1.95974436895406E-15,35.));
#828=VECTOR('',#829,1.);
#829=DIRECTION('',(1.,0.,0.));
#830=CARTESIAN_POINT('',(31.6,4.99999999999999,-2.));
#831=AXIS2_PLACEMENT_3D('',#832,#833,#834);
#832=CARTESIAN_POINT('',(31.6,4.99999999999999,-4.44089209850063E-16));
#833=DIRECTION('',(1.,-3.58573138736824E-33,8.07434927000114E-17));
#834=DIRECTION('',(8.07434927000114E-17,-1.22464679914735E-16,-1.));
#835=CARTESIAN_POINT('',(3.,4.99999999999999,-2.));
#836=AXIS2_PLACEMENT_3D('',#837,#838,#839);
#837=CARTESIAN_POINT('',(3.,4.99999999999999,-6.12323399573676E-16));
#838=DIRECTION('',(1.,0.,6.12323399573677E-17));
#839=DIRECTION('',(6.12323399573677E-17,-1.22464679914735E-16,-1.));
#840=CARTESIAN_POINT('',(31.6,10.,-2.5));
#841=CARTESIAN_POINT('',(31.6,10.,-2.49999999999999));
#842=VECTOR('',#843,1.);
#843=DIRECTION('',(-9.47390314346801E-17,-4.736951571734E-17,1.));
#844=CARTESIAN_POINT('',(5.,10.,-2.5));
#845=CARTESIAN_POINT('',(5.,10.,-2.5));
#846=VECTOR('',#847,1.);
#847=DIRECTION('',(1.,0.,8.34754153853501E-17));
#848=CARTESIAN_POINT('',(5.,10.,8.5));
#849=CARTESIAN_POINT('',(5.,10.,8.5));
#850=VECTOR('',#851,1.);
#851=DIRECTION('',(1.61486985400023E-16,0.,-1.));
#852=CARTESIAN_POINT('',(17.,10.,8.5));
#853=CARTESIAN_POINT('',(17.,10.,8.5));
#854=VECTOR('',#855,1.);
#855=DIRECTION('',(-1.,0.,-1.48029736616688E-16));
#856=CARTESIAN_POINT('',(17.,10.,10.5));
#857=CARTESIAN_POINT('',(17.,10.,10.5));
#858=VECTOR('',#859,1.);
#859=DIRECTION('',(0.,0.,-1.));
#860=CARTESIAN_POINT('',(5.,10.,10.5));
#861=CARTESIAN_POINT('',(5.,10.,10.5));
#862=VECTOR('',#863,1.);
#863=DIRECTION('',(1.,0.,1.48029736616688E-16));
#864=CARTESIAN_POINT('',(5.,10.,35.));
#865=VECTOR('',#866,1.);
#866=DIRECTION('',(7.25043607918469E-17,7.25043607918469E-17,-1.));
#867=CARTESIAN_POINT('',(31.6,1.53080849893419E-16,-2.5));
#868=CARTESIAN_POINT('',(31.6,1.53080849893419E-16,-2.49999999999999));
#869=VECTOR('',#870,1.);
#870=DIRECTION('',(-9.473903143468E-17,-6.12323399573677E-17,1.));
#871=CARTESIAN_POINT('',(2.14313189850787E-15,2.14313189850787E-15,-35.));
#872=CARTESIAN_POINT('',(2.14313189850787E-15,2.14313189850787E-15,-35.));
#873=VECTOR('',#874,1.);
#874=DIRECTION('',(-6.12323399573677E-17,-6.12323399573677E-17,1.));
#875=CARTESIAN_POINT('',(5.,1.515655159104E-15,-35.));
#876=CARTESIAN_POINT('',(0.,1.515655159104E-15,-35.));
#877=VECTOR('',#878,1.);
#878=DIRECTION('',(1.,0.,0.));
#879=CARTESIAN_POINT('',(5.,1.47141645779405E-15,-19.05));
#880=CARTESIAN_POINT('',(5.,1.47141645779405E-15,-19.05));
#881=VECTOR('',#882,1.);
#882=DIRECTION('',(1.11370334758636E-16,-2.50689974006344E-17,-1.));
#883=CARTESIAN_POINT('',(1.9,1.01328980775135E-15,-20.8397858344878));
#884=CARTESIAN_POINT('',(5.00000000000001,1.24937185286902E-15,-19.05));
#885=VECTOR('',#886,1.);
#886=DIRECTION('',(-0.866025403784439,-4.6722969410128E-17,-0.5));
#887=CARTESIAN_POINT('',(1.9,-6.07459584652678E-15,-14.1602141655122));
#888=CARTESIAN_POINT('',(1.9,8.67063047651773E-16,-14.1602141655122));
#889=VECTOR('',#890,1.);
#890=DIRECTION('',(1.32969367455912E-16,6.12323399573677E-17,-1.));
#891=CARTESIAN_POINT('',(5.,1.37650633086013E-15,-15.95));
#892=CARTESIAN_POINT('',(1.9,4.33531523825887E-16,-14.1602141655122));
#893=VECTOR('',#894,1.);
#894=DIRECTION('',(0.866025403784438,7.73391393888117E-17,-0.500000000000001));
#895=CARTESIAN_POINT('',(5.,0.,-2.5));
#896=CARTESIAN_POINT('',(5.,7.65404249467096E-17,-2.5));
#897=VECTOR('',#898,1.);
#898=DIRECTION('',(1.32071140475855E-16,9.66517402166114E-17,-1.));
#899=CARTESIAN_POINT('',(5.,1.53080849893419E-16,-2.5));
#900=VECTOR('',#901,1.);
#901=DIRECTION('',(1.,-1.66817390671737E-32,1.669508307707E-16));
#902=CARTESIAN_POINT('',(31.6,10.,-2.5));
#903=VECTOR('',#904,1.);
#904=DIRECTION('',(0.,-1.,-4.44089209850063E-17));
#905=CARTESIAN_POINT('',(5.,10.,-2.5));
#906=VECTOR('',#907,1.);
#907=DIRECTION('',(0.,-1.,-8.88178419700125E-17));
#908=CARTESIAN_POINT('',(-6.06262063641599E-15,50.,35.));
#909=CARTESIAN_POINT('',(-4.10287626746193E-15,10.,35.));
#910=VECTOR('',#911,1.);
#911=DIRECTION('',(0.,1.,0.));
#912=CARTESIAN_POINT('',(2.14313189850787E-15,50.,-35.));
#913=CARTESIAN_POINT('',(2.14313189850787E-15,50.,-35.));
#914=VECTOR('',#915,1.);
#915=DIRECTION('',(-8.92286880852828E-17,0.,1.));
#916=CARTESIAN_POINT('',(1.010436772736E-15,10.,-35.));
#917=CARTESIAN_POINT('',(1.95974436895406E-15,10.,-35.));
#918=VECTOR('',#919,1.);
#919=DIRECTION('',(0.,1.,0.));
#920=AXIS2_PLACEMENT_3D('',#921,#922,#923);
#921=CARTESIAN_POINT('',(2.14313189850787E-15,5.,-35.));
#922=DIRECTION('',(-1.,1.3684555315672E-48,-6.12323399573677E-17));
#923=DIRECTION('',(1.3684555315672E-48,1.,8.37937343254633E-65));
#924=CARTESIAN_POINT('',(1.0959277466824E-16,1.9,-1.78978583448784));
#925=CARTESIAN_POINT('',(2.19185549336481E-16,5.,-3.57957166897568));
#926=CARTESIAN_POINT('',(3.31637379593272E-16,5.,-3.57957166897568));
#927=VECTOR('',#928,1.);
#928=DIRECTION('',(-7.73391393888117E-17,-0.866025403784438,0.5));
#929=CARTESIAN_POINT('',(1.0959277466824E-16,8.1,-1.78978583448784));
#930=CARTESIAN_POINT('',(2.76840992259151E-16,8.1,-1.78978583448784));
#931=VECTOR('',#932,1.);
#932=DIRECTION('',(1.5308084989342E-17,-0.866025403784438,-0.500000000000001));
#933=CARTESIAN_POINT('',(-1.0959277466824E-16,8.1,1.78978583448784));
#934=CARTESIAN_POINT('',(-5.47963873341202E-17,8.1,1.78978583448784));
#935=VECTOR('',#936,1.);
#936=DIRECTION('',(3.06161699786838E-17,0.,-1.));
#937=CARTESIAN_POINT('',(-2.19185549336481E-16,5.,3.57957166897568));
#938=CARTESIAN_POINT('',(-3.31637379593272E-16,5.,3.57957166897568));
#939=VECTOR('',#940,1.);
#940=DIRECTION('',(7.73391393888117E-17,0.866025403784439,-0.5));
#941=CARTESIAN_POINT('',(-1.0959277466824E-16,1.9,1.78978583448784));
#942=CARTESIAN_POINT('',(-5.479638733412E-17,1.9,1.78978583448784));
#943=VECTOR('',#944,1.);
#944=DIRECTION('',(-1.5308084989342E-17,0.866025403784438,0.500000000000001));
#945=CARTESIAN_POINT('',(5.47963873341204E-17,1.9,-1.78978583448784));
#946=VECTOR('',#947,1.);
#947=DIRECTION('',(-3.06161699786838E-17,-3.10155271997349E-16,1.));
#948=CARTESIAN_POINT('',(0.,5.,-37.5));
#949=AXIS2_PLACEMENT_3D('',#950,#951,#952);
#950=CARTESIAN_POINT('',(2.14313189850787E-15,5.,-35.));
#951=DIRECTION('',(1.,6.84227765783602E-49,6.12323399573677E-17));
#952=DIRECTION('',(6.12323399573677E-17,-1.22464679914735E-16,-1.));
#953=CARTESIAN_POINT('',(4.99999999999999,50.,35.));
#954=CARTESIAN_POINT('',(5.,10.,35.));
#955=VECTOR('',#956,1.);
#956=DIRECTION('',(-4.44089209850063E-17,1.,0.));
#957=CARTESIAN_POINT('',(-6.06262063641599E-15,50.,35.));
#958=VECTOR('',#959,1.);
#959=DIRECTION('',(1.,0.,0.));
#960=CARTESIAN_POINT('',(3.,5.,-3.57957166897568));
#961=CARTESIAN_POINT('',(3.,1.9,-1.78978583448784));
#962=CARTESIAN_POINT('',(3.,5.,-3.57957166897568));
#963=VECTOR('',#964,1.);
#964=DIRECTION('',(0.,-0.866025403784439,0.5));
#965=CARTESIAN_POINT('',(3.,1.9,1.78978583448784));
#966=CARTESIAN_POINT('',(3.,1.9,-1.78978583448784));
#967=VECTOR('',#968,1.);
#968=DIRECTION('',(0.,-3.10155271997349E-16,1.));
#969=CARTESIAN_POINT('',(3.,5.,3.57957166897568));
#970=CARTESIAN_POINT('',(3.,1.9,1.78978583448784));
#971=VECTOR('',#972,1.);
#972=DIRECTION('',(0.,0.866025403784438,0.5));
#973=CARTESIAN_POINT('',(3.,8.1,1.78978583448784));
#974=CARTESIAN_POINT('',(3.,5.,3.57957166897568));
#975=VECTOR('',#976,1.);
#976=DIRECTION('',(0.,0.866025403784439,-0.5));
#977=CARTESIAN_POINT('',(3.,8.1,-1.78978583448784));
#978=CARTESIAN_POINT('',(3.,8.1,1.78978583448784));
#979=VECTOR('',#980,1.);
#980=DIRECTION('',(0.,0.,-1.));
#981=CARTESIAN_POINT('',(3.,8.1,-1.78978583448784));
#982=VECTOR('',#983,1.);
#983=DIRECTION('',(0.,-0.866025403784439,-0.5));
#984=CARTESIAN_POINT('',(5.,14.9,8.5));
#985=CARTESIAN_POINT('',(5.,10.,8.5));
#986=VECTOR('',#987,1.);
#987=DIRECTION('',(0.,1.,0.));
#988=CARTESIAN_POINT('',(5.,50.,-15.95));
#989=CARTESIAN_POINT('',(5.,50.,-15.95));
#990=VECTOR('',#991,1.);
#991=DIRECTION('',(3.5527136788005E-17,-1.,-7.105427357601E-17));
#992=CARTESIAN_POINT('',(4.99999999999999,50.,35.));
#993=VECTOR('',#994,1.);
#994=DIRECTION('',(1.04594122045157E-16,0.,-1.));
#995=CARTESIAN_POINT('',(5.,14.9,10.5));
#996=CARTESIAN_POINT('',(5.,14.9,10.5));
#997=VECTOR('',#998,1.);
#998=DIRECTION('',(0.,-1.,0.));
#999=CARTESIAN_POINT('',(5.,14.9,8.5));
#1000=VECTOR('',#1001,1.);
#1001=DIRECTION('',(0.,0.,1.));
#1002=CARTESIAN_POINT('',(5.,42.2,8.5));
#1003=CARTESIAN_POINT('',(5.,42.2,10.5));
#1004=CARTESIAN_POINT('',(5.,42.2,8.5));
#1005=VECTOR('',#1006,1.);
#1006=DIRECTION('',(0.,0.,1.));
#1007=CARTESIAN_POINT('',(5.,37.3,8.5));
#1008=CARTESIAN_POINT('',(5.,37.3,8.5));
#1009=VECTOR('',#1010,1.);
#1010=DIRECTION('',(-1.81260901979617E-16,1.,0.));
#1011=CARTESIAN_POINT('',(5.,37.3,10.5));
#1012=CARTESIAN_POINT('',(5.,37.3,10.5));
#1013=VECTOR('',#1014,1.);
#1014=DIRECTION('',(0.,0.,-1.));
#1015=CARTESIAN_POINT('',(5.,42.2,10.5));
#1016=VECTOR('',#1017,1.);
#1017=DIRECTION('',(1.81260901979617E-16,-1.,0.));
#1018=CARTESIAN_POINT('',(17.,14.9,8.5));
#1019=CARTESIAN_POINT('',(5.,14.9,8.5));
#1020=VECTOR('',#1021,1.);
#1021=DIRECTION('',(1.,0.,1.48029736616687E-16));
#1022=CARTESIAN_POINT('',(17.,10.,8.5));
#1023=VECTOR('',#1024,1.);
#1024=DIRECTION('',(0.,1.,0.));
#1025=CARTESIAN_POINT('',(10.5,12.3,8.5));
#1026=AXIS2_PLACEMENT_3D('',#1027,#1028,#1029);
#1027=CARTESIAN_POINT('',(11.,12.3,8.5));
#1028=DIRECTION('',(1.48029736616688E-16,2.6832003578946E-32,-1.));
#1029=DIRECTION('',(-1.,0.,-1.48029736616688E-16));
#1030=CARTESIAN_POINT('',(17.,14.9,10.5));
#1031=CARTESIAN_POINT('',(17.,14.9,8.5));
#1032=VECTOR('',#1033,1.);
#1033=DIRECTION('',(0.,0.,1.));
#1034=CARTESIAN_POINT('',(17.,14.9,10.5));
#1035=VECTOR('',#1036,1.);
#1036=DIRECTION('',(0.,-1.,0.));
#1037=CARTESIAN_POINT('',(5.,14.9,10.5));
#1038=VECTOR('',#1039,1.);
#1039=DIRECTION('',(1.,0.,1.48029736616688E-16));
#1040=CARTESIAN_POINT('',(10.5,12.3,10.5));
#1041=AXIS2_PLACEMENT_3D('',#1042,#1043,#1044);
#1042=CARTESIAN_POINT('',(11.,12.3,10.5));
#1043=DIRECTION('',(1.48029736616687E-16,2.6832003578946E-32,-1.));
#1044=DIRECTION('',(-1.,0.,-1.48029736616687E-16));
#1045=CARTESIAN_POINT('',(5.,10.,-35.));
#1046=AXIS2_PLACEMENT_3D('',#1047,#1048,#1049);
#1047=CARTESIAN_POINT('',(5.,5.,-35.));
#1048=DIRECTION('',(-1.,-4.44089209850063E-17,-1.01506105108586E-16));
#1049=DIRECTION('',(-4.44089209850063E-17,1.,-4.50777660126292E-33));
#1050=CARTESIAN_POINT('',(0.,10.,-35.));
#1051=VECTOR('',#1052,1.);
#1052=DIRECTION('',(1.,0.,0.));
#1053=CARTESIAN_POINT('',(5.,50.,-19.05));
#1054=CARTESIAN_POINT('',(5.,1.97215226305253E-31,-19.05));
#1055=VECTOR('',#1056,1.);
#1056=DIRECTION('',(1.77635683940025E-17,1.,1.4210854715202E-16));
#1057=CARTESIAN_POINT('',(5.,50.,-35.));
#1058=CARTESIAN_POINT('',(5.,50.,-35.));
#1059=VECTOR('',#1060,1.);
#1060=DIRECTION('',(4.44089209850063E-17,-1.,0.));
#1061=CARTESIAN_POINT('',(5.,50.,-19.05));
#1062=VECTOR('',#1063,1.);
#1063=DIRECTION('',(1.11370334758636E-16,0.,-1.));
#1064=CARTESIAN_POINT('',(5.00000000000001,5.,-37.5));
#1065=AXIS2_PLACEMENT_3D('',#1066,#1067,#1068);
#1066=CARTESIAN_POINT('',(5.,5.,-35.));
#1067=DIRECTION('',(1.,4.44089209850063E-17,1.01506105108586E-16));
#1068=DIRECTION('',(1.01506105108586E-16,-1.22464679914735E-16,-1.));
#1069=CARTESIAN_POINT('',(1.9,50.,-20.8397858344878));
#1070=CARTESIAN_POINT('',(5.00000000000001,50.,-19.05));
#1071=VECTOR('',#1072,1.);
#1072=DIRECTION('',(-0.866025403784439,0.,-0.5));
#1073=CARTESIAN_POINT('',(1.9,1.01328980775135E-15,-20.8397858344878));
#1074=VECTOR('',#1075,1.);
#1075=DIRECTION('',(2.22044604925031E-17,1.,7.105427357601E-17));
#1076=CARTESIAN_POINT('',(1.9,50.,-14.1602141655121));
#1077=CARTESIAN_POINT('',(1.9,50.,-14.1602141655121));
#1078=VECTOR('',#1079,1.);
#1079=DIRECTION('',(1.32969367455912E-16,0.,-1.));
#1080=CARTESIAN_POINT('',(1.9,50.,-14.1602141655121));
#1081=VECTOR('',#1082,1.);
#1082=DIRECTION('',(2.66453525910038E-17,-1.,-1.06581410364015E-16));
#1083=CARTESIAN_POINT('',(1.9,50.,-14.1602141655121));
#1084=VECTOR('',#1085,1.);
#1085=DIRECTION('',(0.866025403784438,0.,-0.500000000000001));
#1086=CARTESIAN_POINT('',(5.,50.,-35.));
#1087=VECTOR('',#1088,1.);
#1088=DIRECTION('',(-1.,0.,-1.4210854715202E-15));
#1089=CARTESIAN_POINT('',(3.,1.9,-1.78978583448784));
#1090=VECTOR('',#1091,1.);
#1091=DIRECTION('',(-1.,0.,0.));
#1092=CARTESIAN_POINT('',(3.,5.,-3.57957166897568));
#1093=VECTOR('',#1094,1.);
#1094=DIRECTION('',(-1.,0.,0.));
#1095=CARTESIAN_POINT('',(3.,8.1,-1.78978583448784));
#1096=VECTOR('',#1097,1.);
#1097=DIRECTION('',(-1.,0.,-7.40148683083438E-17));
#1098=CARTESIAN_POINT('',(3.,8.1,1.78978583448784));
#1099=VECTOR('',#1100,1.);
#1100=DIRECTION('',(-1.,0.,-7.40148683083438E-17));
#1101=CARTESIAN_POINT('',(3.,5.,3.57957166897568));
#1102=VECTOR('',#1103,1.);
#1103=DIRECTION('',(-1.,0.,0.));
#1104=CARTESIAN_POINT('',(3.,1.9,1.78978583448784));
#1105=VECTOR('',#1106,1.);
#1106=DIRECTION('',(-1.,0.,-7.40148683083438E-17));
#1107=CARTESIAN_POINT('',(17.,42.2,10.5));
#1108=CARTESIAN_POINT('',(5.,42.2,10.5));
#1109=VECTOR('',#1110,1.);
#1110=DIRECTION('',(1.,0.,1.48029736616688E-16));
#1111=CARTESIAN_POINT('',(17.,42.2,8.5));
#1112=CARTESIAN_POINT('',(17.,42.2,8.5));
#1113=VECTOR('',#1114,1.);
#1114=DIRECTION('',(0.,0.,1.));
#1115=CARTESIAN_POINT('',(5.,42.2,8.5));
#1116=VECTOR('',#1117,1.);
#1117=DIRECTION('',(1.,0.,1.48029736616688E-16));
#1118=CARTESIAN_POINT('',(17.,37.3,8.5));
#1119=CARTESIAN_POINT('',(17.,37.3,8.5));
#1120=VECTOR('',#1121,1.);
#1121=DIRECTION('',(-7.2504360791847E-16,1.,0.));
#1122=CARTESIAN_POINT('',(5.,37.3,8.5));
#1123=VECTOR('',#1124,1.);
#1124=DIRECTION('',(1.,0.,1.48029736616687E-16));
#1125=CARTESIAN_POINT('',(10.5,39.9,8.5));
#1126=AXIS2_PLACEMENT_3D('',#1127,#1128,#1129);
#1127=CARTESIAN_POINT('',(11.,39.9,8.5));
#1128=DIRECTION('',(1.48029736616687E-16,0.,-1.));
#1129=DIRECTION('',(-1.,3.97193442268939E-48,-1.48029736616687E-16));
#1130=CARTESIAN_POINT('',(17.,37.3,10.5));
#1131=CARTESIAN_POINT('',(17.,37.3,10.5));
#1132=VECTOR('',#1133,1.);
#1133=DIRECTION('',(0.,0.,-1.));
#1134=CARTESIAN_POINT('',(5.,37.3,10.5));
#1135=VECTOR('',#1136,1.);
#1136=DIRECTION('',(1.,0.,1.48029736616687E-16));
#1137=CARTESIAN_POINT('',(17.,42.2,10.5));
#1138=VECTOR('',#1139,1.);
#1139=DIRECTION('',(7.2504360791847E-16,-1.,0.));
#1140=CARTESIAN_POINT('',(10.5,39.9,10.5));
#1141=AXIS2_PLACEMENT_3D('',#1142,#1143,#1144);
#1142=CARTESIAN_POINT('',(11.,39.9,10.5));
#1143=DIRECTION('',(1.48029736616688E-16,0.,-1.));
#1144=DIRECTION('',(-1.,3.97193442268939E-48,-1.48029736616688E-16));
ENDSEC;
END-ISO-10303-21;
