ISO-10303-21;
HEADER;
FILE_DESCRIPTION(('STEP AP203'),
    '1');
FILE_NAME('Кронштейн аккумулятора',
    '',
    ('UNSPECIFIED'),
    ('UNSPECIFIED'),
    'C3D Converter',
    'C3D Toolkit',
    '');
FILE_SCHEMA(('CONFIG_CONTROL_DESIGN'));
ENDSEC;

DATA;
#1=PRODUCT_DEFINITION('','UNSPECIFIED',#28,#31);
#2=SHAPE_DEFINITION_REPRESENTATION(#26,#3);
#3=SHAPE_REPRESENTATION('NONE',(#4),#8);
#4=AXIS2_PLACEMENT_3D('',#5,#6,#7);
#5=CARTESIAN_POINT('',(0.,0.,0.));
#6=DIRECTION('',(0.,0.,1.));
#7=DIRECTION('',(1.,0.,0.));
#8=(GEOMETRIC_REPRESENTATION_CONTEXT(3)GLOBAL_UNCERTAINTY_ASSIGNED_CONTEXT((#10))
GLOBAL_UNIT_ASSIGNED_CONTEXT((#9,#11,#12))REPRESENTATION_CONTEXT('NONE','NONE'));
#9=(LENGTH_UNIT()NAMED_UNIT(*)SI_UNIT(.MILLI.,.METRE.));
#10=UNCERTAINTY_MEASURE_WITH_UNIT(LENGTH_MEASURE(1.E-5),#9,'NONE','NONE');
#11=(NAMED_UNIT(*)PLANE_ANGLE_UNIT()SI_UNIT($,.RADIAN.));
#12=(NAMED_UNIT(*)SI_UNIT($,.STERADIAN.)SOLID_ANGLE_UNIT());
#13=MANIFOLD_SOLID_BREP('',#14);
#14=CLOSED_SHELL('',(#53,#54,#55,#56,#57,#58,#59,#60,#61,#62,#63,#64,#65,#66,#67,
#68,#69,#70,#71,#72,#73,#74,#75,#76));
#15=COLOUR_RGB('',0.564705882352941,0.564705882352941,0.564705882352941);
#16=FILL_AREA_STYLE_COLOUR('',#15);
#17=FILL_AREA_STYLE($,(#16));
#18=SURFACE_STYLE_FILL_AREA(#17);
#19=SURFACE_SIDE_STYLE('',(#18));
#20=SURFACE_STYLE_USAGE(.BOTH.,#19);
#21=PRESENTATION_STYLE_ASSIGNMENT((#20));
#22=MECHANICAL_DESIGN_GEOMETRIC_PRESENTATION_REPRESENTATION('NONE',(#23),#8);
#23=STYLED_ITEM('',(#21),#13);
#24=ADVANCED_BREP_SHAPE_REPRESENTATION('NONE',(#13),#8);
#25=SHAPE_REPRESENTATION_RELATIONSHIP('','',#3,#24);
#26=PRODUCT_DEFINITION_SHAPE('NONE','NONE',#1);
#27=MECHANICAL_CONTEXT('NONE',#32,'mechanical');
#28=PRODUCT_DEFINITION_FORMATION_WITH_SPECIFIED_SOURCE('ANY','UNSPECIFIED',#29,.NOT_KNOWN.);
#29=PRODUCT('','\X2\0414043504420430043B044C\X0\','NONE',(#27));
#30=PRODUCT_RELATED_PRODUCT_CATEGORY('detail','',(#29));
#31=DESIGN_CONTEXT('detailed design',#32,'design');
#32=APPLICATION_CONTEXT('configuration controlled 3d designs of mechanical parts and assemblies');
#33=APPLICATION_PROTOCOL_DEFINITION('international standard','config_control_design',
1994,#32);
#34=CC_DESIGN_DATE_AND_TIME_ASSIGNMENT(#35,#39,(#1));
#35=DATE_AND_TIME(#36,#37);
#36=CALENDAR_DATE(0,1,1);
#37=LOCAL_TIME(0,0,0.,#38);
#38=COORDINATED_UNIVERSAL_TIME_OFFSET(0,0,.AHEAD.);
#39=DATE_TIME_ROLE('creation_date');
#40=CC_DESIGN_APPROVAL(#41,(#1));
#41=APPROVAL(#42,'UNSPECIFIED');
#42=APPROVAL_STATUS('not_yet_approved');
#43=APPROVAL_DATE_TIME(#44,#41);
#44=DATE_AND_TIME(#45,#46);
#45=CALENDAR_DATE(0,1,1);
#46=LOCAL_TIME(0,0,0.,#47);
#47=COORDINATED_UNIVERSAL_TIME_OFFSET(0,0,.AHEAD.);
#48=PERSON('UNSPECIFIED','Nik','UNSPECIFIED',('UNSPECIFIED'),('UNSPECIFIED'),('UNSPECIFIED'));
#49=ORGANIZATION('UNSPECIFIED','UNSPECIFIED','UNSPECIFIED');
#50=PERSON_AND_ORGANIZATION(#48,#49);
#51=PERSON_AND_ORGANIZATION_ROLE('creator');
#52=CC_DESIGN_PERSON_AND_ORGANIZATION_ASSIGNMENT(#50,#51,(#28,#1));
#53=ADVANCED_FACE('',(#77,#79,#81),#83,.F.);
#54=ADVANCED_FACE('',(#88,#90,#92),#94,.T.);
#55=ADVANCED_FACE('',(#99,#101),#103,.F.);
#56=ADVANCED_FACE('',(#108,#110),#112,.F.);
#57=ADVANCED_FACE('',(#117),#119,.T.);
#58=ADVANCED_FACE('',(#124),#126,.T.);
#59=ADVANCED_FACE('',(#131),#133,.T.);
#60=ADVANCED_FACE('',(#138),#140,.T.);
#61=ADVANCED_FACE('',(#145),#147,.F.);
#62=ADVANCED_FACE('',(#152),#154,.T.);
#63=ADVANCED_FACE('',(#159),#161,.F.);
#64=ADVANCED_FACE('',(#166),#168,.T.);
#65=ADVANCED_FACE('',(#173),#175,.T.);
#66=ADVANCED_FACE('',(#180),#182,.T.);
#67=ADVANCED_FACE('',(#187),#189,.T.);
#68=ADVANCED_FACE('',(#194),#196,.T.);
#69=ADVANCED_FACE('',(#201),#203,.F.);
#70=ADVANCED_FACE('',(#208),#210,.T.);
#71=ADVANCED_FACE('',(#215),#217,.F.);
#72=ADVANCED_FACE('',(#222),#224,.T.);
#73=ADVANCED_FACE('',(#229),#231,.T.);
#74=ADVANCED_FACE('',(#236),#238,.T.);
#75=ADVANCED_FACE('',(#243),#245,.T.);
#76=ADVANCED_FACE('',(#250),#252,.T.);
#77=FACE_BOUND('',#78,.T.);
#78=EDGE_LOOP('',(#257,#258,#259,#260));
#79=FACE_BOUND('',#80,.T.);
#80=EDGE_LOOP('',(#261));
#81=FACE_BOUND('',#82,.T.);
#82=EDGE_LOOP('',(#262));
#83=PLANE('',#84);
#84=AXIS2_PLACEMENT_3D('',#85,#86,#87);
#85=CARTESIAN_POINT('',(0.,0.,0.));
#86=DIRECTION('',(0.,1.,6.12323399573677E-17));
#87=DIRECTION('',(6.12323399573677E-17,6.12323399573677E-17,-1.));
#88=FACE_BOUND('',#89,.T.);
#89=EDGE_LOOP('',(#263,#264,#265,#266));
#90=FACE_BOUND('',#91,.T.);
#91=EDGE_LOOP('',(#267));
#92=FACE_BOUND('',#93,.T.);
#93=EDGE_LOOP('',(#268));
#94=PLANE('',#95);
#95=AXIS2_PLACEMENT_3D('',#96,#97,#98);
#96=CARTESIAN_POINT('',(0.,2.,1.22464679914735E-16));
#97=DIRECTION('',(0.,1.,6.12323399573677E-17));
#98=DIRECTION('',(6.12323399573677E-17,6.12323399573677E-17,-1.));
#99=FACE_OUTER_BOUND('',#100,.T.);
#100=EDGE_LOOP('',(#269));
#101=FACE_OUTER_BOUND('',#102,.T.);
#102=EDGE_LOOP('',(#270));
#103=CYLINDRICAL_SURFACE('',#104,1.5);
#104=AXIS2_PLACEMENT_3D('',#105,#106,#107);
#105=CARTESIAN_POINT('',(31.5,-1.86758636869971E-15,30.5));
#106=DIRECTION('',(0.,1.,6.12323399573677E-17));
#107=DIRECTION('',(1.,0.,0.));
#108=FACE_OUTER_BOUND('',#109,.T.);
#109=EDGE_LOOP('',(#271));
#110=FACE_OUTER_BOUND('',#111,.T.);
#111=EDGE_LOOP('',(#272));
#112=CYLINDRICAL_SURFACE('',#113,1.5);
#113=AXIS2_PLACEMENT_3D('',#114,#115,#116);
#114=CARTESIAN_POINT('',(31.5,1.86758636869971E-15,-30.5));
#115=DIRECTION('',(0.,1.,6.12323399573677E-17));
#116=DIRECTION('',(1.,0.,0.));
#117=FACE_BOUND('',#118,.T.);
#118=EDGE_LOOP('',(#273,#274,#275,#276));
#119=PLANE('',#120);
#120=AXIS2_PLACEMENT_3D('',#121,#122,#123);
#121=CARTESIAN_POINT('',(37.5,-2.60237444818813E-15,42.5));
#122=DIRECTION('',(1.,0.,0.));
#123=DIRECTION('',(0.,6.12323399573677E-17,-1.));
#124=FACE_BOUND('',#125,.T.);
#125=EDGE_LOOP('',(#277,#278,#279,#280));
#126=PLANE('',#127);
#127=AXIS2_PLACEMENT_3D('',#128,#129,#130);
#128=CARTESIAN_POINT('',(-37.5,-2.60237444818813E-15,42.5));
#129=DIRECTION('',(0.,0.,1.));
#130=DIRECTION('',(1.,0.,0.));
#131=FACE_BOUND('',#132,.T.);
#132=EDGE_LOOP('',(#281,#282,#283,#284));
#133=CYLINDRICAL_SURFACE('',#134,3.);
#134=AXIS2_PLACEMENT_3D('',#135,#136,#137);
#135=CARTESIAN_POINT('',(-37.5,3.,-42.5));
#136=DIRECTION('',(0.,6.12323399573676E-17,-1.));
#137=DIRECTION('',(0.,-1.,-6.12323399573676E-17));
#138=FACE_BOUND('',#139,.T.);
#139=EDGE_LOOP('',(#285,#286,#287,#288));
#140=PLANE('',#141);
#141=AXIS2_PLACEMENT_3D('',#142,#143,#144);
#142=CARTESIAN_POINT('',(37.5,2.60237444818813E-15,-42.5));
#143=DIRECTION('',(0.,0.,-1.));
#144=DIRECTION('',(-1.,0.,0.));
#145=FACE_BOUND('',#146,.T.);
#146=EDGE_LOOP('',(#289,#290,#291,#292));
#147=CYLINDRICAL_SURFACE('',#148,1.);
#148=AXIS2_PLACEMENT_3D('',#149,#150,#151);
#149=CARTESIAN_POINT('',(-37.5,3.,42.5));
#150=DIRECTION('',(0.,0.,1.));
#151=DIRECTION('',(0.,-1.,0.));
#152=FACE_BOUND('',#153,.T.);
#153=EDGE_LOOP('',(#293,#294,#295,#296));
#154=PLANE('',#155);
#155=AXIS2_PLACEMENT_3D('',#156,#157,#158);
#156=CARTESIAN_POINT('',(-37.5,2.,42.5));
#157=DIRECTION('',(0.,0.,1.));
#158=DIRECTION('',(-1.,0.,0.));
#159=FACE_BOUND('',#160,.T.);
#160=EDGE_LOOP('',(#297,#298,#299,#300));
#161=PLANE('',#162);
#162=AXIS2_PLACEMENT_3D('',#163,#164,#165);
#163=CARTESIAN_POINT('',(-40.5,-37.3274333882308,0.));
#164=DIRECTION('',(1.,-1.04899068466779E-15,-6.16297582203915E-32));
#165=DIRECTION('',(0.,6.12323399573676E-17,-1.));
#166=FACE_BOUND('',#167,.T.);
#167=EDGE_LOOP('',(#301,#302,#303,#304));
#168=PLANE('',#169);
#169=AXIS2_PLACEMENT_3D('',#170,#171,#172);
#170=CARTESIAN_POINT('',(-38.5,3.,-42.5));
#171=DIRECTION('',(0.,0.,-1.));
#172=DIRECTION('',(-1.04899068466779E-15,-1.,0.));
#173=FACE_BOUND('',#174,.T.);
#174=EDGE_LOOP('',(#305,#306,#307,#308));
#175=PLANE('',#176);
#176=AXIS2_PLACEMENT_3D('',#177,#178,#179);
#177=CARTESIAN_POINT('',(-38.5,-37.3274333882308,-1.23259516440783E-31));
#178=DIRECTION('',(1.,-1.04899068466779E-15,-6.16297582203915E-32));
#179=DIRECTION('',(0.,6.12323399573676E-17,-1.));
#180=FACE_BOUND('',#181,.T.);
#181=EDGE_LOOP('',(#309,#310,#311,#312));
#182=PLANE('',#183);
#183=AXIS2_PLACEMENT_3D('',#184,#185,#186);
#184=CARTESIAN_POINT('',(-40.5,28.,42.5));
#185=DIRECTION('',(6.12323399573679E-17,1.61752414389305E-16,1.));
#186=DIRECTION('',(-1.04899068466779E-15,-1.,1.61752414389305E-16));
#187=FACE_BOUND('',#188,.T.);
#188=EDGE_LOOP('',(#313,#314,#315,#316));
#189=CYLINDRICAL_SURFACE('',#190,3.);
#190=AXIS2_PLACEMENT_3D('',#191,#192,#193);
#191=CARTESIAN_POINT('',(-37.5,28.,-42.5));
#192=DIRECTION('',(0.,0.,-1.));
#193=DIRECTION('',(-1.,1.04899068466779E-15,0.));
#194=FACE_BOUND('',#195,.T.);
#195=EDGE_LOOP('',(#317,#318,#319,#320));
#196=PLANE('',#197);
#197=AXIS2_PLACEMENT_3D('',#198,#199,#200);
#198=CARTESIAN_POINT('',(-40.5,3.00000000000001,-42.5));
#199=DIRECTION('',(-6.12323399573679E-17,-1.61752414389305E-16,-1.));
#200=DIRECTION('',(1.04899068466779E-15,1.,-1.61752414389305E-16));
#201=FACE_BOUND('',#202,.T.);
#202=EDGE_LOOP('',(#321,#322,#323,#324));
#203=CYLINDRICAL_SURFACE('',#204,1.);
#204=AXIS2_PLACEMENT_3D('',#205,#206,#207);
#205=CARTESIAN_POINT('',(-37.5,28.,42.5));
#206=DIRECTION('',(0.,0.,1.));
#207=DIRECTION('',(-1.,1.04899068466779E-15,0.));
#208=FACE_BOUND('',#209,.T.);
#209=EDGE_LOOP('',(#325,#326,#327,#328));
#210=PLANE('',#211);
#211=AXIS2_PLACEMENT_3D('',#212,#213,#214);
#212=CARTESIAN_POINT('',(-38.5,28.,42.5));
#213=DIRECTION('',(0.,0.,1.));
#214=DIRECTION('',(2.21453588985422E-15,1.,0.));
#215=FACE_BOUND('',#216,.T.);
#216=EDGE_LOOP('',(#329,#330,#331,#332));
#217=PLANE('',#218);
#218=AXIS2_PLACEMENT_3D('',#219,#220,#221);
#219=CARTESIAN_POINT('',(-105.49857364781,34.5677712772901,2.28564609096414E-15));
#220=DIRECTION('',(-0.0523359562429484,-0.998629534754574,0.));
#221=DIRECTION('',(0.,0.,-1.));
#222=FACE_BOUND('',#223,.T.);
#223=EDGE_LOOP('',(#333,#334,#335,#336));
#224=PLANE('',#225);
#225=AXIS2_PLACEMENT_3D('',#226,#227,#228);
#226=CARTESIAN_POINT('',(-37.447664043757,28.9986295347546,-42.5));
#227=DIRECTION('',(0.,0.,-1.));
#228=DIRECTION('',(-0.998629534754573,0.0523359562429495,0.));
#229=FACE_BOUND('',#230,.T.);
#230=EDGE_LOOP('',(#337,#338,#339,#340));
#231=PLANE('',#232);
#232=AXIS2_PLACEMENT_3D('',#233,#234,#235);
#233=CARTESIAN_POINT('',(-105.603245560296,32.570512207781,2.28564609096414E-15));
#234=DIRECTION('',(-0.0523359562429484,-0.998629534754574,0.));
#235=DIRECTION('',(0.,0.,-1.));
#236=FACE_BOUND('',#237,.T.);
#237=EDGE_LOOP('',(#341,#342,#343,#344));
#238=PLANE('',#239);
#239=AXIS2_PLACEMENT_3D('',#240,#241,#242);
#240=CARTESIAN_POINT('',(2.60218925891184,28.9024503545458,42.5));
#241=DIRECTION('',(6.11484231635599E-17,-3.20465306466207E-18,1.));
#242=DIRECTION('',(-0.998629534754574,0.0523359562429485,6.12323399573676E-17));
#243=FACE_BOUND('',#244,.T.);
#244=EDGE_LOOP('',(#345,#346,#347,#348));
#245=PLANE('',#246);
#246=AXIS2_PLACEMENT_3D('',#247,#248,#249);
#247=CARTESIAN_POINT('',(2.60218925891184,28.9024503545458,-42.5));
#248=DIRECTION('',(0.998629534754574,-0.0523359562429474,-6.12323399573676E-17));
#249=DIRECTION('',(6.11484231635599E-17,-3.20465306466207E-18,1.));
#250=FACE_BOUND('',#251,.T.);
#251=EDGE_LOOP('',(#349,#350,#351,#352));
#252=PLANE('',#253);
#253=AXIS2_PLACEMENT_3D('',#254,#255,#256);
#254=CARTESIAN_POINT('',(-37.3429921312711,30.9958886042637,-42.5));
#255=DIRECTION('',(-6.11484231635599E-17,3.20465306466207E-18,-1.));
#256=DIRECTION('',(0.998629534754574,-0.0523359562429485,-6.12323399573676E-17));
#257=ORIENTED_EDGE('',*,*,#353,.F.);
#258=ORIENTED_EDGE('',*,*,#354,.F.);
#259=ORIENTED_EDGE('',*,*,#355,.T.);
#260=ORIENTED_EDGE('',*,*,#356,.F.);
#261=ORIENTED_EDGE('',*,*,#357,.T.);
#262=ORIENTED_EDGE('',*,*,#358,.T.);
#263=ORIENTED_EDGE('',*,*,#359,.T.);
#264=ORIENTED_EDGE('',*,*,#360,.T.);
#265=ORIENTED_EDGE('',*,*,#361,.T.);
#266=ORIENTED_EDGE('',*,*,#362,.T.);
#267=ORIENTED_EDGE('',*,*,#363,.T.);
#268=ORIENTED_EDGE('',*,*,#364,.T.);
#269=ORIENTED_EDGE('',*,*,#364,.F.);
#270=ORIENTED_EDGE('',*,*,#358,.F.);
#271=ORIENTED_EDGE('',*,*,#363,.F.);
#272=ORIENTED_EDGE('',*,*,#357,.F.);
#273=ORIENTED_EDGE('',*,*,#353,.T.);
#274=ORIENTED_EDGE('',*,*,#365,.T.);
#275=ORIENTED_EDGE('',*,*,#362,.F.);
#276=ORIENTED_EDGE('',*,*,#366,.F.);
#277=ORIENTED_EDGE('',*,*,#354,.T.);
#278=ORIENTED_EDGE('',*,*,#366,.T.);
#279=ORIENTED_EDGE('',*,*,#361,.F.);
#280=ORIENTED_EDGE('',*,*,#367,.T.);
#281=ORIENTED_EDGE('',*,*,#368,.F.);
#282=ORIENTED_EDGE('',*,*,#369,.F.);
#283=ORIENTED_EDGE('',*,*,#355,.F.);
#284=ORIENTED_EDGE('',*,*,#370,.F.);
#285=ORIENTED_EDGE('',*,*,#356,.T.);
#286=ORIENTED_EDGE('',*,*,#371,.T.);
#287=ORIENTED_EDGE('',*,*,#359,.F.);
#288=ORIENTED_EDGE('',*,*,#365,.F.);
#289=ORIENTED_EDGE('',*,*,#372,.T.);
#290=ORIENTED_EDGE('',*,*,#373,.T.);
#291=ORIENTED_EDGE('',*,*,#360,.F.);
#292=ORIENTED_EDGE('',*,*,#374,.T.);
#293=ORIENTED_EDGE('',*,*,#373,.F.);
#294=ORIENTED_EDGE('',*,*,#375,.F.);
#295=ORIENTED_EDGE('',*,*,#370,.T.);
#296=ORIENTED_EDGE('',*,*,#367,.F.);
#297=ORIENTED_EDGE('',*,*,#368,.T.);
#298=ORIENTED_EDGE('',*,*,#376,.F.);
#299=ORIENTED_EDGE('',*,*,#377,.T.);
#300=ORIENTED_EDGE('',*,*,#378,.F.);
#301=ORIENTED_EDGE('',*,*,#374,.F.);
#302=ORIENTED_EDGE('',*,*,#371,.F.);
#303=ORIENTED_EDGE('',*,*,#369,.T.);
#304=ORIENTED_EDGE('',*,*,#379,.T.);
#305=ORIENTED_EDGE('',*,*,#372,.F.);
#306=ORIENTED_EDGE('',*,*,#380,.T.);
#307=ORIENTED_EDGE('',*,*,#381,.T.);
#308=ORIENTED_EDGE('',*,*,#382,.T.);
#309=ORIENTED_EDGE('',*,*,#376,.T.);
#310=ORIENTED_EDGE('',*,*,#375,.T.);
#311=ORIENTED_EDGE('',*,*,#382,.F.);
#312=ORIENTED_EDGE('',*,*,#383,.T.);
#313=ORIENTED_EDGE('',*,*,#384,.F.);
#314=ORIENTED_EDGE('',*,*,#385,.F.);
#315=ORIENTED_EDGE('',*,*,#377,.F.);
#316=ORIENTED_EDGE('',*,*,#386,.F.);
#317=ORIENTED_EDGE('',*,*,#378,.T.);
#318=ORIENTED_EDGE('',*,*,#387,.T.);
#319=ORIENTED_EDGE('',*,*,#380,.F.);
#320=ORIENTED_EDGE('',*,*,#379,.F.);
#321=ORIENTED_EDGE('',*,*,#388,.T.);
#322=ORIENTED_EDGE('',*,*,#389,.T.);
#323=ORIENTED_EDGE('',*,*,#381,.F.);
#324=ORIENTED_EDGE('',*,*,#390,.T.);
#325=ORIENTED_EDGE('',*,*,#389,.F.);
#326=ORIENTED_EDGE('',*,*,#391,.F.);
#327=ORIENTED_EDGE('',*,*,#386,.T.);
#328=ORIENTED_EDGE('',*,*,#383,.F.);
#329=ORIENTED_EDGE('',*,*,#384,.T.);
#330=ORIENTED_EDGE('',*,*,#392,.F.);
#331=ORIENTED_EDGE('',*,*,#393,.F.);
#332=ORIENTED_EDGE('',*,*,#394,.F.);
#333=ORIENTED_EDGE('',*,*,#390,.F.);
#334=ORIENTED_EDGE('',*,*,#387,.F.);
#335=ORIENTED_EDGE('',*,*,#385,.T.);
#336=ORIENTED_EDGE('',*,*,#395,.T.);
#337=ORIENTED_EDGE('',*,*,#388,.F.);
#338=ORIENTED_EDGE('',*,*,#396,.T.);
#339=ORIENTED_EDGE('',*,*,#397,.T.);
#340=ORIENTED_EDGE('',*,*,#398,.T.);
#341=ORIENTED_EDGE('',*,*,#392,.T.);
#342=ORIENTED_EDGE('',*,*,#391,.T.);
#343=ORIENTED_EDGE('',*,*,#398,.F.);
#344=ORIENTED_EDGE('',*,*,#399,.F.);
#345=ORIENTED_EDGE('',*,*,#393,.T.);
#346=ORIENTED_EDGE('',*,*,#399,.T.);
#347=ORIENTED_EDGE('',*,*,#397,.F.);
#348=ORIENTED_EDGE('',*,*,#400,.F.);
#349=ORIENTED_EDGE('',*,*,#394,.T.);
#350=ORIENTED_EDGE('',*,*,#400,.T.);
#351=ORIENTED_EDGE('',*,*,#396,.F.);
#352=ORIENTED_EDGE('',*,*,#395,.F.);
#353=EDGE_CURVE('',#401,#402,#403,.T.);
#354=EDGE_CURVE('',#404,#401,#405,.T.);
#355=EDGE_CURVE('',#404,#406,#407,.T.);
#356=EDGE_CURVE('',#402,#406,#408,.T.);
#357=EDGE_CURVE('',#409,#409,#410,.T.);
#358=EDGE_CURVE('',#411,#411,#412,.T.);
#359=EDGE_CURVE('',#413,#414,#415,.T.);
#360=EDGE_CURVE('',#414,#416,#417,.T.);
#361=EDGE_CURVE('',#416,#418,#419,.T.);
#362=EDGE_CURVE('',#418,#413,#420,.T.);
#363=EDGE_CURVE('',#421,#421,#422,.F.);
#364=EDGE_CURVE('',#423,#423,#424,.F.);
#365=EDGE_CURVE('',#402,#413,#425,.T.);
#366=EDGE_CURVE('',#401,#418,#426,.T.);
#367=EDGE_CURVE('',#416,#404,#427,.T.);
#368=EDGE_CURVE('',#428,#429,#430,.T.);
#369=EDGE_CURVE('',#406,#428,#431,.T.);
#370=EDGE_CURVE('',#429,#404,#432,.T.);
#371=EDGE_CURVE('',#406,#414,#433,.T.);
#372=EDGE_CURVE('',#434,#435,#436,.T.);
#373=EDGE_CURVE('',#435,#416,#437,.T.);
#374=EDGE_CURVE('',#414,#434,#438,.T.);
#375=EDGE_CURVE('',#429,#435,#439,.T.);
#376=EDGE_CURVE('',#440,#429,#441,.T.);
#377=EDGE_CURVE('',#440,#442,#443,.T.);
#378=EDGE_CURVE('',#428,#442,#444,.T.);
#379=EDGE_CURVE('',#428,#434,#445,.T.);
#380=EDGE_CURVE('',#434,#446,#447,.T.);
#381=EDGE_CURVE('',#446,#448,#449,.T.);
#382=EDGE_CURVE('',#448,#435,#450,.T.);
#383=EDGE_CURVE('',#448,#440,#451,.T.);
#384=EDGE_CURVE('',#452,#453,#454,.T.);
#385=EDGE_CURVE('',#442,#452,#455,.T.);
#386=EDGE_CURVE('',#453,#440,#456,.T.);
#387=EDGE_CURVE('',#442,#446,#457,.T.);
#388=EDGE_CURVE('',#458,#459,#460,.T.);
#389=EDGE_CURVE('',#459,#448,#461,.T.);
#390=EDGE_CURVE('',#446,#458,#462,.T.);
#391=EDGE_CURVE('',#453,#459,#463,.T.);
#392=EDGE_CURVE('',#464,#453,#465,.T.);
#393=EDGE_CURVE('',#466,#464,#467,.T.);
#394=EDGE_CURVE('',#452,#466,#468,.T.);
#395=EDGE_CURVE('',#452,#458,#469,.T.);
#396=EDGE_CURVE('',#458,#470,#471,.T.);
#397=EDGE_CURVE('',#470,#472,#473,.T.);
#398=EDGE_CURVE('',#472,#459,#474,.T.);
#399=EDGE_CURVE('',#464,#472,#475,.T.);
#400=EDGE_CURVE('',#466,#470,#476,.T.);
#401=VERTEX_POINT('',#477);
#402=VERTEX_POINT('',#478);
#403=LINE('',#479,#480);
#404=VERTEX_POINT('',#482);
#405=LINE('',#483,#484);
#406=VERTEX_POINT('',#486);
#407=LINE('',#487,#488);
#408=LINE('',#490,#491);
#409=VERTEX_POINT('',#493);
#410=CIRCLE('',#494,1.5);
#411=VERTEX_POINT('',#498);
#412=CIRCLE('',#499,1.5);
#413=VERTEX_POINT('',#503);
#414=VERTEX_POINT('',#504);
#415=LINE('',#505,#506);
#416=VERTEX_POINT('',#508);
#417=LINE('',#509,#510);
#418=VERTEX_POINT('',#512);
#419=LINE('',#513,#514);
#420=LINE('',#516,#517);
#421=VERTEX_POINT('',#519);
#422=CIRCLE('',#520,1.5);
#423=VERTEX_POINT('',#524);
#424=CIRCLE('',#525,1.5);
#425=LINE('',#529,#530);
#426=LINE('',#532,#533);
#427=LINE('',#535,#536);
#428=VERTEX_POINT('',#538);
#429=VERTEX_POINT('',#539);
#430=LINE('',#540,#541);
#431=CIRCLE('',#543,3.);
#432=CIRCLE('',#547,3.);
#433=LINE('',#551,#552);
#434=VERTEX_POINT('',#554);
#435=VERTEX_POINT('',#555);
#436=LINE('',#556,#557);
#437=CIRCLE('',#559,1.);
#438=CIRCLE('',#563,1.);
#439=LINE('',#567,#568);
#440=VERTEX_POINT('',#570);
#441=LINE('',#571,#572);
#442=VERTEX_POINT('',#574);
#443=LINE('',#575,#576);
#444=LINE('',#578,#579);
#445=LINE('',#581,#582);
#446=VERTEX_POINT('',#584);
#447=LINE('',#585,#586);
#448=VERTEX_POINT('',#588);
#449=LINE('',#589,#590);
#450=LINE('',#592,#593);
#451=LINE('',#595,#596);
#452=VERTEX_POINT('',#598);
#453=VERTEX_POINT('',#599);
#454=LINE('',#600,#601);
#455=CIRCLE('',#603,3.);
#456=CIRCLE('',#607,3.);
#457=LINE('',#611,#612);
#458=VERTEX_POINT('',#614);
#459=VERTEX_POINT('',#615);
#460=LINE('',#616,#617);
#461=CIRCLE('',#619,1.);
#462=CIRCLE('',#623,1.);
#463=LINE('',#627,#628);
#464=VERTEX_POINT('',#630);
#465=LINE('',#631,#632);
#466=VERTEX_POINT('',#634);
#467=LINE('',#635,#636);
#468=LINE('',#638,#639);
#469=LINE('',#641,#642);
#470=VERTEX_POINT('',#644);
#471=LINE('',#645,#646);
#472=VERTEX_POINT('',#648);
#473=LINE('',#649,#650);
#474=LINE('',#652,#653);
#475=LINE('',#655,#656);
#476=LINE('',#658,#659);
#477=CARTESIAN_POINT('',(37.5,-2.60237444818813E-15,42.5));
#478=CARTESIAN_POINT('',(37.5,2.60237444818813E-15,-42.5));
#479=CARTESIAN_POINT('',(37.5,-2.60237444818813E-15,42.5));
#480=VECTOR('',#481,1.);
#481=DIRECTION('',(0.,6.12323399573677E-17,-1.));
#482=CARTESIAN_POINT('',(-37.5,-2.60237444818813E-15,42.5));
#483=CARTESIAN_POINT('',(-37.5,-2.60237444818813E-15,42.5));
#484=VECTOR('',#485,1.);
#485=DIRECTION('',(1.,0.,0.));
#486=CARTESIAN_POINT('',(-37.5,2.60237444818813E-15,-42.5));
#487=CARTESIAN_POINT('',(-37.5,-2.63345485364425E-15,42.5));
#488=VECTOR('',#489,1.);
#489=DIRECTION('',(0.,6.19636436151588E-17,-1.));
#490=CARTESIAN_POINT('',(37.5,2.60237444818813E-15,-42.5));
#491=VECTOR('',#492,1.);
#492=DIRECTION('',(-1.,0.,0.));
#493=CARTESIAN_POINT('',(33.,1.86758636869971E-15,-30.5));
#494=AXIS2_PLACEMENT_3D('',#495,#496,#497);
#495=CARTESIAN_POINT('',(31.5,1.86758636869971E-15,-30.5));
#496=DIRECTION('',(0.,1.,6.12323399573677E-17));
#497=DIRECTION('',(1.,0.,0.));
#498=CARTESIAN_POINT('',(33.,-1.86758636869971E-15,30.5));
#499=AXIS2_PLACEMENT_3D('',#500,#501,#502);
#500=CARTESIAN_POINT('',(31.5,-1.86758636869971E-15,30.5));
#501=DIRECTION('',(0.,1.,6.12323399573677E-17));
#502=DIRECTION('',(1.,0.,0.));
#503=CARTESIAN_POINT('',(37.5,2.,-42.5));
#504=CARTESIAN_POINT('',(-37.5,2.,-42.5));
#505=CARTESIAN_POINT('',(37.5,2.,-42.5));
#506=VECTOR('',#507,1.);
#507=DIRECTION('',(-1.,0.,0.));
#508=CARTESIAN_POINT('',(-37.5,2.,42.5));
#509=CARTESIAN_POINT('',(-37.5,2.,-42.5));
#510=VECTOR('',#511,1.);
#511=DIRECTION('',(0.,-3.1347473636475E-17,1.));
#512=CARTESIAN_POINT('',(37.5,2.,42.5));
#513=CARTESIAN_POINT('',(-37.5,2.,42.5));
#514=VECTOR('',#515,1.);
#515=DIRECTION('',(1.,0.,0.));
#516=CARTESIAN_POINT('',(37.5,2.,42.5));
#517=VECTOR('',#518,1.);
#518=DIRECTION('',(0.,6.269494727295E-17,-1.));
#519=CARTESIAN_POINT('',(33.,2.,-30.5));
#520=AXIS2_PLACEMENT_3D('',#521,#522,#523);
#521=CARTESIAN_POINT('',(31.5,2.,-30.5));
#522=DIRECTION('',(0.,1.,6.12323399573677E-17));
#523=DIRECTION('',(1.,0.,0.));
#524=CARTESIAN_POINT('',(33.,2.,30.5));
#525=AXIS2_PLACEMENT_3D('',#526,#527,#528);
#526=CARTESIAN_POINT('',(31.5,2.,30.5));
#527=DIRECTION('',(0.,1.,6.12323399573677E-17));
#528=DIRECTION('',(1.,0.,0.));
#529=CARTESIAN_POINT('',(37.5,2.60237444818813E-15,-42.5));
#530=VECTOR('',#531,1.);
#531=DIRECTION('',(0.,1.,0.));
#532=CARTESIAN_POINT('',(37.5,-2.60237444818813E-15,42.5));
#533=VECTOR('',#534,1.);
#534=DIRECTION('',(0.,1.,0.));
#535=CARTESIAN_POINT('',(-37.5,2.,42.5));
#536=VECTOR('',#537,1.);
#537=DIRECTION('',(0.,-1.,0.));
#538=CARTESIAN_POINT('',(-40.5,3.00000000000001,-42.5));
#539=CARTESIAN_POINT('',(-40.5,3.,42.5));
#540=CARTESIAN_POINT('',(-40.5,3.00000000000001,-42.5));
#541=VECTOR('',#542,1.);
#542=DIRECTION('',(0.,-3.1347473636475E-17,1.));
#543=AXIS2_PLACEMENT_3D('',#544,#545,#546);
#544=CARTESIAN_POINT('',(-37.5,3.,-42.5));
#545=DIRECTION('',(0.,0.,-1.));
#546=DIRECTION('',(0.,-1.,0.));
#547=AXIS2_PLACEMENT_3D('',#548,#549,#550);
#548=CARTESIAN_POINT('',(-37.5,3.,42.5));
#549=DIRECTION('',(0.,0.,1.));
#550=DIRECTION('',(-1.,0.,0.));
#551=CARTESIAN_POINT('',(-37.5,2.55304872116042E-15,-42.5));
#552=VECTOR('',#553,1.);
#553=DIRECTION('',(0.,1.,0.));
#554=CARTESIAN_POINT('',(-38.5,3.00000000000001,-42.5));
#555=CARTESIAN_POINT('',(-38.5,3.,42.5));
#556=CARTESIAN_POINT('',(-38.5,3.,-42.5));
#557=VECTOR('',#558,1.);
#558=DIRECTION('',(0.,0.,1.));
#559=AXIS2_PLACEMENT_3D('',#560,#561,#562);
#560=CARTESIAN_POINT('',(-37.5,3.,42.5));
#561=DIRECTION('',(0.,0.,1.));
#562=DIRECTION('',(-1.,0.,0.));
#563=AXIS2_PLACEMENT_3D('',#564,#565,#566);
#564=CARTESIAN_POINT('',(-37.5,3.,-42.5));
#565=DIRECTION('',(0.,0.,-1.));
#566=DIRECTION('',(0.,-1.,0.));
#567=CARTESIAN_POINT('',(-40.5,3.,42.5));
#568=VECTOR('',#569,1.);
#569=DIRECTION('',(1.,-8.88178419700125E-16,0.));
#570=CARTESIAN_POINT('',(-40.5,28.,42.5));
#571=CARTESIAN_POINT('',(-40.5,28.,42.5));
#572=VECTOR('',#573,1.);
#573=DIRECTION('',(-1.13686837721616E-15,-1.,0.));
#574=CARTESIAN_POINT('',(-40.5,28.,-42.5));
#575=CARTESIAN_POINT('',(-40.5,28.,42.5));
#576=VECTOR('',#577,1.);
#577=DIRECTION('',(0.,0.,-1.));
#578=CARTESIAN_POINT('',(-40.5,3.00000000000001,-42.5));
#579=VECTOR('',#580,1.);
#580=DIRECTION('',(1.13686837721616E-15,1.,0.));
#581=CARTESIAN_POINT('',(-40.5,3.00000000000001,-42.5));
#582=VECTOR('',#583,1.);
#583=DIRECTION('',(1.,-2.22044604925031E-15,0.));
#584=CARTESIAN_POINT('',(-38.5,28.,-42.5));
#585=CARTESIAN_POINT('',(-38.5,3.00000000000001,-42.5));
#586=VECTOR('',#587,1.);
#587=DIRECTION('',(1.13686837721616E-15,1.,0.));
#588=CARTESIAN_POINT('',(-38.5,28.,42.5));
#589=CARTESIAN_POINT('',(-38.5,28.,-42.5));
#590=VECTOR('',#591,1.);
#591=DIRECTION('',(0.,0.,1.));
#592=CARTESIAN_POINT('',(-38.5,28.,42.5));
#593=VECTOR('',#594,1.);
#594=DIRECTION('',(-1.13686837721616E-15,-1.,0.));
#595=CARTESIAN_POINT('',(-38.5,28.,42.5));
#596=VECTOR('',#597,1.);
#597=DIRECTION('',(-1.,0.,0.));
#598=CARTESIAN_POINT('',(-37.3429921312711,30.9958886042637,-42.5));
#599=CARTESIAN_POINT('',(-37.3429921312711,30.9958886042637,42.5));
#600=CARTESIAN_POINT('',(-37.3429921312711,30.9958886042637,-42.5));
#601=VECTOR('',#602,1.);
#602=DIRECTION('',(0.,0.,1.));
#603=AXIS2_PLACEMENT_3D('',#604,#605,#606);
#604=CARTESIAN_POINT('',(-37.5,28.,-42.5));
#605=DIRECTION('',(0.,0.,-1.));
#606=DIRECTION('',(-1.,1.1842378929335E-15,0.));
#607=AXIS2_PLACEMENT_3D('',#608,#609,#610);
#608=CARTESIAN_POINT('',(-37.5,28.,42.5));
#609=DIRECTION('',(0.,0.,1.));
#610=DIRECTION('',(0.052335956242949,0.998629534754574,0.));
#611=CARTESIAN_POINT('',(-40.5,28.,-42.5));
#612=VECTOR('',#613,1.);
#613=DIRECTION('',(1.,-1.77635683940025E-15,0.));
#614=CARTESIAN_POINT('',(-37.447664043757,28.9986295347546,-42.5));
#615=CARTESIAN_POINT('',(-37.447664043757,28.9986295347546,42.5));
#616=CARTESIAN_POINT('',(-37.447664043757,28.9986295347546,-42.5));
#617=VECTOR('',#618,1.);
#618=DIRECTION('',(0.,0.,1.));
#619=AXIS2_PLACEMENT_3D('',#620,#621,#622);
#620=CARTESIAN_POINT('',(-37.5,28.,42.5));
#621=DIRECTION('',(0.,0.,1.));
#622=DIRECTION('',(0.052335956242949,0.998629534754574,0.));
#623=AXIS2_PLACEMENT_3D('',#624,#625,#626);
#624=CARTESIAN_POINT('',(-37.5,28.,-42.5));
#625=DIRECTION('',(0.,0.,-1.));
#626=DIRECTION('',(-1.,3.5527136788005E-15,0.));
#627=CARTESIAN_POINT('',(-37.3429921312711,30.9958886042637,42.5));
#628=VECTOR('',#629,1.);
#629=DIRECTION('',(-0.052335956242949,-0.998629534754574,0.));
#630=CARTESIAN_POINT('',(2.60218925891184,28.9024503545458,42.5));
#631=CARTESIAN_POINT('',(2.60218925891183,28.9024503545458,42.5));
#632=VECTOR('',#633,1.);
#633=DIRECTION('',(-0.998629534754574,0.0523359562429484,0.));
#634=CARTESIAN_POINT('',(2.60218925891184,28.9024503545458,-42.5));
#635=CARTESIAN_POINT('',(2.60218925891183,28.9024503545458,-42.5));
#636=VECTOR('',#637,1.);
#637=DIRECTION('',(3.1347473636475E-17,0.,1.));
#638=CARTESIAN_POINT('',(-37.3429921312711,30.9958886042637,-42.5));
#639=VECTOR('',#640,1.);
#640=DIRECTION('',(0.998629534754574,-0.0523359562429485,0.));
#641=CARTESIAN_POINT('',(-37.3429921312711,30.9958886042637,-42.5));
#642=VECTOR('',#643,1.);
#643=DIRECTION('',(-0.052335956242949,-0.998629534754574,0.));
#644=CARTESIAN_POINT('',(2.49751734642594,26.9051912850366,-42.5));
#645=CARTESIAN_POINT('',(-37.447664043757,28.9986295347546,-42.5));
#646=VECTOR('',#647,1.);
#647=DIRECTION('',(0.998629534754574,-0.0523359562429485,0.));
#648=CARTESIAN_POINT('',(2.49751734642594,26.9051912850366,42.5));
#649=CARTESIAN_POINT('',(2.49751734642594,26.9051912850366,-42.5));
#650=VECTOR('',#651,1.);
#651=DIRECTION('',(3.1347473636475E-17,0.,1.));
#652=CARTESIAN_POINT('',(2.49751734642594,26.9051912850366,42.5));
#653=VECTOR('',#654,1.);
#654=DIRECTION('',(-0.998629534754574,0.0523359562429484,0.));
#655=CARTESIAN_POINT('',(2.60218925891184,28.9024503545458,42.5));
#656=VECTOR('',#657,1.);
#657=DIRECTION('',(-0.0523359562429473,-0.998629534754574,0.));
#658=CARTESIAN_POINT('',(2.60218925891183,28.9024503545458,-42.5));
#659=VECTOR('',#660,1.);
#660=DIRECTION('',(-0.0523359562429477,-0.998629534754574,0.));
ENDSEC;
END-ISO-10303-21;
