ISO-10303-21;
HEADER;
FILE_DESCRIPTION(('STEP AP203'),
    '1');
FILE_NAME('Кронштейн мотора',
    '',
    ('UNSPECIFIED'),
    ('UNSPECIFIED'),
    'C3D Converter',
    'C3D Toolkit',
    '');
FILE_SCHEMA(('CONFIG_CONTROL_DESIGN'));
ENDSEC;

DATA;
#1=PRODUCT_DEFINITION('','UNSPECIFIED',#28,#31);
#2=SHAPE_DEFINITION_REPRESENTATION(#26,#3);
#3=SHAPE_REPRESENTATION('NONE',(#4),#8);
#4=AXIS2_PLACEMENT_3D('',#5,#6,#7);
#5=CARTESIAN_POINT('',(0.,0.,0.));
#6=DIRECTION('',(0.,0.,1.));
#7=DIRECTION('',(1.,0.,0.));
#8=(GEOMETRIC_REPRESENTATION_CONTEXT(3)GLOBAL_UNCERTAINTY_ASSIGNED_CONTEXT((#10))
GLOBAL_UNIT_ASSIGNED_CONTEXT((#9,#11,#12))REPRESENTATION_CONTEXT('NONE','NONE'));
#9=(LENGTH_UNIT()NAMED_UNIT(*)SI_UNIT(.MILLI.,.METRE.));
#10=UNCERTAINTY_MEASURE_WITH_UNIT(LENGTH_MEASURE(1.E-5),#9,'NONE','NONE');
#11=(NAMED_UNIT(*)PLANE_ANGLE_UNIT()SI_UNIT($,.RADIAN.));
#12=(NAMED_UNIT(*)SI_UNIT($,.STERADIAN.)SOLID_ANGLE_UNIT());
#13=MANIFOLD_SOLID_BREP('',#14);
#14=CLOSED_SHELL('',(#53,#54,#55,#56,#57,#58,#59,#60,#61,#62,#63,#64,#65,#66,#67,
#68,#69,#70));
#15=COLOUR_RGB('',0.564705882352941,0.564705882352941,0.564705882352941);
#16=FILL_AREA_STYLE_COLOUR('',#15);
#17=FILL_AREA_STYLE($,(#16));
#18=SURFACE_STYLE_FILL_AREA(#17);
#19=SURFACE_SIDE_STYLE('',(#18));
#20=SURFACE_STYLE_USAGE(.BOTH.,#19);
#21=PRESENTATION_STYLE_ASSIGNMENT((#20));
#22=MECHANICAL_DESIGN_GEOMETRIC_PRESENTATION_REPRESENTATION('NONE',(#23),#8);
#23=STYLED_ITEM('',(#21),#13);
#24=ADVANCED_BREP_SHAPE_REPRESENTATION('NONE',(#13),#8);
#25=SHAPE_REPRESENTATION_RELATIONSHIP('','',#3,#24);
#26=PRODUCT_DEFINITION_SHAPE('NONE','NONE',#1);
#27=MECHANICAL_CONTEXT('NONE',#32,'mechanical');
#28=PRODUCT_DEFINITION_FORMATION_WITH_SPECIFIED_SOURCE('ANY','UNSPECIFIED',#29,.NOT_KNOWN.);
#29=PRODUCT('','\X2\0414043504420430043B044C\X0\','NONE',(#27));
#30=PRODUCT_RELATED_PRODUCT_CATEGORY('detail','',(#29));
#31=DESIGN_CONTEXT('detailed design',#32,'design');
#32=APPLICATION_CONTEXT('configuration controlled 3d designs of mechanical parts and assemblies');
#33=APPLICATION_PROTOCOL_DEFINITION('international standard','config_control_design',
1994,#32);
#34=CC_DESIGN_DATE_AND_TIME_ASSIGNMENT(#35,#39,(#1));
#35=DATE_AND_TIME(#36,#37);
#36=CALENDAR_DATE(0,1,1);
#37=LOCAL_TIME(0,0,0.,#38);
#38=COORDINATED_UNIVERSAL_TIME_OFFSET(0,0,.AHEAD.);
#39=DATE_TIME_ROLE('creation_date');
#40=CC_DESIGN_APPROVAL(#41,(#1));
#41=APPROVAL(#42,'UNSPECIFIED');
#42=APPROVAL_STATUS('not_yet_approved');
#43=APPROVAL_DATE_TIME(#44,#41);
#44=DATE_AND_TIME(#45,#46);
#45=CALENDAR_DATE(0,1,1);
#46=LOCAL_TIME(0,0,0.,#47);
#47=COORDINATED_UNIVERSAL_TIME_OFFSET(0,0,.AHEAD.);
#48=PERSON('UNSPECIFIED','Nik','UNSPECIFIED',('UNSPECIFIED'),('UNSPECIFIED'),('UNSPECIFIED'));
#49=ORGANIZATION('UNSPECIFIED','UNSPECIFIED','UNSPECIFIED');
#50=PERSON_AND_ORGANIZATION(#48,#49);
#51=PERSON_AND_ORGANIZATION_ROLE('creator');
#52=CC_DESIGN_PERSON_AND_ORGANIZATION_ASSIGNMENT(#50,#51,(#28,#1));
#53=ADVANCED_FACE('',(#71,#73,#75),#77,.T.);
#54=ADVANCED_FACE('',(#82,#84,#86),#88,.F.);
#55=ADVANCED_FACE('',(#93,#95),#97,.F.);
#56=ADVANCED_FACE('',(#102,#104),#106,.F.);
#57=ADVANCED_FACE('',(#111),#113,.T.);
#58=ADVANCED_FACE('',(#118),#120,.F.);
#59=ADVANCED_FACE('',(#125),#127,.T.);
#60=ADVANCED_FACE('',(#132),#134,.T.);
#61=ADVANCED_FACE('',(#139),#141,.T.);
#62=ADVANCED_FACE('',(#146),#148,.T.);
#63=ADVANCED_FACE('',(#153,#155,#157),#159,.T.);
#64=ADVANCED_FACE('',(#164),#166,.T.);
#65=ADVANCED_FACE('',(#171,#173,#175),#177,.F.);
#66=ADVANCED_FACE('',(#182),#184,.T.);
#67=ADVANCED_FACE('',(#189),#191,.T.);
#68=ADVANCED_FACE('',(#196),#198,.T.);
#69=ADVANCED_FACE('',(#203,#205),#207,.F.);
#70=ADVANCED_FACE('',(#212,#214),#216,.F.);
#71=FACE_BOUND('',#72,.T.);
#72=EDGE_LOOP('',(#221,#222,#223,#224));
#73=FACE_BOUND('',#74,.T.);
#74=EDGE_LOOP('',(#225));
#75=FACE_BOUND('',#76,.T.);
#76=EDGE_LOOP('',(#226));
#77=PLANE('',#78);
#78=AXIS2_PLACEMENT_3D('',#79,#80,#81);
#79=CARTESIAN_POINT('',(0.,2.,1.22464679914735E-16));
#80=DIRECTION('',(0.,1.,6.12323399573677E-17));
#81=DIRECTION('',(6.12323399573677E-17,6.12323399573677E-17,-1.));
#82=FACE_BOUND('',#83,.T.);
#83=EDGE_LOOP('',(#227,#228,#229,#230));
#84=FACE_BOUND('',#85,.T.);
#85=EDGE_LOOP('',(#231));
#86=FACE_BOUND('',#87,.T.);
#87=EDGE_LOOP('',(#232));
#88=PLANE('',#89);
#89=AXIS2_PLACEMENT_3D('',#90,#91,#92);
#90=CARTESIAN_POINT('',(0.,0.,0.));
#91=DIRECTION('',(0.,1.,6.12323399573677E-17));
#92=DIRECTION('',(6.12323399573677E-17,6.12323399573677E-17,-1.));
#93=FACE_OUTER_BOUND('',#94,.T.);
#94=EDGE_LOOP('',(#233));
#95=FACE_OUTER_BOUND('',#96,.T.);
#96=EDGE_LOOP('',(#234));
#97=CYLINDRICAL_SURFACE('',#98,1.5);
#98=AXIS2_PLACEMENT_3D('',#99,#100,#101);
#99=CARTESIAN_POINT('',(2.5,-3.06161699786838E-16,5.));
#100=DIRECTION('',(0.,1.,6.12323399573677E-17));
#101=DIRECTION('',(6.12323399573676E-17,6.12323399573676E-17,-1.));
#102=FACE_OUTER_BOUND('',#103,.T.);
#103=EDGE_LOOP('',(#235));
#104=FACE_OUTER_BOUND('',#105,.T.);
#105=EDGE_LOOP('',(#236));
#106=CYLINDRICAL_SURFACE('',#107,1.5);
#107=AXIS2_PLACEMENT_3D('',#108,#109,#110);
#108=CARTESIAN_POINT('',(-8.5,-3.06161699786838E-16,5.));
#109=DIRECTION('',(0.,1.,6.12323399573677E-17));
#110=DIRECTION('',(6.12323399573676E-17,6.12323399573676E-17,-1.));
#111=FACE_BOUND('',#112,.T.);
#112=EDGE_LOOP('',(#237,#238,#239,#240));
#113=PLANE('',#114);
#114=AXIS2_PLACEMENT_3D('',#115,#116,#117);
#115=CARTESIAN_POINT('',(18.5,6.12323399573675E-16,-9.99999999999998));
#116=DIRECTION('',(9.60192886162297E-17,0.,-1.));
#117=DIRECTION('',(-1.,5.33014125149332E-33,-9.60192886162297E-17));
#118=FACE_BOUND('',#119,.T.);
#119=EDGE_LOOP('',(#241,#242,#243,#244));
#120=CYLINDRICAL_SURFACE('',#121,1.);
#121=AXIS2_PLACEMENT_3D('',#122,#123,#124);
#122=CARTESIAN_POINT('',(-18.5,3.,9.99999999999998));
#123=DIRECTION('',(0.,0.,1.));
#124=DIRECTION('',(0.,-1.,0.));
#125=FACE_BOUND('',#126,.T.);
#126=EDGE_LOOP('',(#245,#246,#247,#248));
#127=PLANE('',#128);
#128=AXIS2_PLACEMENT_3D('',#129,#130,#131);
#129=CARTESIAN_POINT('',(-18.5,-6.12323399573675E-16,9.99999999999998));
#130=DIRECTION('',(-9.60192886162297E-17,0.,1.));
#131=DIRECTION('',(1.,-5.33014125149332E-33,9.60192886162297E-17));
#132=FACE_BOUND('',#133,.T.);
#133=EDGE_LOOP('',(#249,#250,#251,#252));
#134=PLANE('',#135);
#135=AXIS2_PLACEMENT_3D('',#136,#137,#138);
#136=CARTESIAN_POINT('',(18.5,-6.12323399573675E-16,9.99999999999998));
#137=DIRECTION('',(1.,0.,0.));
#138=DIRECTION('',(0.,6.12323399573677E-17,-1.));
#139=FACE_BOUND('',#140,.T.);
#140=EDGE_LOOP('',(#253,#254,#255,#256));
#141=CYLINDRICAL_SURFACE('',#142,3.);
#142=AXIS2_PLACEMENT_3D('',#143,#144,#145);
#143=CARTESIAN_POINT('',(-18.5,3.,-9.99999999999998));
#144=DIRECTION('',(0.,6.12323399573677E-17,-1.));
#145=DIRECTION('',(0.,-1.,-6.12323399573677E-17));
#146=FACE_BOUND('',#147,.T.);
#147=EDGE_LOOP('',(#257,#258,#259,#260));
#148=PLANE('',#149);
#149=AXIS2_PLACEMENT_3D('',#150,#151,#152);
#150=CARTESIAN_POINT('',(-19.5,3.,-9.99999999999998));
#151=DIRECTION('',(0.,0.,-1.));
#152=DIRECTION('',(-1.04899068466779E-15,-1.,0.));
#153=FACE_BOUND('',#154,.T.);
#154=EDGE_LOOP('',(#261,#262,#263,#264));
#155=FACE_BOUND('',#156,.T.);
#156=EDGE_LOOP('',(#265));
#157=FACE_BOUND('',#158,.T.);
#158=EDGE_LOOP('',(#266));
#159=PLANE('',#160);
#160=AXIS2_PLACEMENT_3D('',#161,#162,#163);
#161=CARTESIAN_POINT('',(-19.5,-18.3274333882308,-3.5527136788005E-15));
#162=DIRECTION('',(1.,-1.04899068466779E-15,-6.16297582203915E-32));
#163=DIRECTION('',(0.,6.12323399573677E-17,-1.));
#164=FACE_BOUND('',#165,.T.);
#165=EDGE_LOOP('',(#267,#268,#269,#270));
#166=PLANE('',#167);
#167=AXIS2_PLACEMENT_3D('',#168,#169,#170);
#168=CARTESIAN_POINT('',(-18.5,2.,9.99999999999998));
#169=DIRECTION('',(0.,0.,1.));
#170=DIRECTION('',(-1.,0.,0.));
#171=FACE_BOUND('',#172,.T.);
#172=EDGE_LOOP('',(#271,#272,#273,#274));
#173=FACE_BOUND('',#174,.T.);
#174=EDGE_LOOP('',(#275));
#175=FACE_BOUND('',#176,.T.);
#176=EDGE_LOOP('',(#276));
#177=PLANE('',#178);
#178=AXIS2_PLACEMENT_3D('',#179,#180,#181);
#179=CARTESIAN_POINT('',(-21.5,-18.3274333882308,-3.5527136788005E-15));
#180=DIRECTION('',(1.,-1.04899068466779E-15,-6.16297582203915E-32));
#181=DIRECTION('',(0.,6.12323399573677E-17,-1.));
#182=FACE_BOUND('',#183,.T.);
#183=EDGE_LOOP('',(#277,#278,#279,#280));
#184=PLANE('',#185);
#185=AXIS2_PLACEMENT_3D('',#186,#187,#188);
#186=CARTESIAN_POINT('',(-21.5,3.,-9.99999999999998));
#187=DIRECTION('',(-6.12323399573677E-17,5.14104063387254E-17,-1.));
#188=DIRECTION('',(1.04899068466779E-15,1.,5.14104063387253E-17));
#189=FACE_BOUND('',#190,.T.);
#190=EDGE_LOOP('',(#281,#282,#283,#284));
#191=PLANE('',#192);
#192=AXIS2_PLACEMENT_3D('',#193,#194,#195);
#193=CARTESIAN_POINT('',(-21.5,28.,-9.99999999999998));
#194=DIRECTION('',(1.04899068466779E-15,1.,1.22464679914735E-16));
#195=DIRECTION('',(-6.16297582203915E-32,-1.22464679914735E-16,1.));
#196=FACE_BOUND('',#197,.T.);
#197=EDGE_LOOP('',(#285,#286,#287,#288));
#198=PLANE('',#199);
#199=AXIS2_PLACEMENT_3D('',#200,#201,#202);
#200=CARTESIAN_POINT('',(-21.5,28.,9.99999999999998));
#201=DIRECTION('',(6.12323399573677E-17,-5.14104063387254E-17,1.));
#202=DIRECTION('',(-1.04899068466779E-15,-1.,-5.14104063387253E-17));
#203=FACE_OUTER_BOUND('',#204,.T.);
#204=EDGE_LOOP('',(#289));
#205=FACE_OUTER_BOUND('',#206,.T.);
#206=EDGE_LOOP('',(#290));
#207=CYLINDRICAL_SURFACE('',#208,1.);
#208=AXIS2_PLACEMENT_3D('',#209,#210,#211);
#209=CARTESIAN_POINT('',(-21.5,25.,8.00000000000001));
#210=DIRECTION('',(1.,-1.04899068466779E-15,-6.16297582203915E-32));
#211=DIRECTION('',(2.60239599529847E-33,6.12323399573677E-17,-1.));
#212=FACE_OUTER_BOUND('',#213,.T.);
#213=EDGE_LOOP('',(#291));
#214=FACE_OUTER_BOUND('',#215,.T.);
#215=EDGE_LOOP('',(#292));
#216=CYLINDRICAL_SURFACE('',#217,1.);
#217=AXIS2_PLACEMENT_3D('',#218,#219,#220);
#218=CARTESIAN_POINT('',(-21.5,25.,-7.99999999999999));
#219=DIRECTION('',(1.,-1.04899068466779E-15,-6.16297582203915E-32));
#220=DIRECTION('',(2.60239599529847E-33,6.12323399573677E-17,-1.));
#221=ORIENTED_EDGE('',*,*,#293,.T.);
#222=ORIENTED_EDGE('',*,*,#294,.T.);
#223=ORIENTED_EDGE('',*,*,#295,.T.);
#224=ORIENTED_EDGE('',*,*,#296,.T.);
#225=ORIENTED_EDGE('',*,*,#297,.T.);
#226=ORIENTED_EDGE('',*,*,#298,.T.);
#227=ORIENTED_EDGE('',*,*,#299,.F.);
#228=ORIENTED_EDGE('',*,*,#300,.F.);
#229=ORIENTED_EDGE('',*,*,#301,.T.);
#230=ORIENTED_EDGE('',*,*,#302,.F.);
#231=ORIENTED_EDGE('',*,*,#303,.T.);
#232=ORIENTED_EDGE('',*,*,#304,.T.);
#233=ORIENTED_EDGE('',*,*,#298,.F.);
#234=ORIENTED_EDGE('',*,*,#304,.F.);
#235=ORIENTED_EDGE('',*,*,#297,.F.);
#236=ORIENTED_EDGE('',*,*,#303,.F.);
#237=ORIENTED_EDGE('',*,*,#302,.T.);
#238=ORIENTED_EDGE('',*,*,#305,.T.);
#239=ORIENTED_EDGE('',*,*,#293,.F.);
#240=ORIENTED_EDGE('',*,*,#306,.F.);
#241=ORIENTED_EDGE('',*,*,#307,.T.);
#242=ORIENTED_EDGE('',*,*,#308,.T.);
#243=ORIENTED_EDGE('',*,*,#294,.F.);
#244=ORIENTED_EDGE('',*,*,#309,.T.);
#245=ORIENTED_EDGE('',*,*,#300,.T.);
#246=ORIENTED_EDGE('',*,*,#310,.T.);
#247=ORIENTED_EDGE('',*,*,#295,.F.);
#248=ORIENTED_EDGE('',*,*,#311,.T.);
#249=ORIENTED_EDGE('',*,*,#299,.T.);
#250=ORIENTED_EDGE('',*,*,#306,.T.);
#251=ORIENTED_EDGE('',*,*,#296,.F.);
#252=ORIENTED_EDGE('',*,*,#310,.F.);
#253=ORIENTED_EDGE('',*,*,#312,.F.);
#254=ORIENTED_EDGE('',*,*,#313,.F.);
#255=ORIENTED_EDGE('',*,*,#301,.F.);
#256=ORIENTED_EDGE('',*,*,#314,.F.);
#257=ORIENTED_EDGE('',*,*,#309,.F.);
#258=ORIENTED_EDGE('',*,*,#305,.F.);
#259=ORIENTED_EDGE('',*,*,#313,.T.);
#260=ORIENTED_EDGE('',*,*,#315,.T.);
#261=ORIENTED_EDGE('',*,*,#307,.F.);
#262=ORIENTED_EDGE('',*,*,#316,.T.);
#263=ORIENTED_EDGE('',*,*,#317,.T.);
#264=ORIENTED_EDGE('',*,*,#318,.T.);
#265=ORIENTED_EDGE('',*,*,#319,.T.);
#266=ORIENTED_EDGE('',*,*,#320,.T.);
#267=ORIENTED_EDGE('',*,*,#308,.F.);
#268=ORIENTED_EDGE('',*,*,#321,.F.);
#269=ORIENTED_EDGE('',*,*,#314,.T.);
#270=ORIENTED_EDGE('',*,*,#311,.F.);
#271=ORIENTED_EDGE('',*,*,#312,.T.);
#272=ORIENTED_EDGE('',*,*,#322,.F.);
#273=ORIENTED_EDGE('',*,*,#323,.F.);
#274=ORIENTED_EDGE('',*,*,#324,.F.);
#275=ORIENTED_EDGE('',*,*,#325,.T.);
#276=ORIENTED_EDGE('',*,*,#326,.T.);
#277=ORIENTED_EDGE('',*,*,#324,.T.);
#278=ORIENTED_EDGE('',*,*,#327,.T.);
#279=ORIENTED_EDGE('',*,*,#316,.F.);
#280=ORIENTED_EDGE('',*,*,#315,.F.);
#281=ORIENTED_EDGE('',*,*,#323,.T.);
#282=ORIENTED_EDGE('',*,*,#328,.T.);
#283=ORIENTED_EDGE('',*,*,#317,.F.);
#284=ORIENTED_EDGE('',*,*,#327,.F.);
#285=ORIENTED_EDGE('',*,*,#322,.T.);
#286=ORIENTED_EDGE('',*,*,#321,.T.);
#287=ORIENTED_EDGE('',*,*,#318,.F.);
#288=ORIENTED_EDGE('',*,*,#328,.F.);
#289=ORIENTED_EDGE('',*,*,#319,.F.);
#290=ORIENTED_EDGE('',*,*,#325,.F.);
#291=ORIENTED_EDGE('',*,*,#320,.F.);
#292=ORIENTED_EDGE('',*,*,#326,.F.);
#293=EDGE_CURVE('',#329,#330,#331,.T.);
#294=EDGE_CURVE('',#330,#332,#333,.T.);
#295=EDGE_CURVE('',#332,#334,#335,.T.);
#296=EDGE_CURVE('',#334,#329,#336,.T.);
#297=EDGE_CURVE('',#337,#337,#338,.F.);
#298=EDGE_CURVE('',#339,#339,#340,.F.);
#299=EDGE_CURVE('',#341,#342,#343,.T.);
#300=EDGE_CURVE('',#344,#341,#345,.T.);
#301=EDGE_CURVE('',#344,#346,#347,.T.);
#302=EDGE_CURVE('',#342,#346,#348,.T.);
#303=EDGE_CURVE('',#349,#349,#350,.T.);
#304=EDGE_CURVE('',#351,#351,#352,.T.);
#305=EDGE_CURVE('',#346,#330,#353,.T.);
#306=EDGE_CURVE('',#342,#329,#354,.T.);
#307=EDGE_CURVE('',#355,#356,#357,.T.);
#308=EDGE_CURVE('',#356,#332,#358,.T.);
#309=EDGE_CURVE('',#330,#355,#359,.T.);
#310=EDGE_CURVE('',#341,#334,#360,.T.);
#311=EDGE_CURVE('',#332,#344,#361,.T.);
#312=EDGE_CURVE('',#362,#363,#364,.T.);
#313=EDGE_CURVE('',#346,#362,#365,.T.);
#314=EDGE_CURVE('',#363,#344,#366,.T.);
#315=EDGE_CURVE('',#362,#355,#367,.T.);
#316=EDGE_CURVE('',#355,#368,#369,.T.);
#317=EDGE_CURVE('',#368,#370,#371,.T.);
#318=EDGE_CURVE('',#370,#356,#372,.T.);
#319=EDGE_CURVE('',#373,#373,#374,.F.);
#320=EDGE_CURVE('',#375,#375,#376,.F.);
#321=EDGE_CURVE('',#363,#356,#377,.T.);
#322=EDGE_CURVE('',#378,#363,#379,.T.);
#323=EDGE_CURVE('',#380,#378,#381,.T.);
#324=EDGE_CURVE('',#362,#380,#382,.T.);
#325=EDGE_CURVE('',#383,#383,#384,.T.);
#326=EDGE_CURVE('',#385,#385,#386,.T.);
#327=EDGE_CURVE('',#380,#368,#387,.T.);
#328=EDGE_CURVE('',#378,#370,#388,.T.);
#329=VERTEX_POINT('',#389);
#330=VERTEX_POINT('',#390);
#331=LINE('',#391,#392);
#332=VERTEX_POINT('',#394);
#333=LINE('',#395,#396);
#334=VERTEX_POINT('',#398);
#335=LINE('',#399,#400);
#336=LINE('',#402,#403);
#337=VERTEX_POINT('',#405);
#338=CIRCLE('',#406,1.5);
#339=VERTEX_POINT('',#410);
#340=CIRCLE('',#411,1.5);
#341=VERTEX_POINT('',#415);
#342=VERTEX_POINT('',#416);
#343=LINE('',#417,#418);
#344=VERTEX_POINT('',#420);
#345=LINE('',#421,#422);
#346=VERTEX_POINT('',#424);
#347=LINE('',#425,#426);
#348=LINE('',#428,#429);
#349=VERTEX_POINT('',#431);
#350=CIRCLE('',#432,1.5);
#351=VERTEX_POINT('',#436);
#352=CIRCLE('',#437,1.5);
#353=LINE('',#441,#442);
#354=LINE('',#444,#445);
#355=VERTEX_POINT('',#447);
#356=VERTEX_POINT('',#448);
#357=LINE('',#449,#450);
#358=CIRCLE('',#452,1.);
#359=CIRCLE('',#456,1.);
#360=LINE('',#460,#461);
#361=LINE('',#463,#464);
#362=VERTEX_POINT('',#466);
#363=VERTEX_POINT('',#467);
#364=LINE('',#468,#469);
#365=CIRCLE('',#471,3.);
#366=CIRCLE('',#475,3.);
#367=LINE('',#479,#480);
#368=VERTEX_POINT('',#482);
#369=LINE('',#483,#484);
#370=VERTEX_POINT('',#486);
#371=LINE('',#487,#488);
#372=LINE('',#490,#491);
#373=VERTEX_POINT('',#493);
#374=CIRCLE('',#494,1.);
#375=VERTEX_POINT('',#498);
#376=CIRCLE('',#499,1.);
#377=LINE('',#503,#504);
#378=VERTEX_POINT('',#506);
#379=LINE('',#507,#508);
#380=VERTEX_POINT('',#510);
#381=LINE('',#511,#512);
#382=LINE('',#514,#515);
#383=VERTEX_POINT('',#517);
#384=CIRCLE('',#518,1.);
#385=VERTEX_POINT('',#522);
#386=CIRCLE('',#523,1.);
#387=LINE('',#527,#528);
#388=LINE('',#530,#531);
#389=CARTESIAN_POINT('',(18.5,2.,-9.99999999999998));
#390=CARTESIAN_POINT('',(-18.5,2.,-9.99999999999998));
#391=CARTESIAN_POINT('',(18.5,2.,-9.99999999999998));
#392=VECTOR('',#393,1.);
#393=DIRECTION('',(-1.,0.,-9.60192886162297E-17));
#394=CARTESIAN_POINT('',(-18.5,2.,9.99999999999998));
#395=CARTESIAN_POINT('',(-18.5,2.,-9.99999999999998));
#396=VECTOR('',#397,1.);
#397=DIRECTION('',(0.,-3.33066907387548E-17,1.));
#398=CARTESIAN_POINT('',(18.5,2.,9.99999999999998));
#399=CARTESIAN_POINT('',(-18.5,2.,9.99999999999998));
#400=VECTOR('',#401,1.);
#401=DIRECTION('',(1.,0.,9.60192886162297E-17));
#402=CARTESIAN_POINT('',(18.5,2.,9.99999999999998));
#403=VECTOR('',#404,1.);
#404=DIRECTION('',(0.,3.33066907387548E-17,-1.));
#405=CARTESIAN_POINT('',(-8.5,2.,3.5));
#406=AXIS2_PLACEMENT_3D('',#407,#408,#409);
#407=CARTESIAN_POINT('',(-8.5,2.,5.));
#408=DIRECTION('',(0.,1.,6.12323399573677E-17));
#409=DIRECTION('',(6.12323399573676E-17,6.12323399573677E-17,-1.));
#410=CARTESIAN_POINT('',(2.5,2.,3.5));
#411=AXIS2_PLACEMENT_3D('',#412,#413,#414);
#412=CARTESIAN_POINT('',(2.5,2.,5.));
#413=DIRECTION('',(0.,1.,6.12323399573677E-17));
#414=DIRECTION('',(6.12323399573676E-17,6.12323399573677E-17,-1.));
#415=CARTESIAN_POINT('',(18.5,-6.12323399573675E-16,9.99999999999998));
#416=CARTESIAN_POINT('',(18.5,6.12323399573675E-16,-9.99999999999998));
#417=CARTESIAN_POINT('',(18.5,-6.12323399573675E-16,9.99999999999998));
#418=VECTOR('',#419,1.);
#419=DIRECTION('',(0.,6.12323399573677E-17,-1.));
#420=CARTESIAN_POINT('',(-18.5,-6.12323399573675E-16,9.99999999999998));
#421=CARTESIAN_POINT('',(-18.5,-6.12323399573675E-16,9.99999999999998));
#422=VECTOR('',#423,1.);
#423=DIRECTION('',(1.,-7.99521187723998E-33,9.60192886162297E-17));
#424=CARTESIAN_POINT('',(-18.5,6.12323399573675E-16,-9.99999999999998));
#425=CARTESIAN_POINT('',(-18.5,-7.502509096369E-16,9.99999999999998));
#426=VECTOR('',#427,1.);
#427=DIRECTION('',(0.,6.39228607174386E-17,-1.));
#428=CARTESIAN_POINT('',(18.5,6.12323399573675E-16,-9.99999999999998));
#429=VECTOR('',#430,1.);
#430=DIRECTION('',(-1.,5.33014125149332E-33,-9.60192886162297E-17));
#431=CARTESIAN_POINT('',(-8.5,-2.14313189850787E-16,3.5));
#432=AXIS2_PLACEMENT_3D('',#433,#434,#435);
#433=CARTESIAN_POINT('',(-8.5,-3.06161699786838E-16,5.));
#434=DIRECTION('',(0.,1.,6.12323399573677E-17));
#435=DIRECTION('',(6.12323399573676E-17,6.12323399573677E-17,-1.));
#436=CARTESIAN_POINT('',(2.5,-2.14313189850787E-16,3.5));
#437=AXIS2_PLACEMENT_3D('',#438,#439,#440);
#438=CARTESIAN_POINT('',(2.5,-3.06161699786838E-16,5.));
#439=DIRECTION('',(0.,1.,6.12323399573677E-17));
#440=DIRECTION('',(6.12323399573676E-17,6.12323399573677E-17,-1.));
#441=CARTESIAN_POINT('',(-18.5,4.47800172228036E-16,-9.99999999999998));
#442=VECTOR('',#443,1.);
#443=DIRECTION('',(0.,1.,0.));
#444=CARTESIAN_POINT('',(18.5,6.12323399573675E-16,-9.99999999999998));
#445=VECTOR('',#446,1.);
#446=DIRECTION('',(0.,1.,0.));
#447=CARTESIAN_POINT('',(-19.5,3.,-9.99999999999998));
#448=CARTESIAN_POINT('',(-19.5,3.,9.99999999999998));
#449=CARTESIAN_POINT('',(-19.5,3.,-9.99999999999998));
#450=VECTOR('',#451,1.);
#451=DIRECTION('',(0.,0.,1.));
#452=AXIS2_PLACEMENT_3D('',#453,#454,#455);
#453=CARTESIAN_POINT('',(-18.5,3.,9.99999999999998));
#454=DIRECTION('',(0.,0.,1.));
#455=DIRECTION('',(-1.,0.,0.));
#456=AXIS2_PLACEMENT_3D('',#457,#458,#459);
#457=CARTESIAN_POINT('',(-18.5,3.,-9.99999999999998));
#458=DIRECTION('',(0.,0.,-1.));
#459=DIRECTION('',(0.,-1.,0.));
#460=CARTESIAN_POINT('',(18.5,-6.12323399573676E-16,9.99999999999998));
#461=VECTOR('',#462,1.);
#462=DIRECTION('',(0.,1.,0.));
#463=CARTESIAN_POINT('',(-18.5,2.,9.99999999999998));
#464=VECTOR('',#465,1.);
#465=DIRECTION('',(0.,-1.,0.));
#466=CARTESIAN_POINT('',(-21.5,3.,-9.99999999999998));
#467=CARTESIAN_POINT('',(-21.5,3.,9.99999999999998));
#468=CARTESIAN_POINT('',(-21.5,3.,-9.99999999999998));
#469=VECTOR('',#470,1.);
#470=DIRECTION('',(0.,-2.22044604925032E-17,1.));
#471=AXIS2_PLACEMENT_3D('',#472,#473,#474);
#472=CARTESIAN_POINT('',(-18.5,3.,-9.99999999999998));
#473=DIRECTION('',(0.,0.,-1.));
#474=DIRECTION('',(-1.1842378929335E-15,-1.,0.));
#475=AXIS2_PLACEMENT_3D('',#476,#477,#478);
#476=CARTESIAN_POINT('',(-18.5,3.,9.99999999999998));
#477=DIRECTION('',(0.,0.,1.));
#478=DIRECTION('',(-1.,0.,0.));
#479=CARTESIAN_POINT('',(-21.5,3.,-9.99999999999998));
#480=VECTOR('',#481,1.);
#481=DIRECTION('',(1.,-1.11022302462516E-15,0.));
#482=CARTESIAN_POINT('',(-19.5,28.,-9.99999999999998));
#483=CARTESIAN_POINT('',(-19.5,3.,-9.99999999999998));
#484=VECTOR('',#485,1.);
#485=DIRECTION('',(1.13686837721616E-15,1.,1.4210854715202E-16));
#486=CARTESIAN_POINT('',(-19.5,28.,9.99999999999998));
#487=CARTESIAN_POINT('',(-19.5,28.,-9.99999999999998));
#488=VECTOR('',#489,1.);
#489=DIRECTION('',(0.,0.,1.));
#490=CARTESIAN_POINT('',(-19.5,28.,9.99999999999998));
#491=VECTOR('',#492,1.);
#492=DIRECTION('',(-1.13686837721616E-15,-1.,-1.4210854715202E-16));
#493=CARTESIAN_POINT('',(-19.5,25.,7.00000000000001));
#494=AXIS2_PLACEMENT_3D('',#495,#496,#497);
#495=CARTESIAN_POINT('',(-19.5,25.,8.00000000000001));
#496=DIRECTION('',(1.,-1.04899068466779E-15,-6.16297582203915E-32));
#497=DIRECTION('',(1.29298084543038E-47,6.12323399573677E-17,-1.));
#498=CARTESIAN_POINT('',(-19.5,25.,-8.99999999999999));
#499=AXIS2_PLACEMENT_3D('',#500,#501,#502);
#500=CARTESIAN_POINT('',(-19.5,25.,-7.99999999999999));
#501=DIRECTION('',(1.,-1.04899068466779E-15,-6.16297582203915E-32));
#502=DIRECTION('',(1.29298084543038E-47,6.12323399573677E-17,-1.));
#503=CARTESIAN_POINT('',(-21.5,3.,9.99999999999998));
#504=VECTOR('',#505,1.);
#505=DIRECTION('',(1.,-8.88178419700125E-16,0.));
#506=CARTESIAN_POINT('',(-21.5,28.,9.99999999999998));
#507=CARTESIAN_POINT('',(-21.5,28.,9.99999999999998));
#508=VECTOR('',#509,1.);
#509=DIRECTION('',(-1.13686837721616E-15,-1.,-1.4210854715202E-16));
#510=CARTESIAN_POINT('',(-21.5,28.,-9.99999999999998));
#511=CARTESIAN_POINT('',(-21.5,28.,-9.99999999999998));
#512=VECTOR('',#513,1.);
#513=DIRECTION('',(0.,-1.77635683940025E-16,1.));
#514=CARTESIAN_POINT('',(-21.5,3.,-9.99999999999998));
#515=VECTOR('',#516,1.);
#516=DIRECTION('',(1.13686837721616E-15,1.,1.4210854715202E-16));
#517=CARTESIAN_POINT('',(-21.5,25.,7.00000000000001));
#518=AXIS2_PLACEMENT_3D('',#519,#520,#521);
#519=CARTESIAN_POINT('',(-21.5,25.,8.00000000000001));
#520=DIRECTION('',(1.,-1.04899068466779E-15,-6.16297582203915E-32));
#521=DIRECTION('',(1.29298084543038E-47,6.12323399573677E-17,-1.));
#522=CARTESIAN_POINT('',(-21.5,25.,-8.99999999999999));
#523=AXIS2_PLACEMENT_3D('',#524,#525,#526);
#524=CARTESIAN_POINT('',(-21.5,25.,-7.99999999999999));
#525=DIRECTION('',(1.,-1.04899068466779E-15,-6.16297582203915E-32));
#526=DIRECTION('',(1.29298084543038E-47,6.12323399573677E-17,-1.));
#527=CARTESIAN_POINT('',(-21.5,28.,-9.99999999999998));
#528=VECTOR('',#529,1.);
#529=DIRECTION('',(1.,-1.77635683940025E-15,0.));
#530=CARTESIAN_POINT('',(-21.5,28.,9.99999999999998));
#531=VECTOR('',#532,1.);
#532=DIRECTION('',(1.,0.,0.));
ENDSEC;
END-ISO-10303-21;
