ISO-10303-21;
HEADER;
FILE_DESCRIPTION(('STEP AP203'),
    '1');
FILE_NAME('Кронштейн тумблера',
    '',
    ('UNSPECIFIED'),
    ('UNSPECIFIED'),
    'C3D Converter',
    'C3D Toolkit',
    '');
FILE_SCHEMA(('CONFIG_CONTROL_DESIGN'));
ENDSEC;

DATA;
#1=PRODUCT_DEFINITION('','UNSPECIFIED',#28,#31);
#2=SHAPE_DEFINITION_REPRESENTATION(#26,#3);
#3=SHAPE_REPRESENTATION('NONE',(#4),#8);
#4=AXIS2_PLACEMENT_3D('',#5,#6,#7);
#5=CARTESIAN_POINT('',(0.,0.,0.));
#6=DIRECTION('',(0.,0.,1.));
#7=DIRECTION('',(1.,0.,0.));
#8=(GEOMETRIC_REPRESENTATION_CONTEXT(3)GLOBAL_UNCERTAINTY_ASSIGNED_CONTEXT((#10))
GLOBAL_UNIT_ASSIGNED_CONTEXT((#9,#11,#12))REPRESENTATION_CONTEXT('NONE','NONE'));
#9=(LENGTH_UNIT()NAMED_UNIT(*)SI_UNIT(.MILLI.,.METRE.));
#10=UNCERTAINTY_MEASURE_WITH_UNIT(LENGTH_MEASURE(1.E-5),#9,'NONE','NONE');
#11=(NAMED_UNIT(*)PLANE_ANGLE_UNIT()SI_UNIT($,.RADIAN.));
#12=(NAMED_UNIT(*)SI_UNIT($,.STERADIAN.)SOLID_ANGLE_UNIT());
#13=MANIFOLD_SOLID_BREP('',#14);
#14=CLOSED_SHELL('',(#53,#54,#55,#56,#57,#58,#59,#60,#61,#62,#63,#64,#65,#66,#67,
#68,#69));
#15=COLOUR_RGB('',0.564705882352941,0.564705882352941,0.564705882352941);
#16=FILL_AREA_STYLE_COLOUR('',#15);
#17=FILL_AREA_STYLE($,(#16));
#18=SURFACE_STYLE_FILL_AREA(#17);
#19=SURFACE_SIDE_STYLE('',(#18));
#20=SURFACE_STYLE_USAGE(.BOTH.,#19);
#21=PRESENTATION_STYLE_ASSIGNMENT((#20));
#22=MECHANICAL_DESIGN_GEOMETRIC_PRESENTATION_REPRESENTATION('NONE',(#23),#8);
#23=STYLED_ITEM('',(#21),#13);
#24=ADVANCED_BREP_SHAPE_REPRESENTATION('NONE',(#13),#8);
#25=SHAPE_REPRESENTATION_RELATIONSHIP('','',#3,#24);
#26=PRODUCT_DEFINITION_SHAPE('NONE','NONE',#1);
#27=MECHANICAL_CONTEXT('NONE',#32,'mechanical');
#28=PRODUCT_DEFINITION_FORMATION_WITH_SPECIFIED_SOURCE('ANY','UNSPECIFIED',#29,.NOT_KNOWN.);
#29=PRODUCT('','\X2\0414043504420430043B044C\X0\','NONE',(#27));
#30=PRODUCT_RELATED_PRODUCT_CATEGORY('detail','',(#29));
#31=DESIGN_CONTEXT('detailed design',#32,'design');
#32=APPLICATION_CONTEXT('configuration controlled 3d designs of mechanical parts and assemblies');
#33=APPLICATION_PROTOCOL_DEFINITION('international standard','config_control_design',
1994,#32);
#34=CC_DESIGN_DATE_AND_TIME_ASSIGNMENT(#35,#39,(#1));
#35=DATE_AND_TIME(#36,#37);
#36=CALENDAR_DATE(0,1,1);
#37=LOCAL_TIME(0,0,0.,#38);
#38=COORDINATED_UNIVERSAL_TIME_OFFSET(0,0,.AHEAD.);
#39=DATE_TIME_ROLE('creation_date');
#40=CC_DESIGN_APPROVAL(#41,(#1));
#41=APPROVAL(#42,'UNSPECIFIED');
#42=APPROVAL_STATUS('not_yet_approved');
#43=APPROVAL_DATE_TIME(#44,#41);
#44=DATE_AND_TIME(#45,#46);
#45=CALENDAR_DATE(0,1,1);
#46=LOCAL_TIME(0,0,0.,#47);
#47=COORDINATED_UNIVERSAL_TIME_OFFSET(0,0,.AHEAD.);
#48=PERSON('UNSPECIFIED','Nik','UNSPECIFIED',('UNSPECIFIED'),('UNSPECIFIED'),('UNSPECIFIED'));
#49=ORGANIZATION('UNSPECIFIED','UNSPECIFIED','UNSPECIFIED');
#50=PERSON_AND_ORGANIZATION(#48,#49);
#51=PERSON_AND_ORGANIZATION_ROLE('creator');
#52=CC_DESIGN_PERSON_AND_ORGANIZATION_ASSIGNMENT(#50,#51,(#28,#1));
#53=ADVANCED_FACE('',(#70,#72,#74),#76,.T.);
#54=ADVANCED_FACE('',(#81,#83,#85),#87,.F.);
#55=ADVANCED_FACE('',(#92,#94),#96,.F.);
#56=ADVANCED_FACE('',(#101,#103),#105,.F.);
#57=ADVANCED_FACE('',(#110),#112,.T.);
#58=ADVANCED_FACE('',(#117),#119,.F.);
#59=ADVANCED_FACE('',(#124),#126,.T.);
#60=ADVANCED_FACE('',(#131),#133,.T.);
#61=ADVANCED_FACE('',(#138),#140,.T.);
#62=ADVANCED_FACE('',(#145),#147,.T.);
#63=ADVANCED_FACE('',(#152,#154),#156,.T.);
#64=ADVANCED_FACE('',(#161),#163,.T.);
#65=ADVANCED_FACE('',(#168,#170),#172,.F.);
#66=ADVANCED_FACE('',(#177),#179,.T.);
#67=ADVANCED_FACE('',(#184),#186,.T.);
#68=ADVANCED_FACE('',(#191),#193,.T.);
#69=ADVANCED_FACE('',(#198,#200),#202,.F.);
#70=FACE_BOUND('',#71,.T.);
#71=EDGE_LOOP('',(#207,#208,#209,#210));
#72=FACE_BOUND('',#73,.T.);
#73=EDGE_LOOP('',(#211));
#74=FACE_BOUND('',#75,.T.);
#75=EDGE_LOOP('',(#212));
#76=PLANE('',#77);
#77=AXIS2_PLACEMENT_3D('',#78,#79,#80);
#78=CARTESIAN_POINT('',(0.,2.,1.22464679914735E-16));
#79=DIRECTION('',(0.,1.,6.12323399573677E-17));
#80=DIRECTION('',(6.12323399573677E-17,6.12323399573677E-17,-1.));
#81=FACE_BOUND('',#82,.T.);
#82=EDGE_LOOP('',(#213,#214,#215,#216));
#83=FACE_BOUND('',#84,.T.);
#84=EDGE_LOOP('',(#217));
#85=FACE_BOUND('',#86,.T.);
#86=EDGE_LOOP('',(#218));
#87=PLANE('',#88);
#88=AXIS2_PLACEMENT_3D('',#89,#90,#91);
#89=CARTESIAN_POINT('',(0.,0.,0.));
#90=DIRECTION('',(0.,1.,6.12323399573677E-17));
#91=DIRECTION('',(6.12323399573677E-17,6.12323399573677E-17,-1.));
#92=FACE_OUTER_BOUND('',#93,.T.);
#93=EDGE_LOOP('',(#219));
#94=FACE_OUTER_BOUND('',#95,.T.);
#95=EDGE_LOOP('',(#220));
#96=CYLINDRICAL_SURFACE('',#97,1.5);
#97=AXIS2_PLACEMENT_3D('',#98,#99,#100);
#98=CARTESIAN_POINT('',(1.40875900305761E-15,3.67394039744206E-16,-6.));
#99=DIRECTION('',(0.,1.,6.12323399573677E-17));
#100=DIRECTION('',(6.12323399573676E-17,6.12323399573676E-17,-1.));
#101=FACE_OUTER_BOUND('',#102,.T.);
#102=EDGE_LOOP('',(#221));
#103=FACE_OUTER_BOUND('',#104,.T.);
#104=EDGE_LOOP('',(#222));
#105=CYLINDRICAL_SURFACE('',#106,1.5);
#106=AXIS2_PLACEMENT_3D('',#107,#108,#109);
#107=CARTESIAN_POINT('',(6.73970923569201E-16,-3.67394039744206E-16,6.));
#108=DIRECTION('',(0.,1.,6.12323399573677E-17));
#109=DIRECTION('',(6.12323399573676E-17,6.12323399573676E-17,-1.));
#110=FACE_BOUND('',#111,.T.);
#111=EDGE_LOOP('',(#223,#224,#225,#226));
#112=PLANE('',#113);
#113=AXIS2_PLACEMENT_3D('',#114,#115,#116);
#114=CARTESIAN_POINT('',(10.,6.12323399573677E-16,-10.));
#115=DIRECTION('',(0.,0.,-1.));
#116=DIRECTION('',(-1.,0.,0.));
#117=FACE_BOUND('',#118,.T.);
#118=EDGE_LOOP('',(#227,#228,#229,#230));
#119=CYLINDRICAL_SURFACE('',#120,1.);
#120=AXIS2_PLACEMENT_3D('',#121,#122,#123);
#121=CARTESIAN_POINT('',(-10.,3.,10.));
#122=DIRECTION('',(0.,0.,1.));
#123=DIRECTION('',(0.,-1.,0.));
#124=FACE_BOUND('',#125,.T.);
#125=EDGE_LOOP('',(#231,#232,#233,#234));
#126=PLANE('',#127);
#127=AXIS2_PLACEMENT_3D('',#128,#129,#130);
#128=CARTESIAN_POINT('',(-10.,-6.12323399573677E-16,10.));
#129=DIRECTION('',(0.,0.,1.));
#130=DIRECTION('',(1.,0.,0.));
#131=FACE_BOUND('',#132,.T.);
#132=EDGE_LOOP('',(#235,#236,#237,#238));
#133=PLANE('',#134);
#134=AXIS2_PLACEMENT_3D('',#135,#136,#137);
#135=CARTESIAN_POINT('',(10.,-6.12323399573677E-16,10.));
#136=DIRECTION('',(1.,0.,0.));
#137=DIRECTION('',(0.,6.12323399573677E-17,-1.));
#138=FACE_BOUND('',#139,.T.);
#139=EDGE_LOOP('',(#239,#240,#241,#242));
#140=CYLINDRICAL_SURFACE('',#141,3.);
#141=AXIS2_PLACEMENT_3D('',#142,#143,#144);
#142=CARTESIAN_POINT('',(-10.,3.,-10.));
#143=DIRECTION('',(0.,6.12323399573677E-17,-1.));
#144=DIRECTION('',(0.,-1.,-6.12323399573677E-17));
#145=FACE_BOUND('',#146,.T.);
#146=EDGE_LOOP('',(#243,#244,#245,#246));
#147=PLANE('',#148);
#148=AXIS2_PLACEMENT_3D('',#149,#150,#151);
#149=CARTESIAN_POINT('',(-11.,3.,-10.));
#150=DIRECTION('',(1.77635683940025E-15,1.08770485875751E-31,-1.));
#151=DIRECTION('',(6.12323399573677E-17,-1.,0.));
#152=FACE_BOUND('',#153,.T.);
#153=EDGE_LOOP('',(#247,#248,#249,#250));
#154=FACE_BOUND('',#155,.T.);
#155=EDGE_LOOP('',(#251));
#156=PLANE('',#157);
#157=AXIS2_PLACEMENT_3D('',#158,#159,#160);
#158=CARTESIAN_POINT('',(-11.,-9.82743338823081,0.));
#159=DIRECTION('',(1.,6.12323399573677E-17,0.));
#160=DIRECTION('',(-1.23259516440783E-32,6.12323399573677E-17,-1.));
#161=FACE_BOUND('',#162,.T.);
#162=EDGE_LOOP('',(#252,#253,#254,#255));
#163=PLANE('',#164);
#164=AXIS2_PLACEMENT_3D('',#165,#166,#167);
#165=CARTESIAN_POINT('',(-10.,2.,10.));
#166=DIRECTION('',(0.,-1.77635683940025E-15,1.));
#167=DIRECTION('',(-1.,0.,0.));
#168=FACE_BOUND('',#169,.T.);
#169=EDGE_LOOP('',(#256,#257,#258,#259));
#170=FACE_BOUND('',#171,.T.);
#171=EDGE_LOOP('',(#260));
#172=PLANE('',#173);
#173=AXIS2_PLACEMENT_3D('',#174,#175,#176);
#174=CARTESIAN_POINT('',(-13.,-9.82743338823081,0.));
#175=DIRECTION('',(1.,6.12323399573677E-17,0.));
#176=DIRECTION('',(-1.23259516440783E-32,6.12323399573677E-17,-1.));
#177=FACE_BOUND('',#178,.T.);
#178=EDGE_LOOP('',(#261,#262,#263,#264));
#179=PLANE('',#180);
#180=AXIS2_PLACEMENT_3D('',#181,#182,#183);
#181=CARTESIAN_POINT('',(-13.,3.,-10.));
#182=DIRECTION('',(-6.12323399573677E-17,4.52317738538549E-17,-1.));
#183=DIRECTION('',(-6.12323399573677E-17,1.,4.52317738538549E-17));
#184=FACE_BOUND('',#185,.T.);
#185=EDGE_LOOP('',(#265,#266,#267,#268));
#186=CYLINDRICAL_SURFACE('',#187,10.);
#187=AXIS2_PLACEMENT_3D('',#188,#189,#190);
#188=CARTESIAN_POINT('',(-13.,16.,4.53243111811838E-15));
#189=DIRECTION('',(-1.,-6.12323399573677E-17,0.));
#190=DIRECTION('',(3.74939945665465E-33,-6.12323399573677E-17,1.));
#191=FACE_BOUND('',#192,.T.);
#192=EDGE_LOOP('',(#269,#270,#271,#272));
#193=PLANE('',#194);
#194=AXIS2_PLACEMENT_3D('',#195,#196,#197);
#195=CARTESIAN_POINT('',(-13.,26.,10.));
#196=DIRECTION('',(6.12323399573677E-17,-4.52317738538549E-17,1.));
#197=DIRECTION('',(6.12323399573677E-17,-1.,-4.52317738538549E-17));
#198=FACE_OUTER_BOUND('',#199,.T.);
#199=EDGE_LOOP('',(#273));
#200=FACE_OUTER_BOUND('',#201,.T.);
#201=EDGE_LOOP('',(#274));
#202=CYLINDRICAL_SURFACE('',#203,2.5);
#203=AXIS2_PLACEMENT_3D('',#204,#205,#206);
#204=CARTESIAN_POINT('',(-13.,16.,4.53243111811838E-15));
#205=DIRECTION('',(1.,6.12323399573677E-17,0.));
#206=DIRECTION('',(-3.74939945665465E-33,6.12323399573677E-17,-1.));
#207=ORIENTED_EDGE('',*,*,#275,.T.);
#208=ORIENTED_EDGE('',*,*,#276,.T.);
#209=ORIENTED_EDGE('',*,*,#277,.T.);
#210=ORIENTED_EDGE('',*,*,#278,.T.);
#211=ORIENTED_EDGE('',*,*,#279,.T.);
#212=ORIENTED_EDGE('',*,*,#280,.T.);
#213=ORIENTED_EDGE('',*,*,#281,.F.);
#214=ORIENTED_EDGE('',*,*,#282,.F.);
#215=ORIENTED_EDGE('',*,*,#283,.T.);
#216=ORIENTED_EDGE('',*,*,#284,.F.);
#217=ORIENTED_EDGE('',*,*,#285,.T.);
#218=ORIENTED_EDGE('',*,*,#286,.T.);
#219=ORIENTED_EDGE('',*,*,#280,.F.);
#220=ORIENTED_EDGE('',*,*,#286,.F.);
#221=ORIENTED_EDGE('',*,*,#279,.F.);
#222=ORIENTED_EDGE('',*,*,#285,.F.);
#223=ORIENTED_EDGE('',*,*,#284,.T.);
#224=ORIENTED_EDGE('',*,*,#287,.T.);
#225=ORIENTED_EDGE('',*,*,#275,.F.);
#226=ORIENTED_EDGE('',*,*,#288,.F.);
#227=ORIENTED_EDGE('',*,*,#289,.T.);
#228=ORIENTED_EDGE('',*,*,#290,.T.);
#229=ORIENTED_EDGE('',*,*,#276,.F.);
#230=ORIENTED_EDGE('',*,*,#291,.T.);
#231=ORIENTED_EDGE('',*,*,#282,.T.);
#232=ORIENTED_EDGE('',*,*,#292,.T.);
#233=ORIENTED_EDGE('',*,*,#277,.F.);
#234=ORIENTED_EDGE('',*,*,#293,.T.);
#235=ORIENTED_EDGE('',*,*,#281,.T.);
#236=ORIENTED_EDGE('',*,*,#288,.T.);
#237=ORIENTED_EDGE('',*,*,#278,.F.);
#238=ORIENTED_EDGE('',*,*,#292,.F.);
#239=ORIENTED_EDGE('',*,*,#294,.F.);
#240=ORIENTED_EDGE('',*,*,#295,.F.);
#241=ORIENTED_EDGE('',*,*,#283,.F.);
#242=ORIENTED_EDGE('',*,*,#296,.F.);
#243=ORIENTED_EDGE('',*,*,#291,.F.);
#244=ORIENTED_EDGE('',*,*,#287,.F.);
#245=ORIENTED_EDGE('',*,*,#295,.T.);
#246=ORIENTED_EDGE('',*,*,#297,.T.);
#247=ORIENTED_EDGE('',*,*,#298,.T.);
#248=ORIENTED_EDGE('',*,*,#299,.T.);
#249=ORIENTED_EDGE('',*,*,#289,.F.);
#250=ORIENTED_EDGE('',*,*,#300,.T.);
#251=ORIENTED_EDGE('',*,*,#301,.T.);
#252=ORIENTED_EDGE('',*,*,#290,.F.);
#253=ORIENTED_EDGE('',*,*,#302,.F.);
#254=ORIENTED_EDGE('',*,*,#296,.T.);
#255=ORIENTED_EDGE('',*,*,#293,.F.);
#256=ORIENTED_EDGE('',*,*,#303,.F.);
#257=ORIENTED_EDGE('',*,*,#294,.T.);
#258=ORIENTED_EDGE('',*,*,#304,.F.);
#259=ORIENTED_EDGE('',*,*,#305,.T.);
#260=ORIENTED_EDGE('',*,*,#306,.T.);
#261=ORIENTED_EDGE('',*,*,#307,.T.);
#262=ORIENTED_EDGE('',*,*,#300,.F.);
#263=ORIENTED_EDGE('',*,*,#297,.F.);
#264=ORIENTED_EDGE('',*,*,#303,.T.);
#265=ORIENTED_EDGE('',*,*,#308,.F.);
#266=ORIENTED_EDGE('',*,*,#298,.F.);
#267=ORIENTED_EDGE('',*,*,#307,.F.);
#268=ORIENTED_EDGE('',*,*,#305,.F.);
#269=ORIENTED_EDGE('',*,*,#308,.T.);
#270=ORIENTED_EDGE('',*,*,#304,.T.);
#271=ORIENTED_EDGE('',*,*,#302,.T.);
#272=ORIENTED_EDGE('',*,*,#299,.F.);
#273=ORIENTED_EDGE('',*,*,#301,.F.);
#274=ORIENTED_EDGE('',*,*,#306,.F.);
#275=EDGE_CURVE('',#309,#310,#311,.T.);
#276=EDGE_CURVE('',#310,#312,#313,.T.);
#277=EDGE_CURVE('',#312,#314,#315,.T.);
#278=EDGE_CURVE('',#314,#309,#316,.T.);
#279=EDGE_CURVE('',#317,#317,#318,.F.);
#280=EDGE_CURVE('',#319,#319,#320,.F.);
#281=EDGE_CURVE('',#321,#322,#323,.T.);
#282=EDGE_CURVE('',#324,#321,#325,.T.);
#283=EDGE_CURVE('',#324,#326,#327,.T.);
#284=EDGE_CURVE('',#322,#326,#328,.T.);
#285=EDGE_CURVE('',#329,#329,#330,.T.);
#286=EDGE_CURVE('',#331,#331,#332,.T.);
#287=EDGE_CURVE('',#326,#310,#333,.T.);
#288=EDGE_CURVE('',#322,#309,#334,.T.);
#289=EDGE_CURVE('',#335,#336,#337,.T.);
#290=EDGE_CURVE('',#336,#312,#338,.T.);
#291=EDGE_CURVE('',#310,#335,#339,.T.);
#292=EDGE_CURVE('',#321,#314,#340,.T.);
#293=EDGE_CURVE('',#312,#324,#341,.T.);
#294=EDGE_CURVE('',#342,#343,#344,.T.);
#295=EDGE_CURVE('',#326,#342,#345,.T.);
#296=EDGE_CURVE('',#343,#324,#346,.T.);
#297=EDGE_CURVE('',#342,#335,#347,.T.);
#298=EDGE_CURVE('',#348,#349,#350,.F.);
#299=EDGE_CURVE('',#349,#336,#351,.T.);
#300=EDGE_CURVE('',#335,#348,#352,.T.);
#301=EDGE_CURVE('',#353,#353,#354,.F.);
#302=EDGE_CURVE('',#343,#336,#355,.T.);
#303=EDGE_CURVE('',#342,#356,#357,.T.);
#304=EDGE_CURVE('',#358,#343,#359,.T.);
#305=EDGE_CURVE('',#358,#356,#360,.T.);
#306=EDGE_CURVE('',#361,#361,#362,.T.);
#307=EDGE_CURVE('',#356,#348,#363,.T.);
#308=EDGE_CURVE('',#349,#358,#364,.F.);
#309=VERTEX_POINT('',#365);
#310=VERTEX_POINT('',#366);
#311=LINE('',#367,#368);
#312=VERTEX_POINT('',#370);
#313=LINE('',#371,#372);
#314=VERTEX_POINT('',#374);
#315=LINE('',#375,#376);
#316=LINE('',#378,#379);
#317=VERTEX_POINT('',#381);
#318=CIRCLE('',#382,1.5);
#319=VERTEX_POINT('',#386);
#320=CIRCLE('',#387,1.5);
#321=VERTEX_POINT('',#391);
#322=VERTEX_POINT('',#392);
#323=LINE('',#393,#394);
#324=VERTEX_POINT('',#396);
#325=LINE('',#397,#398);
#326=VERTEX_POINT('',#400);
#327=LINE('',#401,#402);
#328=LINE('',#404,#405);
#329=VERTEX_POINT('',#407);
#330=CIRCLE('',#408,1.5);
#331=VERTEX_POINT('',#412);
#332=CIRCLE('',#413,1.5);
#333=LINE('',#417,#418);
#334=LINE('',#420,#421);
#335=VERTEX_POINT('',#423);
#336=VERTEX_POINT('',#424);
#337=LINE('',#425,#426);
#338=CIRCLE('',#428,1.);
#339=CIRCLE('',#432,1.);
#340=LINE('',#436,#437);
#341=LINE('',#439,#440);
#342=VERTEX_POINT('',#442);
#343=VERTEX_POINT('',#443);
#344=LINE('',#444,#445);
#345=CIRCLE('',#447,3.);
#346=CIRCLE('',#451,3.);
#347=LINE('',#455,#456);
#348=VERTEX_POINT('',#458);
#349=VERTEX_POINT('',#459);
#350=CIRCLE('',#460,10.);
#351=LINE('',#464,#465);
#352=LINE('',#467,#468);
#353=VERTEX_POINT('',#470);
#354=CIRCLE('',#471,2.5);
#355=LINE('',#475,#476);
#356=VERTEX_POINT('',#478);
#357=LINE('',#479,#480);
#358=VERTEX_POINT('',#482);
#359=LINE('',#483,#484);
#360=CIRCLE('',#486,10.);
#361=VERTEX_POINT('',#490);
#362=CIRCLE('',#491,2.5);
#363=LINE('',#495,#496);
#364=LINE('',#498,#499);
#365=CARTESIAN_POINT('',(10.,2.,-10.));
#366=CARTESIAN_POINT('',(-10.,2.,-10.));
#367=CARTESIAN_POINT('',(10.,2.,-10.));
#368=VECTOR('',#369,1.);
#369=DIRECTION('',(-1.,0.,0.));
#370=CARTESIAN_POINT('',(-10.,2.,10.));
#371=CARTESIAN_POINT('',(-10.,2.,-10.));
#372=VECTOR('',#373,1.);
#373=DIRECTION('',(0.,-3.33066907387547E-17,1.));
#374=CARTESIAN_POINT('',(10.,2.,10.));
#375=CARTESIAN_POINT('',(-10.,2.,10.));
#376=VECTOR('',#377,1.);
#377=DIRECTION('',(1.,0.,0.));
#378=CARTESIAN_POINT('',(10.,2.,10.));
#379=VECTOR('',#380,1.);
#380=DIRECTION('',(0.,3.33066907387547E-17,-1.));
#381=CARTESIAN_POINT('',(9.49516453377356E-16,2.,4.5));
#382=AXIS2_PLACEMENT_3D('',#383,#384,#385);
#383=CARTESIAN_POINT('',(6.73970923569201E-16,2.,6.));
#384=DIRECTION('',(0.,1.,6.12323399573677E-17));
#385=DIRECTION('',(6.12323399573676E-17,6.12323399573677E-17,-1.));
#386=CARTESIAN_POINT('',(1.68430453286577E-15,2.,-7.5));
#387=AXIS2_PLACEMENT_3D('',#388,#389,#390);
#388=CARTESIAN_POINT('',(1.40875900305761E-15,2.,-6.));
#389=DIRECTION('',(0.,1.,6.12323399573677E-17));
#390=DIRECTION('',(6.12323399573676E-17,6.12323399573677E-17,-1.));
#391=CARTESIAN_POINT('',(10.,-6.12323399573677E-16,10.));
#392=CARTESIAN_POINT('',(10.,6.12323399573677E-16,-10.));
#393=CARTESIAN_POINT('',(10.,-6.12323399573677E-16,10.));
#394=VECTOR('',#395,1.);
#395=DIRECTION('',(0.,6.12323399573677E-17,-1.));
#396=CARTESIAN_POINT('',(-10.,-6.12323399573677E-16,10.));
#397=CARTESIAN_POINT('',(-10.,-6.12323399573677E-16,10.));
#398=VECTOR('',#399,1.);
#399=DIRECTION('',(1.,0.,0.));
#400=CARTESIAN_POINT('',(-10.,6.12323399573677E-16,-10.));
#401=CARTESIAN_POINT('',(-10.,-7.50250909636901E-16,10.));
#402=VECTOR('',#403,1.);
#403=DIRECTION('',(0.,6.39228607174385E-17,-1.));
#404=CARTESIAN_POINT('',(10.,6.12323399573677E-16,-10.));
#405=VECTOR('',#406,1.);
#406=DIRECTION('',(-1.,0.,0.));
#407=CARTESIAN_POINT('',(9.49516453377356E-16,-2.75545529808154E-16,4.5));
#408=AXIS2_PLACEMENT_3D('',#409,#410,#411);
#409=CARTESIAN_POINT('',(6.73970923569201E-16,-3.67394039744206E-16,6.));
#410=DIRECTION('',(0.,1.,6.12323399573677E-17));
#411=DIRECTION('',(6.12323399573676E-17,6.12323399573677E-17,-1.));
#412=CARTESIAN_POINT('',(1.68430453286577E-15,4.59242549680257E-16,-7.5));
#413=AXIS2_PLACEMENT_3D('',#414,#415,#416);
#414=CARTESIAN_POINT('',(1.40875900305761E-15,3.67394039744206E-16,-6.));
#415=DIRECTION('',(0.,1.,6.12323399573677E-17));
#416=DIRECTION('',(6.12323399573676E-17,6.12323399573677E-17,-1.));
#417=CARTESIAN_POINT('',(-10.,5.58822474690554E-16,-10.));
#418=VECTOR('',#419,1.);
#419=DIRECTION('',(0.,1.,0.));
#420=CARTESIAN_POINT('',(10.,6.12323399573677E-16,-10.));
#421=VECTOR('',#422,1.);
#422=DIRECTION('',(0.,1.,0.));
#423=CARTESIAN_POINT('',(-11.,3.,-10.));
#424=CARTESIAN_POINT('',(-11.,3.,10.));
#425=CARTESIAN_POINT('',(-11.,3.,-10.));
#426=VECTOR('',#427,1.);
#427=DIRECTION('',(0.,0.,1.));
#428=AXIS2_PLACEMENT_3D('',#429,#430,#431);
#429=CARTESIAN_POINT('',(-10.,3.,10.));
#430=DIRECTION('',(0.,-1.77635683940025E-15,1.));
#431=DIRECTION('',(-1.,0.,0.));
#432=AXIS2_PLACEMENT_3D('',#433,#434,#435);
#433=CARTESIAN_POINT('',(-9.99999999999996,3.,-9.99999999999999));
#434=DIRECTION('',(1.77635683940025E-15,1.08770485875751E-31,-1.));
#435=DIRECTION('',(1.93215196510279E-46,-1.,-1.08770485875751E-31));
#436=CARTESIAN_POINT('',(10.,-6.12323399573677E-16,10.));
#437=VECTOR('',#438,1.);
#438=DIRECTION('',(0.,1.,0.));
#439=CARTESIAN_POINT('',(-10.,2.,10.));
#440=VECTOR('',#441,1.);
#441=DIRECTION('',(0.,-1.,-8.88178419700125E-16));
#442=CARTESIAN_POINT('',(-13.,3.,-10.));
#443=CARTESIAN_POINT('',(-13.,3.,10.));
#444=CARTESIAN_POINT('',(-13.,3.,-10.));
#445=VECTOR('',#446,1.);
#446=DIRECTION('',(0.,-4.44089209850063E-17,1.));
#447=AXIS2_PLACEMENT_3D('',#448,#449,#450);
#448=CARTESIAN_POINT('',(-10.,3.,-9.99999999999999));
#449=DIRECTION('',(1.77635683940025E-15,1.08770485875751E-31,-1.));
#450=DIRECTION('',(1.93215196510279E-46,-1.,-1.08770485875751E-31));
#451=AXIS2_PLACEMENT_3D('',#452,#453,#454);
#452=CARTESIAN_POINT('',(-10.,2.99999999999996,10.));
#453=DIRECTION('',(0.,-1.77635683940025E-15,1.));
#454=DIRECTION('',(-1.,0.,0.));
#455=CARTESIAN_POINT('',(-13.,3.,-10.));
#456=VECTOR('',#457,1.);
#457=DIRECTION('',(1.,-2.22044604925031E-16,1.77635683940025E-15));
#458=CARTESIAN_POINT('',(-11.,16.,-10.));
#459=CARTESIAN_POINT('',(-11.,16.,10.));
#460=AXIS2_PLACEMENT_3D('',#461,#462,#463);
#461=CARTESIAN_POINT('',(-11.,16.,4.53243111811838E-15));
#462=DIRECTION('',(-1.,-6.12323399573677E-17,8.57655218742366E-33));
#463=DIRECTION('',(1.94536007749988E-32,-1.77635683940025E-16,1.));
#464=CARTESIAN_POINT('',(-11.,16.,10.));
#465=VECTOR('',#466,1.);
#466=DIRECTION('',(1.36642833800019E-16,-1.,-1.36642833800019E-16));
#467=CARTESIAN_POINT('',(-11.,3.,-10.));
#468=VECTOR('',#469,1.);
#469=DIRECTION('',(0.,1.,1.36642833800019E-16));
#470=CARTESIAN_POINT('',(-11.,16.,-2.5));
#471=AXIS2_PLACEMENT_3D('',#472,#473,#474);
#472=CARTESIAN_POINT('',(-11.,16.,4.53243111811838E-15));
#473=DIRECTION('',(1.,6.12323399573677E-17,0.));
#474=DIRECTION('',(-1.23259516440783E-32,6.12323399573677E-17,-1.));
#475=CARTESIAN_POINT('',(-13.,3.,10.));
#476=VECTOR('',#477,1.);
#477=DIRECTION('',(1.,2.22044604925031E-16,0.));
#478=CARTESIAN_POINT('',(-13.,16.,-10.));
#479=CARTESIAN_POINT('',(-13.,3.,-10.));
#480=VECTOR('',#481,1.);
#481=DIRECTION('',(0.,1.,1.36642833800019E-16));
#482=CARTESIAN_POINT('',(-13.,16.,10.));
#483=CARTESIAN_POINT('',(-13.,16.,10.));
#484=VECTOR('',#485,1.);
#485=DIRECTION('',(1.36642833800019E-16,-1.,-1.36642833800019E-16));
#486=AXIS2_PLACEMENT_3D('',#487,#488,#489);
#487=CARTESIAN_POINT('',(-13.,16.,4.53243111811838E-15));
#488=DIRECTION('',(-1.,-6.12323399573677E-17,8.57655218742366E-33));
#489=DIRECTION('',(8.57655218742367E-33,5.25162359202431E-49,1.));
#490=CARTESIAN_POINT('',(-13.,16.,-2.5));
#491=AXIS2_PLACEMENT_3D('',#492,#493,#494);
#492=CARTESIAN_POINT('',(-13.,16.,4.53243111811838E-15));
#493=DIRECTION('',(1.,6.12323399573677E-17,0.));
#494=DIRECTION('',(-1.23259516440783E-32,6.12323399573677E-17,-1.));
#495=CARTESIAN_POINT('',(-13.,16.,-10.));
#496=VECTOR('',#497,1.);
#497=DIRECTION('',(1.,0.,0.));
#498=CARTESIAN_POINT('',(-13.,16.,10.));
#499=VECTOR('',#500,1.);
#500=DIRECTION('',(1.,0.,0.));
ENDSEC;
END-ISO-10303-21;
