ISO-10303-21;
HEADER;
FILE_DESCRIPTION(('STEP AP203'),
    '1');
FILE_NAME('Лицевая пластина',
    '',
    ('UNSPECIFIED'),
    ('UNSPECIFIED'),
    'C3D Converter',
    'C3D Toolkit',
    '');
FILE_SCHEMA(('CONFIG_CONTROL_DESIGN'));
ENDSEC;

DATA;
#1=PRODUCT_DEFINITION('','UNSPECIFIED',#28,#31);
#2=SHAPE_DEFINITION_REPRESENTATION(#26,#3);
#3=SHAPE_REPRESENTATION('NONE',(#4),#8);
#4=AXIS2_PLACEMENT_3D('',#5,#6,#7);
#5=CARTESIAN_POINT('',(0.,0.,0.));
#6=DIRECTION('',(0.,0.,1.));
#7=DIRECTION('',(1.,0.,0.));
#8=(GEOMETRIC_REPRESENTATION_CONTEXT(3)GLOBAL_UNCERTAINTY_ASSIGNED_CONTEXT((#10))
GLOBAL_UNIT_ASSIGNED_CONTEXT((#9,#11,#12))REPRESENTATION_CONTEXT('NONE','NONE'));
#9=(LENGTH_UNIT()NAMED_UNIT(*)SI_UNIT(.MILLI.,.METRE.));
#10=UNCERTAINTY_MEASURE_WITH_UNIT(LENGTH_MEASURE(1.E-5),#9,'NONE','NONE');
#11=(NAMED_UNIT(*)PLANE_ANGLE_UNIT()SI_UNIT($,.RADIAN.));
#12=(NAMED_UNIT(*)SI_UNIT($,.STERADIAN.)SOLID_ANGLE_UNIT());
#13=MANIFOLD_SOLID_BREP('',#14);
#14=CLOSED_SHELL('',(#53,#54,#55,#56,#57,#58,#59,#60,#61,#62,#63,#64,#65,#66,#67,
#68,#69,#70,#71,#72,#73,#74,#75,#76,#77,#78,#79,#80,#81,#82,#83,#84,#85,#86,#87,
#88,#89,#90,#91,#92,#93,#94));
#15=COLOUR_RGB('',0.564705882352941,0.564705882352941,0.564705882352941);
#16=FILL_AREA_STYLE_COLOUR('',#15);
#17=FILL_AREA_STYLE($,(#16));
#18=SURFACE_STYLE_FILL_AREA(#17);
#19=SURFACE_SIDE_STYLE('',(#18));
#20=SURFACE_STYLE_USAGE(.BOTH.,#19);
#21=PRESENTATION_STYLE_ASSIGNMENT((#20));
#22=MECHANICAL_DESIGN_GEOMETRIC_PRESENTATION_REPRESENTATION('NONE',(#23),#8);
#23=STYLED_ITEM('',(#21),#13);
#24=ADVANCED_BREP_SHAPE_REPRESENTATION('NONE',(#13),#8);
#25=SHAPE_REPRESENTATION_RELATIONSHIP('','',#3,#24);
#26=PRODUCT_DEFINITION_SHAPE('NONE','NONE',#1);
#27=MECHANICAL_CONTEXT('NONE',#32,'mechanical');
#28=PRODUCT_DEFINITION_FORMATION_WITH_SPECIFIED_SOURCE('ANY','UNSPECIFIED',#29,.NOT_KNOWN.);
#29=PRODUCT('','\X2\0414043504420430043B044C\X0\','NONE',(#27));
#30=PRODUCT_RELATED_PRODUCT_CATEGORY('detail','',(#29));
#31=DESIGN_CONTEXT('detailed design',#32,'design');
#32=APPLICATION_CONTEXT('configuration controlled 3d designs of mechanical parts and assemblies');
#33=APPLICATION_PROTOCOL_DEFINITION('international standard','config_control_design',
1994,#32);
#34=CC_DESIGN_DATE_AND_TIME_ASSIGNMENT(#35,#39,(#1));
#35=DATE_AND_TIME(#36,#37);
#36=CALENDAR_DATE(0,1,1);
#37=LOCAL_TIME(0,0,0.,#38);
#38=COORDINATED_UNIVERSAL_TIME_OFFSET(0,0,.AHEAD.);
#39=DATE_TIME_ROLE('creation_date');
#40=CC_DESIGN_APPROVAL(#41,(#1));
#41=APPROVAL(#42,'UNSPECIFIED');
#42=APPROVAL_STATUS('not_yet_approved');
#43=APPROVAL_DATE_TIME(#44,#41);
#44=DATE_AND_TIME(#45,#46);
#45=CALENDAR_DATE(0,1,1);
#46=LOCAL_TIME(0,0,0.,#47);
#47=COORDINATED_UNIVERSAL_TIME_OFFSET(0,0,.AHEAD.);
#48=PERSON('UNSPECIFIED','Nik','UNSPECIFIED',('UNSPECIFIED'),('UNSPECIFIED'),('UNSPECIFIED'));
#49=ORGANIZATION('UNSPECIFIED','UNSPECIFIED','UNSPECIFIED');
#50=PERSON_AND_ORGANIZATION(#48,#49);
#51=PERSON_AND_ORGANIZATION_ROLE('creator');
#52=CC_DESIGN_PERSON_AND_ORGANIZATION_ASSIGNMENT(#50,#51,(#28,#1));
#53=ADVANCED_FACE('',(#95,#97),#99,.F.);
#54=ADVANCED_FACE('',(#104,#106),#108,.F.);
#55=ADVANCED_FACE('',(#113,#115),#117,.F.);
#56=ADVANCED_FACE('',(#122,#124),#126,.F.);
#57=ADVANCED_FACE('',(#131,#133),#135,.F.);
#58=ADVANCED_FACE('',(#140,#142),#144,.F.);
#59=ADVANCED_FACE('',(#149,#151),#153,.F.);
#60=ADVANCED_FACE('',(#158,#160),#162,.F.);
#61=ADVANCED_FACE('',(#167,#169),#171,.F.);
#62=ADVANCED_FACE('',(#176,#178),#180,.F.);
#63=ADVANCED_FACE('',(#185,#187),#189,.F.);
#64=ADVANCED_FACE('',(#194,#196),#198,.F.);
#65=ADVANCED_FACE('',(#203,#205),#207,.F.);
#66=ADVANCED_FACE('',(#212,#214),#216,.F.);
#67=ADVANCED_FACE('',(#221,#223),#225,.F.);
#68=ADVANCED_FACE('',(#230,#232),#234,.F.);
#69=ADVANCED_FACE('',(#239,#241,#243,#245,#247,#249,#251,#253,#255,#257,#259,#261,
#263,#265,#267,#269,#271,#273,#275,#277,#279),#281,.T.);
#70=ADVANCED_FACE('',(#286,#288),#290,.F.);
#71=ADVANCED_FACE('',(#295,#297),#299,.F.);
#72=ADVANCED_FACE('',(#304,#306),#308,.F.);
#73=ADVANCED_FACE('',(#313,#315),#317,.F.);
#74=ADVANCED_FACE('',(#322,#324),#326,.F.);
#75=ADVANCED_FACE('',(#331,#333),#335,.F.);
#76=ADVANCED_FACE('',(#340,#342),#344,.F.);
#77=ADVANCED_FACE('',(#349,#351),#353,.F.);
#78=ADVANCED_FACE('',(#358,#360),#362,.F.);
#79=ADVANCED_FACE('',(#367,#369),#371,.F.);
#80=ADVANCED_FACE('',(#376,#378),#380,.F.);
#81=ADVANCED_FACE('',(#385,#387),#389,.F.);
#82=ADVANCED_FACE('',(#394,#396),#398,.F.);
#83=ADVANCED_FACE('',(#403,#405),#407,.F.);
#84=ADVANCED_FACE('',(#412,#414),#416,.F.);
#85=ADVANCED_FACE('',(#421,#423),#425,.F.);
#86=ADVANCED_FACE('',(#430,#432,#434,#436,#438,#440,#442,#444,#446,#448,#450,#452,
#454,#456,#458,#460,#462,#464,#466,#468,#470),#472,.F.);
#87=ADVANCED_FACE('',(#477),#479,.T.);
#88=ADVANCED_FACE('',(#484),#486,.T.);
#89=ADVANCED_FACE('',(#491),#493,.T.);
#90=ADVANCED_FACE('',(#498),#500,.T.);
#91=ADVANCED_FACE('',(#505,#507),#509,.F.);
#92=ADVANCED_FACE('',(#514,#516),#518,.F.);
#93=ADVANCED_FACE('',(#523,#525),#527,.F.);
#94=ADVANCED_FACE('',(#532,#534),#536,.F.);
#95=FACE_OUTER_BOUND('',#96,.T.);
#96=EDGE_LOOP('',(#541));
#97=FACE_OUTER_BOUND('',#98,.T.);
#98=EDGE_LOOP('',(#542));
#99=CYLINDRICAL_SURFACE('',#100,1.5);
#100=AXIS2_PLACEMENT_3D('',#101,#102,#103);
#101=CARTESIAN_POINT('',(57.5,-6.30693101560887E-15,103.));
#102=DIRECTION('',(0.,1.,6.12323399573677E-17));
#103=DIRECTION('',(6.12323399573676E-17,6.12323399573676E-17,-1.));
#104=FACE_OUTER_BOUND('',#105,.T.);
#105=EDGE_LOOP('',(#543));
#106=FACE_OUTER_BOUND('',#107,.T.);
#107=EDGE_LOOP('',(#544));
#108=CYLINDRICAL_SURFACE('',#109,1.5);
#109=AXIS2_PLACEMENT_3D('',#110,#111,#112);
#110=CARTESIAN_POINT('',(57.5,-5.69460761603519E-15,93.));
#111=DIRECTION('',(0.,1.,6.12323399573677E-17));
#112=DIRECTION('',(6.12323399573676E-17,6.12323399573676E-17,-1.));
#113=FACE_OUTER_BOUND('',#114,.T.);
#114=EDGE_LOOP('',(#545));
#115=FACE_OUTER_BOUND('',#116,.T.);
#116=EDGE_LOOP('',(#546));
#117=CYLINDRICAL_SURFACE('',#118,1.5);
#118=AXIS2_PLACEMENT_3D('',#119,#120,#121);
#119=CARTESIAN_POINT('',(-50.5,-5.93953697586466E-15,97.));
#120=DIRECTION('',(0.,1.,6.12323399573677E-17));
#121=DIRECTION('',(6.12323399573676E-17,6.12323399573676E-17,-1.));
#122=FACE_OUTER_BOUND('',#123,.T.);
#123=EDGE_LOOP('',(#547));
#124=FACE_OUTER_BOUND('',#125,.T.);
#125=EDGE_LOOP('',(#548));
#126=CYLINDRICAL_SURFACE('',#127,1.5);
#127=AXIS2_PLACEMENT_3D('',#128,#129,#130);
#128=CARTESIAN_POINT('',(-40.5,-5.93953697586466E-15,97.));
#129=DIRECTION('',(0.,1.,6.12323399573677E-17));
#130=DIRECTION('',(6.12323399573676E-17,6.12323399573676E-17,-1.));
#131=FACE_OUTER_BOUND('',#132,.T.);
#132=EDGE_LOOP('',(#549));
#133=FACE_OUTER_BOUND('',#134,.T.);
#134=EDGE_LOOP('',(#550));
#135=CYLINDRICAL_SURFACE('',#136,1.5);
#136=AXIS2_PLACEMENT_3D('',#137,#138,#139);
#137=CARTESIAN_POINT('',(-60.5,-4.53119315684521E-15,74.));
#138=DIRECTION('',(0.,1.,6.12323399573677E-17));
#139=DIRECTION('',(6.12323399573676E-17,6.12323399573676E-17,-1.));
#140=FACE_OUTER_BOUND('',#141,.T.);
#141=EDGE_LOOP('',(#551));
#142=FACE_OUTER_BOUND('',#143,.T.);
#143=EDGE_LOOP('',(#552));
#144=CYLINDRICAL_SURFACE('',#145,1.5);
#145=AXIS2_PLACEMENT_3D('',#146,#147,#148);
#146=CARTESIAN_POINT('',(-60.5,-3.00038465791101E-15,49.));
#147=DIRECTION('',(0.,1.,6.12323399573677E-17));
#148=DIRECTION('',(6.12323399573676E-17,6.12323399573676E-17,-1.));
#149=FACE_OUTER_BOUND('',#150,.T.);
#150=EDGE_LOOP('',(#553));
#151=FACE_OUTER_BOUND('',#152,.T.);
#152=EDGE_LOOP('',(#554));
#153=CYLINDRICAL_SURFACE('',#154,1.5);
#154=AXIS2_PLACEMENT_3D('',#155,#156,#157);
#155=CARTESIAN_POINT('',(-36.5,-3.00038465791102E-15,49.));
#156=DIRECTION('',(0.,1.,6.12323399573677E-17));
#157=DIRECTION('',(6.12323399573676E-17,6.12323399573676E-17,-1.));
#158=FACE_OUTER_BOUND('',#159,.T.);
#159=EDGE_LOOP('',(#555));
#160=FACE_OUTER_BOUND('',#161,.T.);
#161=EDGE_LOOP('',(#556));
#162=CYLINDRICAL_SURFACE('',#163,1.5);
#163=AXIS2_PLACEMENT_3D('',#164,#165,#166);
#164=CARTESIAN_POINT('',(-36.5,-4.53119315684521E-15,74.));
#165=DIRECTION('',(0.,1.,6.12323399573677E-17));
#166=DIRECTION('',(6.12323399573676E-17,6.12323399573676E-17,-1.));
#167=FACE_OUTER_BOUND('',#168,.T.);
#168=EDGE_LOOP('',(#557));
#169=FACE_OUTER_BOUND('',#170,.T.);
#170=EDGE_LOOP('',(#558));
#171=CYLINDRICAL_SURFACE('',#172,1.5);
#172=AXIS2_PLACEMENT_3D('',#173,#174,#175);
#173=CARTESIAN_POINT('',(13.5,-2.51052593825207E-15,41.));
#174=DIRECTION('',(0.,1.,6.12323399573677E-17));
#175=DIRECTION('',(6.12323399573676E-17,6.12323399573676E-17,-1.));
#176=FACE_OUTER_BOUND('',#177,.T.);
#177=EDGE_LOOP('',(#559));
#178=FACE_OUTER_BOUND('',#179,.T.);
#179=EDGE_LOOP('',(#560));
#180=CYLINDRICAL_SURFACE('',#181,1.5);
#181=AXIS2_PLACEMENT_3D('',#182,#183,#184);
#182=CARTESIAN_POINT('',(-20.5,-6.73555739531044E-16,11.));
#183=DIRECTION('',(0.,1.,6.12323399573677E-17));
#184=DIRECTION('',(6.12323399573676E-17,6.12323399573676E-17,-1.));
#185=FACE_OUTER_BOUND('',#186,.T.);
#186=EDGE_LOOP('',(#561));
#187=FACE_OUTER_BOUND('',#188,.T.);
#188=EDGE_LOOP('',(#562));
#189=CYLINDRICAL_SURFACE('',#190,1.5);
#190=AXIS2_PLACEMENT_3D('',#191,#192,#193);
#191=CARTESIAN_POINT('',(-63.5,-1.8982025386784E-15,31.));
#192=DIRECTION('',(0.,1.,6.12323399573677E-17));
#193=DIRECTION('',(6.12323399573676E-17,6.12323399573676E-17,-1.));
#194=FACE_OUTER_BOUND('',#195,.T.);
#195=EDGE_LOOP('',(#563));
#196=FACE_OUTER_BOUND('',#197,.T.);
#197=EDGE_LOOP('',(#564));
#198=CYLINDRICAL_SURFACE('',#199,1.5);
#199=AXIS2_PLACEMENT_3D('',#200,#201,#202);
#200=CARTESIAN_POINT('',(-27.5,-1.8982025386784E-15,31.));
#201=DIRECTION('',(0.,1.,6.12323399573677E-17));
#202=DIRECTION('',(6.12323399573676E-17,6.12323399573676E-17,-1.));
#203=FACE_OUTER_BOUND('',#204,.T.);
#204=EDGE_LOOP('',(#565));
#205=FACE_OUTER_BOUND('',#206,.T.);
#206=EDGE_LOOP('',(#566));
#207=CYLINDRICAL_SURFACE('',#208,1.5);
#208=AXIS2_PLACEMENT_3D('',#209,#210,#211);
#209=CARTESIAN_POINT('',(-63.5,2.75545529808155E-15,-45.));
#210=DIRECTION('',(0.,1.,6.12323399573677E-17));
#211=DIRECTION('',(6.12323399573676E-17,6.12323399573676E-17,-1.));
#212=FACE_OUTER_BOUND('',#213,.T.);
#213=EDGE_LOOP('',(#567));
#214=FACE_OUTER_BOUND('',#215,.T.);
#215=EDGE_LOOP('',(#568));
#216=CYLINDRICAL_SURFACE('',#217,1.5);
#217=AXIS2_PLACEMENT_3D('',#218,#219,#220);
#218=CARTESIAN_POINT('',(-27.5,2.75545529808154E-15,-45.));
#219=DIRECTION('',(0.,1.,6.12323399573677E-17));
#220=DIRECTION('',(6.12323399573676E-17,6.12323399573676E-17,-1.));
#221=FACE_OUTER_BOUND('',#222,.T.);
#222=EDGE_LOOP('',(#569));
#223=FACE_OUTER_BOUND('',#224,.T.);
#224=EDGE_LOOP('',(#570));
#225=CYLINDRICAL_SURFACE('',#226,1.5);
#226=AXIS2_PLACEMENT_3D('',#227,#228,#229);
#227=CARTESIAN_POINT('',(-16.5,3.85763741731416E-15,-63.));
#228=DIRECTION('',(0.,1.,6.12323399573677E-17));
#229=DIRECTION('',(6.12323399573676E-17,6.12323399573676E-17,-1.));
#230=FACE_OUTER_BOUND('',#231,.T.);
#231=EDGE_LOOP('',(#571));
#232=FACE_OUTER_BOUND('',#233,.T.);
#233=EDGE_LOOP('',(#572));
#234=CYLINDRICAL_SURFACE('',#235,1.5);
#235=AXIS2_PLACEMENT_3D('',#236,#237,#238);
#236=CARTESIAN_POINT('',(-4.5,3.85763741731416E-15,-63.));
#237=DIRECTION('',(0.,1.,6.12323399573677E-17));
#238=DIRECTION('',(6.12323399573676E-17,6.12323399573676E-17,-1.));
#239=FACE_BOUND('',#240,.T.);
#240=EDGE_LOOP('',(#573,#574,#575,#576));
#241=FACE_BOUND('',#242,.T.);
#242=EDGE_LOOP('',(#577));
#243=FACE_BOUND('',#244,.T.);
#244=EDGE_LOOP('',(#578));
#245=FACE_BOUND('',#246,.T.);
#246=EDGE_LOOP('',(#579));
#247=FACE_BOUND('',#248,.T.);
#248=EDGE_LOOP('',(#580));
#249=FACE_BOUND('',#250,.T.);
#250=EDGE_LOOP('',(#581));
#251=FACE_BOUND('',#252,.T.);
#252=EDGE_LOOP('',(#582));
#253=FACE_BOUND('',#254,.T.);
#254=EDGE_LOOP('',(#583));
#255=FACE_BOUND('',#256,.T.);
#256=EDGE_LOOP('',(#584));
#257=FACE_BOUND('',#258,.T.);
#258=EDGE_LOOP('',(#585));
#259=FACE_BOUND('',#260,.T.);
#260=EDGE_LOOP('',(#586));
#261=FACE_BOUND('',#262,.T.);
#262=EDGE_LOOP('',(#587));
#263=FACE_BOUND('',#264,.T.);
#264=EDGE_LOOP('',(#588));
#265=FACE_BOUND('',#266,.T.);
#266=EDGE_LOOP('',(#589));
#267=FACE_BOUND('',#268,.T.);
#268=EDGE_LOOP('',(#590));
#269=FACE_BOUND('',#270,.T.);
#270=EDGE_LOOP('',(#591));
#271=FACE_BOUND('',#272,.T.);
#272=EDGE_LOOP('',(#592));
#273=FACE_BOUND('',#274,.T.);
#274=EDGE_LOOP('',(#593));
#275=FACE_BOUND('',#276,.T.);
#276=EDGE_LOOP('',(#594));
#277=FACE_BOUND('',#278,.T.);
#278=EDGE_LOOP('',(#595));
#279=FACE_BOUND('',#280,.T.);
#280=EDGE_LOOP('',(#596));
#281=PLANE('',#282);
#282=AXIS2_PLACEMENT_3D('',#283,#284,#285);
#283=CARTESIAN_POINT('',(0.,2.,1.22464679914735E-16));
#284=DIRECTION('',(0.,1.,6.12323399573677E-17));
#285=DIRECTION('',(6.12323399573677E-17,6.12323399573677E-17,-1.));
#286=FACE_OUTER_BOUND('',#287,.T.);
#287=EDGE_LOOP('',(#597));
#288=FACE_OUTER_BOUND('',#289,.T.);
#289=EDGE_LOOP('',(#598));
#290=CONICAL_SURFACE('',#291,2.125,0.785398163397448);
#291=AXIS2_PLACEMENT_3D('',#292,#293,#294);
#292=CARTESIAN_POINT('',(-20.5,1.375,11.));
#293=DIRECTION('',(0.,1.,6.12323399573677E-17));
#294=DIRECTION('',(6.12323399573677E-17,6.12323399573677E-17,-1.));
#295=FACE_OUTER_BOUND('',#296,.T.);
#296=EDGE_LOOP('',(#599));
#297=FACE_OUTER_BOUND('',#298,.T.);
#298=EDGE_LOOP('',(#600));
#299=CONICAL_SURFACE('',#300,2.125,0.785398163397448);
#300=AXIS2_PLACEMENT_3D('',#301,#302,#303);
#301=CARTESIAN_POINT('',(-63.5,1.37500000000001,-45.));
#302=DIRECTION('',(0.,1.,6.12323399573677E-17));
#303=DIRECTION('',(6.12323399573677E-17,6.12323399573677E-17,-1.));
#304=FACE_OUTER_BOUND('',#305,.T.);
#305=EDGE_LOOP('',(#601));
#306=FACE_OUTER_BOUND('',#307,.T.);
#307=EDGE_LOOP('',(#602));
#308=CONICAL_SURFACE('',#309,2.125,0.785398163397448);
#309=AXIS2_PLACEMENT_3D('',#310,#311,#312);
#310=CARTESIAN_POINT('',(-4.49999999999998,1.37500000000001,-63.));
#311=DIRECTION('',(0.,1.,6.12323399573677E-17));
#312=DIRECTION('',(6.12323399573677E-17,6.12323399573677E-17,-1.));
#313=FACE_OUTER_BOUND('',#314,.T.);
#314=EDGE_LOOP('',(#603));
#315=FACE_OUTER_BOUND('',#316,.T.);
#316=EDGE_LOOP('',(#604));
#317=CONICAL_SURFACE('',#318,2.125,0.785398163397448);
#318=AXIS2_PLACEMENT_3D('',#319,#320,#321);
#319=CARTESIAN_POINT('',(-16.5,1.375,-63.));
#320=DIRECTION('',(0.,1.,6.12323399573677E-17));
#321=DIRECTION('',(6.12323399573677E-17,6.12323399573677E-17,-1.));
#322=FACE_OUTER_BOUND('',#323,.T.);
#323=EDGE_LOOP('',(#605));
#324=FACE_OUTER_BOUND('',#325,.T.);
#325=EDGE_LOOP('',(#606));
#326=CONICAL_SURFACE('',#327,2.125,0.785398163397448);
#327=AXIS2_PLACEMENT_3D('',#328,#329,#330);
#328=CARTESIAN_POINT('',(-27.5,1.375,-45.));
#329=DIRECTION('',(0.,1.,6.12323399573677E-17));
#330=DIRECTION('',(6.12323399573677E-17,6.12323399573677E-17,-1.));
#331=FACE_OUTER_BOUND('',#332,.T.);
#332=EDGE_LOOP('',(#607));
#333=FACE_OUTER_BOUND('',#334,.T.);
#334=EDGE_LOOP('',(#608));
#335=CONICAL_SURFACE('',#336,2.12500000000001,0.785398163397448);
#336=AXIS2_PLACEMENT_3D('',#337,#338,#339);
#337=CARTESIAN_POINT('',(13.5,1.375,41.));
#338=DIRECTION('',(0.,1.,6.12323399573677E-17));
#339=DIRECTION('',(6.12323399573677E-17,6.12323399573677E-17,-1.));
#340=FACE_OUTER_BOUND('',#341,.T.);
#341=EDGE_LOOP('',(#609));
#342=FACE_OUTER_BOUND('',#343,.T.);
#343=EDGE_LOOP('',(#610));
#344=CONICAL_SURFACE('',#345,2.12499999999999,0.785398163397448);
#345=AXIS2_PLACEMENT_3D('',#346,#347,#348);
#346=CARTESIAN_POINT('',(57.5,1.37499999999999,103.));
#347=DIRECTION('',(0.,1.,6.12323399573677E-17));
#348=DIRECTION('',(6.12323399573677E-17,6.12323399573677E-17,-1.));
#349=FACE_OUTER_BOUND('',#350,.T.);
#350=EDGE_LOOP('',(#611));
#351=FACE_OUTER_BOUND('',#352,.T.);
#352=EDGE_LOOP('',(#612));
#353=CONICAL_SURFACE('',#354,2.12499999999999,0.785398163397448);
#354=AXIS2_PLACEMENT_3D('',#355,#356,#357);
#355=CARTESIAN_POINT('',(57.5,1.37499999999999,93.));
#356=DIRECTION('',(0.,1.,6.12323399573677E-17));
#357=DIRECTION('',(6.12323399573677E-17,6.12323399573677E-17,-1.));
#358=FACE_OUTER_BOUND('',#359,.T.);
#359=EDGE_LOOP('',(#613));
#360=FACE_OUTER_BOUND('',#361,.T.);
#361=EDGE_LOOP('',(#614));
#362=CONICAL_SURFACE('',#363,2.12500000000001,0.785398163397448);
#363=AXIS2_PLACEMENT_3D('',#364,#365,#366);
#364=CARTESIAN_POINT('',(-40.5,1.375,97.));
#365=DIRECTION('',(0.,1.,6.12323399573677E-17));
#366=DIRECTION('',(6.12323399573677E-17,6.12323399573677E-17,-1.));
#367=FACE_OUTER_BOUND('',#368,.T.);
#368=EDGE_LOOP('',(#615));
#369=FACE_OUTER_BOUND('',#370,.T.);
#370=EDGE_LOOP('',(#616));
#371=CONICAL_SURFACE('',#372,2.125,0.785398163397448);
#372=AXIS2_PLACEMENT_3D('',#373,#374,#375);
#373=CARTESIAN_POINT('',(-36.5,1.375,74.));
#374=DIRECTION('',(0.,1.,6.12323399573677E-17));
#375=DIRECTION('',(6.12323399573677E-17,6.12323399573677E-17,-1.));
#376=FACE_OUTER_BOUND('',#377,.T.);
#377=EDGE_LOOP('',(#617));
#378=FACE_OUTER_BOUND('',#379,.T.);
#379=EDGE_LOOP('',(#618));
#380=CONICAL_SURFACE('',#381,2.125,0.785398163397448);
#381=AXIS2_PLACEMENT_3D('',#382,#383,#384);
#382=CARTESIAN_POINT('',(-36.5,1.375,49.));
#383=DIRECTION('',(0.,1.,6.12323399573677E-17));
#384=DIRECTION('',(6.12323399573677E-17,6.12323399573677E-17,-1.));
#385=FACE_OUTER_BOUND('',#386,.T.);
#386=EDGE_LOOP('',(#619));
#387=FACE_OUTER_BOUND('',#388,.T.);
#388=EDGE_LOOP('',(#620));
#389=CONICAL_SURFACE('',#390,2.125,0.785398163397448);
#390=AXIS2_PLACEMENT_3D('',#391,#392,#393);
#391=CARTESIAN_POINT('',(-27.5,1.375,31.));
#392=DIRECTION('',(0.,1.,6.12323399573677E-17));
#393=DIRECTION('',(6.12323399573677E-17,6.12323399573677E-17,-1.));
#394=FACE_OUTER_BOUND('',#395,.T.);
#395=EDGE_LOOP('',(#621));
#396=FACE_OUTER_BOUND('',#397,.T.);
#397=EDGE_LOOP('',(#622));
#398=CONICAL_SURFACE('',#399,2.125,0.785398163397448);
#399=AXIS2_PLACEMENT_3D('',#400,#401,#402);
#400=CARTESIAN_POINT('',(-63.5,1.375,31.));
#401=DIRECTION('',(0.,1.,6.12323399573677E-17));
#402=DIRECTION('',(6.12323399573677E-17,6.12323399573677E-17,-1.));
#403=FACE_OUTER_BOUND('',#404,.T.);
#404=EDGE_LOOP('',(#623));
#405=FACE_OUTER_BOUND('',#406,.T.);
#406=EDGE_LOOP('',(#624));
#407=CONICAL_SURFACE('',#408,2.125,0.785398163397448);
#408=AXIS2_PLACEMENT_3D('',#409,#410,#411);
#409=CARTESIAN_POINT('',(-60.5,1.375,49.));
#410=DIRECTION('',(0.,1.,6.12323399573677E-17));
#411=DIRECTION('',(6.12323399573677E-17,6.12323399573677E-17,-1.));
#412=FACE_OUTER_BOUND('',#413,.T.);
#413=EDGE_LOOP('',(#625));
#414=FACE_OUTER_BOUND('',#415,.T.);
#415=EDGE_LOOP('',(#626));
#416=CONICAL_SURFACE('',#417,2.125,0.785398163397448);
#417=AXIS2_PLACEMENT_3D('',#418,#419,#420);
#418=CARTESIAN_POINT('',(-60.5,1.375,74.));
#419=DIRECTION('',(0.,1.,6.12323399573677E-17));
#420=DIRECTION('',(6.12323399573677E-17,6.12323399573677E-17,-1.));
#421=FACE_OUTER_BOUND('',#422,.T.);
#422=EDGE_LOOP('',(#627));
#423=FACE_OUTER_BOUND('',#424,.T.);
#424=EDGE_LOOP('',(#628));
#425=CONICAL_SURFACE('',#426,2.12500000000001,0.785398163397448);
#426=AXIS2_PLACEMENT_3D('',#427,#428,#429);
#427=CARTESIAN_POINT('',(-50.5,1.375,97.));
#428=DIRECTION('',(0.,1.,6.12323399573677E-17));
#429=DIRECTION('',(6.12323399573677E-17,6.12323399573677E-17,-1.));
#430=FACE_BOUND('',#431,.T.);
#431=EDGE_LOOP('',(#629,#630,#631,#632));
#432=FACE_BOUND('',#433,.T.);
#433=EDGE_LOOP('',(#633));
#434=FACE_BOUND('',#435,.T.);
#435=EDGE_LOOP('',(#634));
#436=FACE_BOUND('',#437,.T.);
#437=EDGE_LOOP('',(#635));
#438=FACE_BOUND('',#439,.T.);
#439=EDGE_LOOP('',(#636));
#440=FACE_BOUND('',#441,.T.);
#441=EDGE_LOOP('',(#637));
#442=FACE_BOUND('',#443,.T.);
#443=EDGE_LOOP('',(#638));
#444=FACE_BOUND('',#445,.T.);
#445=EDGE_LOOP('',(#639));
#446=FACE_BOUND('',#447,.T.);
#447=EDGE_LOOP('',(#640));
#448=FACE_BOUND('',#449,.T.);
#449=EDGE_LOOP('',(#641));
#450=FACE_BOUND('',#451,.T.);
#451=EDGE_LOOP('',(#642));
#452=FACE_BOUND('',#453,.T.);
#453=EDGE_LOOP('',(#643));
#454=FACE_BOUND('',#455,.T.);
#455=EDGE_LOOP('',(#644));
#456=FACE_BOUND('',#457,.T.);
#457=EDGE_LOOP('',(#645));
#458=FACE_BOUND('',#459,.T.);
#459=EDGE_LOOP('',(#646));
#460=FACE_BOUND('',#461,.T.);
#461=EDGE_LOOP('',(#647));
#462=FACE_BOUND('',#463,.T.);
#463=EDGE_LOOP('',(#648));
#464=FACE_BOUND('',#465,.T.);
#465=EDGE_LOOP('',(#649));
#466=FACE_BOUND('',#467,.T.);
#467=EDGE_LOOP('',(#650));
#468=FACE_BOUND('',#469,.T.);
#469=EDGE_LOOP('',(#651));
#470=FACE_BOUND('',#471,.T.);
#471=EDGE_LOOP('',(#652));
#472=PLANE('',#473);
#473=AXIS2_PLACEMENT_3D('',#474,#475,#476);
#474=CARTESIAN_POINT('',(0.,0.,0.));
#475=DIRECTION('',(0.,1.,6.12323399573677E-17));
#476=DIRECTION('',(6.12323399573677E-17,6.12323399573677E-17,-1.));
#477=FACE_BOUND('',#478,.T.);
#478=EDGE_LOOP('',(#653,#654,#655,#656));
#479=PLANE('',#480);
#480=AXIS2_PLACEMENT_3D('',#481,#482,#483);
#481=CARTESIAN_POINT('',(82.5,7.65404249467096E-15,-125.));
#482=DIRECTION('',(0.,0.,-1.));
#483=DIRECTION('',(-1.,0.,0.));
#484=FACE_BOUND('',#485,.T.);
#485=EDGE_LOOP('',(#657,#658,#659,#660));
#486=PLANE('',#487);
#487=AXIS2_PLACEMENT_3D('',#488,#489,#490);
#488=CARTESIAN_POINT('',(-82.5,7.65404249467096E-15,-125.));
#489=DIRECTION('',(-1.,0.,-1.13686837721616E-16));
#490=DIRECTION('',(-1.13686837721616E-16,-6.12323399573677E-17,1.));
#491=FACE_BOUND('',#492,.T.);
#492=EDGE_LOOP('',(#661,#662,#663,#664));
#493=PLANE('',#494);
#494=AXIS2_PLACEMENT_3D('',#495,#496,#497);
#495=CARTESIAN_POINT('',(-82.5,-7.65404249467096E-15,125.));
#496=DIRECTION('',(0.,0.,1.));
#497=DIRECTION('',(1.,0.,0.));
#498=FACE_BOUND('',#499,.T.);
#499=EDGE_LOOP('',(#665,#666,#667,#668));
#500=PLANE('',#501);
#501=AXIS2_PLACEMENT_3D('',#502,#503,#504);
#502=CARTESIAN_POINT('',(82.5,-7.65404249467096E-15,125.));
#503=DIRECTION('',(1.,0.,1.13686837721616E-16));
#504=DIRECTION('',(1.13686837721616E-16,6.12323399573677E-17,-1.));
#505=FACE_OUTER_BOUND('',#506,.T.);
#506=EDGE_LOOP('',(#669));
#507=FACE_OUTER_BOUND('',#508,.T.);
#508=EDGE_LOOP('',(#670));
#509=CYLINDRICAL_SURFACE('',#510,2.5);
#510=AXIS2_PLACEMENT_3D('',#511,#512,#513);
#511=CARTESIAN_POINT('',(-70.5,5.02105187650415E-15,-82.));
#512=DIRECTION('',(0.,1.,6.12323399573677E-17));
#513=DIRECTION('',(6.12323399573677E-17,6.12323399573677E-17,-1.));
#514=FACE_OUTER_BOUND('',#515,.T.);
#515=EDGE_LOOP('',(#671));
#516=FACE_OUTER_BOUND('',#517,.T.);
#517=EDGE_LOOP('',(#672));
#518=CYLINDRICAL_SURFACE('',#519,3.5);
#519=AXIS2_PLACEMENT_3D('',#520,#521,#522);
#520=CARTESIAN_POINT('',(-68.5,6.2456986756515E-15,-102.));
#521=DIRECTION('',(0.,1.,6.12323399573677E-17));
#522=DIRECTION('',(6.12323399573677E-17,6.12323399573677E-17,-1.));
#523=FACE_OUTER_BOUND('',#524,.T.);
#524=EDGE_LOOP('',(#673));
#525=FACE_OUTER_BOUND('',#526,.T.);
#526=EDGE_LOOP('',(#674));
#527=CYLINDRICAL_SURFACE('',#528,2.5);
#528=AXIS2_PLACEMENT_3D('',#529,#530,#531);
#529=CARTESIAN_POINT('',(-69.5,-5.02105187650415E-15,82.));
#530=DIRECTION('',(0.,1.,6.12323399573677E-17));
#531=DIRECTION('',(6.12323399573677E-17,6.12323399573677E-17,-1.));
#532=FACE_OUTER_BOUND('',#533,.T.);
#533=EDGE_LOOP('',(#675));
#534=FACE_OUTER_BOUND('',#535,.T.);
#535=EDGE_LOOP('',(#676));
#536=CYLINDRICAL_SURFACE('',#537,3.5);
#537=AXIS2_PLACEMENT_3D('',#538,#539,#540);
#538=CARTESIAN_POINT('',(-66.5,-6.2456986756515E-15,102.));
#539=DIRECTION('',(0.,1.,6.12323399573677E-17));
#540=DIRECTION('',(6.12323399573677E-17,6.12323399573677E-17,-1.));
#541=ORIENTED_EDGE('',*,*,#677,.T.);
#542=ORIENTED_EDGE('',*,*,#678,.F.);
#543=ORIENTED_EDGE('',*,*,#679,.T.);
#544=ORIENTED_EDGE('',*,*,#680,.F.);
#545=ORIENTED_EDGE('',*,*,#681,.T.);
#546=ORIENTED_EDGE('',*,*,#682,.F.);
#547=ORIENTED_EDGE('',*,*,#683,.T.);
#548=ORIENTED_EDGE('',*,*,#684,.F.);
#549=ORIENTED_EDGE('',*,*,#685,.T.);
#550=ORIENTED_EDGE('',*,*,#686,.F.);
#551=ORIENTED_EDGE('',*,*,#687,.T.);
#552=ORIENTED_EDGE('',*,*,#688,.F.);
#553=ORIENTED_EDGE('',*,*,#689,.T.);
#554=ORIENTED_EDGE('',*,*,#690,.F.);
#555=ORIENTED_EDGE('',*,*,#691,.T.);
#556=ORIENTED_EDGE('',*,*,#692,.F.);
#557=ORIENTED_EDGE('',*,*,#693,.T.);
#558=ORIENTED_EDGE('',*,*,#694,.F.);
#559=ORIENTED_EDGE('',*,*,#695,.T.);
#560=ORIENTED_EDGE('',*,*,#696,.F.);
#561=ORIENTED_EDGE('',*,*,#697,.T.);
#562=ORIENTED_EDGE('',*,*,#698,.F.);
#563=ORIENTED_EDGE('',*,*,#699,.T.);
#564=ORIENTED_EDGE('',*,*,#700,.F.);
#565=ORIENTED_EDGE('',*,*,#701,.T.);
#566=ORIENTED_EDGE('',*,*,#702,.F.);
#567=ORIENTED_EDGE('',*,*,#703,.T.);
#568=ORIENTED_EDGE('',*,*,#704,.F.);
#569=ORIENTED_EDGE('',*,*,#705,.T.);
#570=ORIENTED_EDGE('',*,*,#706,.F.);
#571=ORIENTED_EDGE('',*,*,#707,.T.);
#572=ORIENTED_EDGE('',*,*,#708,.F.);
#573=ORIENTED_EDGE('',*,*,#709,.T.);
#574=ORIENTED_EDGE('',*,*,#710,.T.);
#575=ORIENTED_EDGE('',*,*,#711,.T.);
#576=ORIENTED_EDGE('',*,*,#712,.T.);
#577=ORIENTED_EDGE('',*,*,#713,.T.);
#578=ORIENTED_EDGE('',*,*,#714,.T.);
#579=ORIENTED_EDGE('',*,*,#715,.T.);
#580=ORIENTED_EDGE('',*,*,#716,.T.);
#581=ORIENTED_EDGE('',*,*,#717,.T.);
#582=ORIENTED_EDGE('',*,*,#718,.T.);
#583=ORIENTED_EDGE('',*,*,#719,.T.);
#584=ORIENTED_EDGE('',*,*,#720,.T.);
#585=ORIENTED_EDGE('',*,*,#721,.T.);
#586=ORIENTED_EDGE('',*,*,#722,.T.);
#587=ORIENTED_EDGE('',*,*,#723,.T.);
#588=ORIENTED_EDGE('',*,*,#724,.T.);
#589=ORIENTED_EDGE('',*,*,#725,.T.);
#590=ORIENTED_EDGE('',*,*,#726,.T.);
#591=ORIENTED_EDGE('',*,*,#727,.T.);
#592=ORIENTED_EDGE('',*,*,#728,.T.);
#593=ORIENTED_EDGE('',*,*,#729,.T.);
#594=ORIENTED_EDGE('',*,*,#730,.T.);
#595=ORIENTED_EDGE('',*,*,#731,.T.);
#596=ORIENTED_EDGE('',*,*,#732,.T.);
#597=ORIENTED_EDGE('',*,*,#728,.F.);
#598=ORIENTED_EDGE('',*,*,#695,.F.);
#599=ORIENTED_EDGE('',*,*,#727,.F.);
#600=ORIENTED_EDGE('',*,*,#701,.F.);
#601=ORIENTED_EDGE('',*,*,#726,.F.);
#602=ORIENTED_EDGE('',*,*,#707,.F.);
#603=ORIENTED_EDGE('',*,*,#725,.F.);
#604=ORIENTED_EDGE('',*,*,#705,.F.);
#605=ORIENTED_EDGE('',*,*,#724,.F.);
#606=ORIENTED_EDGE('',*,*,#703,.F.);
#607=ORIENTED_EDGE('',*,*,#723,.F.);
#608=ORIENTED_EDGE('',*,*,#693,.F.);
#609=ORIENTED_EDGE('',*,*,#722,.F.);
#610=ORIENTED_EDGE('',*,*,#677,.F.);
#611=ORIENTED_EDGE('',*,*,#721,.F.);
#612=ORIENTED_EDGE('',*,*,#679,.F.);
#613=ORIENTED_EDGE('',*,*,#720,.F.);
#614=ORIENTED_EDGE('',*,*,#683,.F.);
#615=ORIENTED_EDGE('',*,*,#719,.F.);
#616=ORIENTED_EDGE('',*,*,#691,.F.);
#617=ORIENTED_EDGE('',*,*,#718,.F.);
#618=ORIENTED_EDGE('',*,*,#689,.F.);
#619=ORIENTED_EDGE('',*,*,#717,.F.);
#620=ORIENTED_EDGE('',*,*,#699,.F.);
#621=ORIENTED_EDGE('',*,*,#716,.F.);
#622=ORIENTED_EDGE('',*,*,#697,.F.);
#623=ORIENTED_EDGE('',*,*,#715,.F.);
#624=ORIENTED_EDGE('',*,*,#687,.F.);
#625=ORIENTED_EDGE('',*,*,#714,.F.);
#626=ORIENTED_EDGE('',*,*,#685,.F.);
#627=ORIENTED_EDGE('',*,*,#713,.F.);
#628=ORIENTED_EDGE('',*,*,#681,.F.);
#629=ORIENTED_EDGE('',*,*,#733,.F.);
#630=ORIENTED_EDGE('',*,*,#734,.F.);
#631=ORIENTED_EDGE('',*,*,#735,.F.);
#632=ORIENTED_EDGE('',*,*,#736,.F.);
#633=ORIENTED_EDGE('',*,*,#678,.T.);
#634=ORIENTED_EDGE('',*,*,#680,.T.);
#635=ORIENTED_EDGE('',*,*,#737,.T.);
#636=ORIENTED_EDGE('',*,*,#738,.T.);
#637=ORIENTED_EDGE('',*,*,#682,.T.);
#638=ORIENTED_EDGE('',*,*,#684,.T.);
#639=ORIENTED_EDGE('',*,*,#686,.T.);
#640=ORIENTED_EDGE('',*,*,#688,.T.);
#641=ORIENTED_EDGE('',*,*,#690,.T.);
#642=ORIENTED_EDGE('',*,*,#692,.T.);
#643=ORIENTED_EDGE('',*,*,#694,.T.);
#644=ORIENTED_EDGE('',*,*,#696,.T.);
#645=ORIENTED_EDGE('',*,*,#698,.T.);
#646=ORIENTED_EDGE('',*,*,#700,.T.);
#647=ORIENTED_EDGE('',*,*,#702,.T.);
#648=ORIENTED_EDGE('',*,*,#704,.T.);
#649=ORIENTED_EDGE('',*,*,#706,.T.);
#650=ORIENTED_EDGE('',*,*,#708,.T.);
#651=ORIENTED_EDGE('',*,*,#739,.T.);
#652=ORIENTED_EDGE('',*,*,#740,.T.);
#653=ORIENTED_EDGE('',*,*,#736,.T.);
#654=ORIENTED_EDGE('',*,*,#741,.T.);
#655=ORIENTED_EDGE('',*,*,#709,.F.);
#656=ORIENTED_EDGE('',*,*,#742,.F.);
#657=ORIENTED_EDGE('',*,*,#735,.T.);
#658=ORIENTED_EDGE('',*,*,#743,.T.);
#659=ORIENTED_EDGE('',*,*,#710,.F.);
#660=ORIENTED_EDGE('',*,*,#741,.F.);
#661=ORIENTED_EDGE('',*,*,#734,.T.);
#662=ORIENTED_EDGE('',*,*,#744,.T.);
#663=ORIENTED_EDGE('',*,*,#711,.F.);
#664=ORIENTED_EDGE('',*,*,#743,.F.);
#665=ORIENTED_EDGE('',*,*,#733,.T.);
#666=ORIENTED_EDGE('',*,*,#742,.T.);
#667=ORIENTED_EDGE('',*,*,#712,.F.);
#668=ORIENTED_EDGE('',*,*,#744,.F.);
#669=ORIENTED_EDGE('',*,*,#729,.F.);
#670=ORIENTED_EDGE('',*,*,#740,.F.);
#671=ORIENTED_EDGE('',*,*,#730,.F.);
#672=ORIENTED_EDGE('',*,*,#739,.F.);
#673=ORIENTED_EDGE('',*,*,#731,.F.);
#674=ORIENTED_EDGE('',*,*,#738,.F.);
#675=ORIENTED_EDGE('',*,*,#732,.F.);
#676=ORIENTED_EDGE('',*,*,#737,.F.);
#677=EDGE_CURVE('',#745,#745,#746,.T.);
#678=EDGE_CURVE('',#747,#747,#748,.T.);
#679=EDGE_CURVE('',#749,#749,#750,.T.);
#680=EDGE_CURVE('',#751,#751,#752,.T.);
#681=EDGE_CURVE('',#753,#753,#754,.T.);
#682=EDGE_CURVE('',#755,#755,#756,.T.);
#683=EDGE_CURVE('',#757,#757,#758,.T.);
#684=EDGE_CURVE('',#759,#759,#760,.T.);
#685=EDGE_CURVE('',#761,#761,#762,.T.);
#686=EDGE_CURVE('',#763,#763,#764,.T.);
#687=EDGE_CURVE('',#765,#765,#766,.T.);
#688=EDGE_CURVE('',#767,#767,#768,.T.);
#689=EDGE_CURVE('',#769,#769,#770,.T.);
#690=EDGE_CURVE('',#771,#771,#772,.T.);
#691=EDGE_CURVE('',#773,#773,#774,.T.);
#692=EDGE_CURVE('',#775,#775,#776,.T.);
#693=EDGE_CURVE('',#777,#777,#778,.T.);
#694=EDGE_CURVE('',#779,#779,#780,.T.);
#695=EDGE_CURVE('',#781,#781,#782,.T.);
#696=EDGE_CURVE('',#783,#783,#784,.T.);
#697=EDGE_CURVE('',#785,#785,#786,.T.);
#698=EDGE_CURVE('',#787,#787,#788,.T.);
#699=EDGE_CURVE('',#789,#789,#790,.T.);
#700=EDGE_CURVE('',#791,#791,#792,.T.);
#701=EDGE_CURVE('',#793,#793,#794,.T.);
#702=EDGE_CURVE('',#795,#795,#796,.T.);
#703=EDGE_CURVE('',#797,#797,#798,.T.);
#704=EDGE_CURVE('',#799,#799,#800,.T.);
#705=EDGE_CURVE('',#801,#801,#802,.T.);
#706=EDGE_CURVE('',#803,#803,#804,.T.);
#707=EDGE_CURVE('',#805,#805,#806,.T.);
#708=EDGE_CURVE('',#807,#807,#808,.T.);
#709=EDGE_CURVE('',#809,#810,#811,.T.);
#710=EDGE_CURVE('',#810,#812,#813,.T.);
#711=EDGE_CURVE('',#812,#814,#815,.T.);
#712=EDGE_CURVE('',#814,#809,#816,.T.);
#713=EDGE_CURVE('',#817,#817,#818,.F.);
#714=EDGE_CURVE('',#819,#819,#820,.F.);
#715=EDGE_CURVE('',#821,#821,#822,.F.);
#716=EDGE_CURVE('',#823,#823,#824,.F.);
#717=EDGE_CURVE('',#825,#825,#826,.F.);
#718=EDGE_CURVE('',#827,#827,#828,.F.);
#719=EDGE_CURVE('',#829,#829,#830,.F.);
#720=EDGE_CURVE('',#831,#831,#832,.F.);
#721=EDGE_CURVE('',#833,#833,#834,.F.);
#722=EDGE_CURVE('',#835,#835,#836,.F.);
#723=EDGE_CURVE('',#837,#837,#838,.F.);
#724=EDGE_CURVE('',#839,#839,#840,.F.);
#725=EDGE_CURVE('',#841,#841,#842,.F.);
#726=EDGE_CURVE('',#843,#843,#844,.F.);
#727=EDGE_CURVE('',#845,#845,#846,.F.);
#728=EDGE_CURVE('',#847,#847,#848,.F.);
#729=EDGE_CURVE('',#849,#849,#850,.F.);
#730=EDGE_CURVE('',#851,#851,#852,.F.);
#731=EDGE_CURVE('',#853,#853,#854,.F.);
#732=EDGE_CURVE('',#855,#855,#856,.F.);
#733=EDGE_CURVE('',#857,#858,#859,.T.);
#734=EDGE_CURVE('',#860,#857,#861,.T.);
#735=EDGE_CURVE('',#862,#860,#863,.T.);
#736=EDGE_CURVE('',#858,#862,#864,.T.);
#737=EDGE_CURVE('',#865,#865,#866,.T.);
#738=EDGE_CURVE('',#867,#867,#868,.T.);
#739=EDGE_CURVE('',#869,#869,#870,.T.);
#740=EDGE_CURVE('',#871,#871,#872,.T.);
#741=EDGE_CURVE('',#862,#810,#873,.T.);
#742=EDGE_CURVE('',#858,#809,#874,.T.);
#743=EDGE_CURVE('',#860,#812,#875,.T.);
#744=EDGE_CURVE('',#857,#814,#876,.T.);
#745=VERTEX_POINT('',#877);
#746=CIRCLE('',#878,1.5);
#747=VERTEX_POINT('',#882);
#748=CIRCLE('',#883,1.5);
#749=VERTEX_POINT('',#887);
#750=CIRCLE('',#888,1.5);
#751=VERTEX_POINT('',#892);
#752=CIRCLE('',#893,1.5);
#753=VERTEX_POINT('',#897);
#754=CIRCLE('',#898,1.5);
#755=VERTEX_POINT('',#902);
#756=CIRCLE('',#903,1.5);
#757=VERTEX_POINT('',#907);
#758=CIRCLE('',#908,1.5);
#759=VERTEX_POINT('',#912);
#760=CIRCLE('',#913,1.5);
#761=VERTEX_POINT('',#917);
#762=CIRCLE('',#918,1.5);
#763=VERTEX_POINT('',#922);
#764=CIRCLE('',#923,1.5);
#765=VERTEX_POINT('',#927);
#766=CIRCLE('',#928,1.5);
#767=VERTEX_POINT('',#932);
#768=CIRCLE('',#933,1.5);
#769=VERTEX_POINT('',#937);
#770=CIRCLE('',#938,1.5);
#771=VERTEX_POINT('',#942);
#772=CIRCLE('',#943,1.5);
#773=VERTEX_POINT('',#947);
#774=CIRCLE('',#948,1.5);
#775=VERTEX_POINT('',#952);
#776=CIRCLE('',#953,1.5);
#777=VERTEX_POINT('',#957);
#778=CIRCLE('',#958,1.5);
#779=VERTEX_POINT('',#962);
#780=CIRCLE('',#963,1.5);
#781=VERTEX_POINT('',#967);
#782=CIRCLE('',#968,1.5);
#783=VERTEX_POINT('',#972);
#784=CIRCLE('',#973,1.5);
#785=VERTEX_POINT('',#977);
#786=CIRCLE('',#978,1.5);
#787=VERTEX_POINT('',#982);
#788=CIRCLE('',#983,1.5);
#789=VERTEX_POINT('',#987);
#790=CIRCLE('',#988,1.5);
#791=VERTEX_POINT('',#992);
#792=CIRCLE('',#993,1.5);
#793=VERTEX_POINT('',#997);
#794=CIRCLE('',#998,1.5);
#795=VERTEX_POINT('',#1002);
#796=CIRCLE('',#1003,1.5);
#797=VERTEX_POINT('',#1007);
#798=CIRCLE('',#1008,1.5);
#799=VERTEX_POINT('',#1012);
#800=CIRCLE('',#1013,1.5);
#801=VERTEX_POINT('',#1017);
#802=CIRCLE('',#1018,1.5);
#803=VERTEX_POINT('',#1022);
#804=CIRCLE('',#1023,1.5);
#805=VERTEX_POINT('',#1027);
#806=CIRCLE('',#1028,1.5);
#807=VERTEX_POINT('',#1032);
#808=CIRCLE('',#1033,1.5);
#809=VERTEX_POINT('',#1037);
#810=VERTEX_POINT('',#1038);
#811=LINE('',#1039,#1040);
#812=VERTEX_POINT('',#1042);
#813=LINE('',#1043,#1044);
#814=VERTEX_POINT('',#1046);
#815=LINE('',#1047,#1048);
#816=LINE('',#1050,#1051);
#817=VERTEX_POINT('',#1053);
#818=CIRCLE('',#1054,2.75);
#819=VERTEX_POINT('',#1058);
#820=CIRCLE('',#1059,2.75);
#821=VERTEX_POINT('',#1063);
#822=CIRCLE('',#1064,2.75);
#823=VERTEX_POINT('',#1068);
#824=CIRCLE('',#1069,2.75);
#825=VERTEX_POINT('',#1073);
#826=CIRCLE('',#1074,2.75);
#827=VERTEX_POINT('',#1078);
#828=CIRCLE('',#1079,2.75);
#829=VERTEX_POINT('',#1083);
#830=CIRCLE('',#1084,2.75);
#831=VERTEX_POINT('',#1088);
#832=CIRCLE('',#1089,2.75);
#833=VERTEX_POINT('',#1093);
#834=CIRCLE('',#1094,2.75);
#835=VERTEX_POINT('',#1098);
#836=CIRCLE('',#1099,2.75);
#837=VERTEX_POINT('',#1103);
#838=CIRCLE('',#1104,2.75);
#839=VERTEX_POINT('',#1108);
#840=CIRCLE('',#1109,2.75);
#841=VERTEX_POINT('',#1113);
#842=CIRCLE('',#1114,2.75);
#843=VERTEX_POINT('',#1118);
#844=CIRCLE('',#1119,2.75);
#845=VERTEX_POINT('',#1123);
#846=CIRCLE('',#1124,2.75);
#847=VERTEX_POINT('',#1128);
#848=CIRCLE('',#1129,2.75);
#849=VERTEX_POINT('',#1133);
#850=CIRCLE('',#1134,2.5);
#851=VERTEX_POINT('',#1138);
#852=CIRCLE('',#1139,3.5);
#853=VERTEX_POINT('',#1143);
#854=CIRCLE('',#1144,2.5);
#855=VERTEX_POINT('',#1148);
#856=CIRCLE('',#1149,3.5);
#857=VERTEX_POINT('',#1153);
#858=VERTEX_POINT('',#1154);
#859=LINE('',#1155,#1156);
#860=VERTEX_POINT('',#1158);
#861=LINE('',#1159,#1160);
#862=VERTEX_POINT('',#1162);
#863=LINE('',#1163,#1164);
#864=LINE('',#1166,#1167);
#865=VERTEX_POINT('',#1169);
#866=CIRCLE('',#1170,3.5);
#867=VERTEX_POINT('',#1174);
#868=CIRCLE('',#1175,2.5);
#869=VERTEX_POINT('',#1179);
#870=CIRCLE('',#1180,3.5);
#871=VERTEX_POINT('',#1184);
#872=CIRCLE('',#1185,2.5);
#873=LINE('',#1189,#1190);
#874=LINE('',#1192,#1193);
#875=LINE('',#1195,#1196);
#876=LINE('',#1198,#1199);
#877=CARTESIAN_POINT('',(57.5,0.74999999999998,101.5));
#878=AXIS2_PLACEMENT_3D('',#879,#880,#881);
#879=CARTESIAN_POINT('',(57.5,0.749999999999979,103.));
#880=DIRECTION('',(6.84227765783602E-49,1.,6.12323399573676E-17));
#881=DIRECTION('',(-8.74616081465394E-66,6.12323399573676E-17,-1.));
#882=CARTESIAN_POINT('',(57.5,-6.21508250567282E-15,101.5));
#883=AXIS2_PLACEMENT_3D('',#884,#885,#886);
#884=CARTESIAN_POINT('',(57.5,-6.30693101560887E-15,103.));
#885=DIRECTION('',(0.,1.,6.12323399573677E-17));
#886=DIRECTION('',(6.12323399573676E-17,6.12323399573677E-17,-1.));
#887=CARTESIAN_POINT('',(57.5,0.74999999999998,91.5));
#888=AXIS2_PLACEMENT_3D('',#889,#890,#891);
#889=CARTESIAN_POINT('',(57.5,0.74999999999998,93.));
#890=DIRECTION('',(6.84227765783602E-49,1.,6.12323399573676E-17));
#891=DIRECTION('',(-8.74616081465394E-66,6.12323399573676E-17,-1.));
#892=CARTESIAN_POINT('',(57.5,-5.60275910609914E-15,91.5));
#893=AXIS2_PLACEMENT_3D('',#894,#895,#896);
#894=CARTESIAN_POINT('',(57.5,-5.69460761603519E-15,93.));
#895=DIRECTION('',(0.,1.,6.12323399573677E-17));
#896=DIRECTION('',(6.12323399573676E-17,6.12323399573677E-17,-1.));
#897=CARTESIAN_POINT('',(-50.5,0.750000000000008,95.5));
#898=AXIS2_PLACEMENT_3D('',#899,#900,#901);
#899=CARTESIAN_POINT('',(-50.5,0.750000000000008,97.));
#900=DIRECTION('',(6.84227765783602E-49,1.,6.12323399573676E-17));
#901=DIRECTION('',(-8.74616081465394E-66,6.12323399573676E-17,-1.));
#902=CARTESIAN_POINT('',(-50.5,-5.84768846592861E-15,95.5));
#903=AXIS2_PLACEMENT_3D('',#904,#905,#906);
#904=CARTESIAN_POINT('',(-50.5,-5.93953697586466E-15,97.));
#905=DIRECTION('',(0.,1.,6.12323399573677E-17));
#906=DIRECTION('',(6.12323399573676E-17,6.12323399573677E-17,-1.));
#907=CARTESIAN_POINT('',(-40.5,0.750000000000008,95.5));
#908=AXIS2_PLACEMENT_3D('',#909,#910,#911);
#909=CARTESIAN_POINT('',(-40.5,0.750000000000008,97.));
#910=DIRECTION('',(6.84227765783602E-49,1.,6.12323399573676E-17));
#911=DIRECTION('',(-8.74616081465394E-66,6.12323399573676E-17,-1.));
#912=CARTESIAN_POINT('',(-40.5,-5.84768846592861E-15,95.5));
#913=AXIS2_PLACEMENT_3D('',#914,#915,#916);
#914=CARTESIAN_POINT('',(-40.5,-5.93953697586466E-15,97.));
#915=DIRECTION('',(0.,1.,6.12323399573677E-17));
#916=DIRECTION('',(6.12323399573676E-17,6.12323399573677E-17,-1.));
#917=CARTESIAN_POINT('',(-60.5,0.749999999999996,72.5));
#918=AXIS2_PLACEMENT_3D('',#919,#920,#921);
#919=CARTESIAN_POINT('',(-60.5,0.749999999999995,74.));
#920=DIRECTION('',(6.84227765783602E-49,1.,6.12323399573676E-17));
#921=DIRECTION('',(-8.74616081465394E-66,6.12323399573676E-17,-1.));
#922=CARTESIAN_POINT('',(-60.5,-4.43934464690915E-15,72.5));
#923=AXIS2_PLACEMENT_3D('',#924,#925,#926);
#924=CARTESIAN_POINT('',(-60.5,-4.53119315684521E-15,74.));
#925=DIRECTION('',(0.,1.,6.12323399573677E-17));
#926=DIRECTION('',(6.12323399573676E-17,6.12323399573677E-17,-1.));
#927=CARTESIAN_POINT('',(-60.5,0.750000000000004,47.5));
#928=AXIS2_PLACEMENT_3D('',#929,#930,#931);
#929=CARTESIAN_POINT('',(-60.5,0.750000000000004,49.));
#930=DIRECTION('',(6.84227765783602E-49,1.,6.12323399573676E-17));
#931=DIRECTION('',(-8.74616081465394E-66,6.12323399573676E-17,-1.));
#932=CARTESIAN_POINT('',(-60.5,-2.90853614797496E-15,47.5));
#933=AXIS2_PLACEMENT_3D('',#934,#935,#936);
#934=CARTESIAN_POINT('',(-60.5,-3.00038465791101E-15,49.));
#935=DIRECTION('',(0.,1.,6.12323399573677E-17));
#936=DIRECTION('',(6.12323399573676E-17,6.12323399573677E-17,-1.));
#937=CARTESIAN_POINT('',(-36.5,0.749999999999997,47.5));
#938=AXIS2_PLACEMENT_3D('',#939,#940,#941);
#939=CARTESIAN_POINT('',(-36.5,0.749999999999997,49.));
#940=DIRECTION('',(6.84227765783602E-49,1.,6.12323399573676E-17));
#941=DIRECTION('',(-8.74616081465394E-66,6.12323399573676E-17,-1.));
#942=CARTESIAN_POINT('',(-36.5,-2.90853614797496E-15,47.5));
#943=AXIS2_PLACEMENT_3D('',#944,#945,#946);
#944=CARTESIAN_POINT('',(-36.5,-3.00038465791102E-15,49.));
#945=DIRECTION('',(0.,1.,6.12323399573677E-17));
#946=DIRECTION('',(6.12323399573676E-17,6.12323399573677E-17,-1.));
#947=CARTESIAN_POINT('',(-36.5,0.749999999999996,72.5));
#948=AXIS2_PLACEMENT_3D('',#949,#950,#951);
#949=CARTESIAN_POINT('',(-36.5,0.749999999999995,74.));
#950=DIRECTION('',(6.84227765783602E-49,1.,6.12323399573676E-17));
#951=DIRECTION('',(-8.74616081465394E-66,6.12323399573676E-17,-1.));
#952=CARTESIAN_POINT('',(-36.5,-4.43934464690915E-15,72.5));
#953=AXIS2_PLACEMENT_3D('',#954,#955,#956);
#954=CARTESIAN_POINT('',(-36.5,-4.53119315684521E-15,74.));
#955=DIRECTION('',(0.,1.,6.12323399573677E-17));
#956=DIRECTION('',(6.12323399573676E-17,6.12323399573677E-17,-1.));
#957=CARTESIAN_POINT('',(13.5,0.750000000000012,39.5));
#958=AXIS2_PLACEMENT_3D('',#959,#960,#961);
#959=CARTESIAN_POINT('',(13.5,0.750000000000012,41.));
#960=DIRECTION('',(6.84227765783602E-49,1.,6.12323399573676E-17));
#961=DIRECTION('',(-8.74616081465394E-66,6.12323399573676E-17,-1.));
#962=CARTESIAN_POINT('',(13.5,-2.41867742831602E-15,39.5));
#963=AXIS2_PLACEMENT_3D('',#964,#965,#966);
#964=CARTESIAN_POINT('',(13.5,-2.51052593825207E-15,41.));
#965=DIRECTION('',(0.,1.,6.12323399573677E-17));
#966=DIRECTION('',(6.12323399573676E-17,6.12323399573677E-17,-1.));
#967=CARTESIAN_POINT('',(-20.5,0.750000000000008,9.49999999999999));
#968=AXIS2_PLACEMENT_3D('',#969,#970,#971);
#969=CARTESIAN_POINT('',(-20.5,0.750000000000008,11.));
#970=DIRECTION('',(6.84227765783602E-49,1.,6.12323399573676E-17));
#971=DIRECTION('',(-8.74616081465394E-66,6.12323399573676E-17,-1.));
#972=CARTESIAN_POINT('',(-20.5,-5.81707229594992E-16,9.49999999999999));
#973=AXIS2_PLACEMENT_3D('',#974,#975,#976);
#974=CARTESIAN_POINT('',(-20.5,-6.73555739531044E-16,11.));
#975=DIRECTION('',(0.,1.,6.12323399573677E-17));
#976=DIRECTION('',(6.12323399573676E-17,6.12323399573677E-17,-1.));
#977=CARTESIAN_POINT('',(-63.5,0.750000000000002,29.5));
#978=AXIS2_PLACEMENT_3D('',#979,#980,#981);
#979=CARTESIAN_POINT('',(-63.5,0.750000000000002,31.));
#980=DIRECTION('',(6.84227765783602E-49,1.,6.12323399573676E-17));
#981=DIRECTION('',(-8.74616081465394E-66,6.12323399573676E-17,-1.));
#982=CARTESIAN_POINT('',(-63.5,-1.80635402874235E-15,29.5));
#983=AXIS2_PLACEMENT_3D('',#984,#985,#986);
#984=CARTESIAN_POINT('',(-63.5,-1.8982025386784E-15,31.));
#985=DIRECTION('',(0.,1.,6.12323399573677E-17));
#986=DIRECTION('',(6.12323399573676E-17,6.12323399573677E-17,-1.));
#987=CARTESIAN_POINT('',(-27.5,0.750000000000005,29.5));
#988=AXIS2_PLACEMENT_3D('',#989,#990,#991);
#989=CARTESIAN_POINT('',(-27.5,0.750000000000005,31.));
#990=DIRECTION('',(6.84227765783602E-49,1.,6.12323399573676E-17));
#991=DIRECTION('',(-8.74616081465394E-66,6.12323399573676E-17,-1.));
#992=CARTESIAN_POINT('',(-27.5,-1.80635402874235E-15,29.5));
#993=AXIS2_PLACEMENT_3D('',#994,#995,#996);
#994=CARTESIAN_POINT('',(-27.5,-1.8982025386784E-15,31.));
#995=DIRECTION('',(0.,1.,6.12323399573677E-17));
#996=DIRECTION('',(6.12323399573676E-17,6.12323399573677E-17,-1.));
#997=CARTESIAN_POINT('',(-63.5,0.75000000000001,-46.5));
#998=AXIS2_PLACEMENT_3D('',#999,#1000,#1001);
#999=CARTESIAN_POINT('',(-63.5,0.75000000000001,-45.));
#1000=DIRECTION('',(6.84227765783602E-49,1.,6.12323399573676E-17));
#1001=DIRECTION('',(-8.74616081465394E-66,6.12323399573676E-17,-1.));
#1002=CARTESIAN_POINT('',(-63.5,2.8473038080176E-15,-46.5));
#1003=AXIS2_PLACEMENT_3D('',#1004,#1005,#1006);
#1004=CARTESIAN_POINT('',(-63.5,2.75545529808155E-15,-45.));
#1005=DIRECTION('',(0.,1.,6.12323399573677E-17));
#1006=DIRECTION('',(6.12323399573676E-17,6.12323399573677E-17,-1.));
#1007=CARTESIAN_POINT('',(-27.5,0.750000000000003,-46.5));
#1008=AXIS2_PLACEMENT_3D('',#1009,#1010,#1011);
#1009=CARTESIAN_POINT('',(-27.5,0.750000000000003,-45.));
#1010=DIRECTION('',(6.84227765783602E-49,1.,6.12323399573676E-17));
#1011=DIRECTION('',(-8.74616081465394E-66,6.12323399573676E-17,-1.));
#1012=CARTESIAN_POINT('',(-27.5,2.8473038080176E-15,-46.5));
#1013=AXIS2_PLACEMENT_3D('',#1014,#1015,#1016);
#1014=CARTESIAN_POINT('',(-27.5,2.75545529808154E-15,-45.));
#1015=DIRECTION('',(0.,1.,6.12323399573677E-17));
#1016=DIRECTION('',(6.12323399573676E-17,6.12323399573677E-17,-1.));
#1017=CARTESIAN_POINT('',(-16.5,0.750000000000004,-64.5));
#1018=AXIS2_PLACEMENT_3D('',#1019,#1020,#1021);
#1019=CARTESIAN_POINT('',(-16.5,0.750000000000004,-63.));
#1020=DIRECTION('',(6.84227765783602E-49,1.,6.12323399573676E-17));
#1021=DIRECTION('',(-8.74616081465394E-66,6.12323399573676E-17,-1.));
#1022=CARTESIAN_POINT('',(-16.5,3.94948592725021E-15,-64.5));
#1023=AXIS2_PLACEMENT_3D('',#1024,#1025,#1026);
#1024=CARTESIAN_POINT('',(-16.5,3.85763741731416E-15,-63.));
#1025=DIRECTION('',(0.,1.,6.12323399573677E-17));
#1026=DIRECTION('',(6.12323399573676E-17,6.12323399573677E-17,-1.));
#1027=CARTESIAN_POINT('',(-4.49999999999999,0.750000000000007,-64.5));
#1028=AXIS2_PLACEMENT_3D('',#1029,#1030,#1031);
#1029=CARTESIAN_POINT('',(-4.5,0.750000000000007,-63.));
#1030=DIRECTION('',(6.84227765783602E-49,1.,6.12323399573676E-17));
#1031=DIRECTION('',(-8.74616081465394E-66,6.12323399573676E-17,-1.));
#1032=CARTESIAN_POINT('',(-4.5,3.94948592725021E-15,-64.5));
#1033=AXIS2_PLACEMENT_3D('',#1034,#1035,#1036);
#1034=CARTESIAN_POINT('',(-4.5,3.85763741731416E-15,-63.));
#1035=DIRECTION('',(0.,1.,6.12323399573677E-17));
#1036=DIRECTION('',(6.12323399573676E-17,6.12323399573677E-17,-1.));
#1037=CARTESIAN_POINT('',(82.5,2.00000000000001,-125.));
#1038=CARTESIAN_POINT('',(-82.5,2.00000000000001,-125.));
#1039=CARTESIAN_POINT('',(82.5,2.00000000000001,-125.));
#1040=VECTOR('',#1041,1.);
#1041=DIRECTION('',(-1.,0.,0.));
#1042=CARTESIAN_POINT('',(-82.5,1.99999999999999,125.));
#1043=CARTESIAN_POINT('',(-82.5,2.00000000000001,-125.));
#1044=VECTOR('',#1045,1.);
#1045=DIRECTION('',(-1.13686837721616E-16,-6.03961325396085E-17,1.));
#1046=CARTESIAN_POINT('',(82.5,1.99999999999999,125.));
#1047=CARTESIAN_POINT('',(-82.5,1.99999999999999,125.));
#1048=VECTOR('',#1049,1.);
#1049=DIRECTION('',(1.,0.,0.));
#1050=CARTESIAN_POINT('',(82.5,1.99999999999999,125.));
#1051=VECTOR('',#1052,1.);
#1052=DIRECTION('',(1.13686837721616E-16,6.03961325396085E-17,-1.));
#1053=CARTESIAN_POINT('',(-50.5,1.99999999999999,94.25));
#1054=AXIS2_PLACEMENT_3D('',#1055,#1056,#1057);
#1055=CARTESIAN_POINT('',(-50.5,1.99999999999999,97.));
#1056=DIRECTION('',(0.,1.,6.12323399573677E-17));
#1057=DIRECTION('',(6.12323399573677E-17,6.12323399573677E-17,-1.));
#1058=CARTESIAN_POINT('',(-60.5,2.,71.25));
#1059=AXIS2_PLACEMENT_3D('',#1060,#1061,#1062);
#1060=CARTESIAN_POINT('',(-60.5,2.,74.));
#1061=DIRECTION('',(0.,1.,6.12323399573677E-17));
#1062=DIRECTION('',(6.12323399573677E-17,6.12323399573677E-17,-1.));
#1063=CARTESIAN_POINT('',(-60.5,2.,46.25));
#1064=AXIS2_PLACEMENT_3D('',#1065,#1066,#1067);
#1065=CARTESIAN_POINT('',(-60.5,2.,49.));
#1066=DIRECTION('',(0.,1.,6.12323399573677E-17));
#1067=DIRECTION('',(6.12323399573677E-17,6.12323399573677E-17,-1.));
#1068=CARTESIAN_POINT('',(-63.5,2.,28.25));
#1069=AXIS2_PLACEMENT_3D('',#1070,#1071,#1072);
#1070=CARTESIAN_POINT('',(-63.5,2.,31.));
#1071=DIRECTION('',(0.,1.,6.12323399573677E-17));
#1072=DIRECTION('',(6.12323399573677E-17,6.12323399573677E-17,-1.));
#1073=CARTESIAN_POINT('',(-27.5,2.,28.25));
#1074=AXIS2_PLACEMENT_3D('',#1075,#1076,#1077);
#1075=CARTESIAN_POINT('',(-27.5,2.,31.));
#1076=DIRECTION('',(0.,1.,6.12323399573677E-17));
#1077=DIRECTION('',(6.12323399573677E-17,6.12323399573677E-17,-1.));
#1078=CARTESIAN_POINT('',(-36.5,2.,46.25));
#1079=AXIS2_PLACEMENT_3D('',#1080,#1081,#1082);
#1080=CARTESIAN_POINT('',(-36.5,2.,49.));
#1081=DIRECTION('',(0.,1.,6.12323399573677E-17));
#1082=DIRECTION('',(6.12323399573677E-17,6.12323399573677E-17,-1.));
#1083=CARTESIAN_POINT('',(-36.5,2.,71.25));
#1084=AXIS2_PLACEMENT_3D('',#1085,#1086,#1087);
#1085=CARTESIAN_POINT('',(-36.5,2.,74.));
#1086=DIRECTION('',(0.,1.,6.12323399573677E-17));
#1087=DIRECTION('',(6.12323399573677E-17,6.12323399573677E-17,-1.));
#1088=CARTESIAN_POINT('',(-40.5,1.99999999999999,94.25));
#1089=AXIS2_PLACEMENT_3D('',#1090,#1091,#1092);
#1090=CARTESIAN_POINT('',(-40.5,1.99999999999999,97.));
#1091=DIRECTION('',(0.,1.,6.12323399573677E-17));
#1092=DIRECTION('',(6.12323399573677E-17,6.12323399573677E-17,-1.));
#1093=CARTESIAN_POINT('',(57.5,1.99999999999999,90.25));
#1094=AXIS2_PLACEMENT_3D('',#1095,#1096,#1097);
#1095=CARTESIAN_POINT('',(57.5,1.99999999999999,93.));
#1096=DIRECTION('',(0.,1.,6.12323399573677E-17));
#1097=DIRECTION('',(6.12323399573677E-17,6.12323399573677E-17,-1.));
#1098=CARTESIAN_POINT('',(57.5,1.99999999999999,100.25));
#1099=AXIS2_PLACEMENT_3D('',#1100,#1101,#1102);
#1100=CARTESIAN_POINT('',(57.5,1.99999999999999,103.));
#1101=DIRECTION('',(0.,1.,6.12323399573677E-17));
#1102=DIRECTION('',(6.12323399573677E-17,6.12323399573677E-17,-1.));
#1103=CARTESIAN_POINT('',(13.5,2.,38.25));
#1104=AXIS2_PLACEMENT_3D('',#1105,#1106,#1107);
#1105=CARTESIAN_POINT('',(13.5,2.,41.));
#1106=DIRECTION('',(0.,1.,6.12323399573677E-17));
#1107=DIRECTION('',(6.12323399573677E-17,6.12323399573677E-17,-1.));
#1108=CARTESIAN_POINT('',(-27.5,2.,-47.75));
#1109=AXIS2_PLACEMENT_3D('',#1110,#1111,#1112);
#1110=CARTESIAN_POINT('',(-27.5,2.,-45.));
#1111=DIRECTION('',(0.,1.,6.12323399573677E-17));
#1112=DIRECTION('',(6.12323399573677E-17,6.12323399573677E-17,-1.));
#1113=CARTESIAN_POINT('',(-16.5,2.,-65.75));
#1114=AXIS2_PLACEMENT_3D('',#1115,#1116,#1117);
#1115=CARTESIAN_POINT('',(-16.5,2.,-63.));
#1116=DIRECTION('',(0.,1.,6.12323399573677E-17));
#1117=DIRECTION('',(6.12323399573677E-17,6.12323399573677E-17,-1.));
#1118=CARTESIAN_POINT('',(-4.49999999999998,2.,-65.75));
#1119=AXIS2_PLACEMENT_3D('',#1120,#1121,#1122);
#1120=CARTESIAN_POINT('',(-4.49999999999998,2.,-63.));
#1121=DIRECTION('',(0.,1.,6.12323399573677E-17));
#1122=DIRECTION('',(6.12323399573677E-17,6.12323399573677E-17,-1.));
#1123=CARTESIAN_POINT('',(-63.5,2.,-47.75));
#1124=AXIS2_PLACEMENT_3D('',#1125,#1126,#1127);
#1125=CARTESIAN_POINT('',(-63.5,2.,-45.));
#1126=DIRECTION('',(0.,1.,6.12323399573677E-17));
#1127=DIRECTION('',(6.12323399573677E-17,6.12323399573677E-17,-1.));
#1128=CARTESIAN_POINT('',(-20.5,2.,8.25));
#1129=AXIS2_PLACEMENT_3D('',#1130,#1131,#1132);
#1130=CARTESIAN_POINT('',(-20.5,2.,11.));
#1131=DIRECTION('',(0.,1.,6.12323399573677E-17));
#1132=DIRECTION('',(6.12323399573677E-17,6.12323399573677E-17,-1.));
#1133=CARTESIAN_POINT('',(-70.5,2.00000000000001,-84.5));
#1134=AXIS2_PLACEMENT_3D('',#1135,#1136,#1137);
#1135=CARTESIAN_POINT('',(-70.5,2.,-82.));
#1136=DIRECTION('',(0.,1.,6.12323399573677E-17));
#1137=DIRECTION('',(6.12323399573677E-17,6.12323399573677E-17,-1.));
#1138=CARTESIAN_POINT('',(-68.5,2.00000000000001,-105.5));
#1139=AXIS2_PLACEMENT_3D('',#1140,#1141,#1142);
#1140=CARTESIAN_POINT('',(-68.5,2.00000000000001,-102.));
#1141=DIRECTION('',(0.,1.,6.12323399573677E-17));
#1142=DIRECTION('',(6.12323399573677E-17,6.12323399573677E-17,-1.));
#1143=CARTESIAN_POINT('',(-69.5,2.,79.5));
#1144=AXIS2_PLACEMENT_3D('',#1145,#1146,#1147);
#1145=CARTESIAN_POINT('',(-69.5,1.99999999999999,82.));
#1146=DIRECTION('',(0.,1.,6.12323399573677E-17));
#1147=DIRECTION('',(6.12323399573677E-17,6.12323399573677E-17,-1.));
#1148=CARTESIAN_POINT('',(-66.5,1.99999999999999,98.5));
#1149=AXIS2_PLACEMENT_3D('',#1150,#1151,#1152);
#1150=CARTESIAN_POINT('',(-66.5,1.99999999999999,102.));
#1151=DIRECTION('',(0.,1.,6.12323399573677E-17));
#1152=DIRECTION('',(6.12323399573677E-17,6.12323399573677E-17,-1.));
#1153=CARTESIAN_POINT('',(82.5,-7.65404249467096E-15,125.));
#1154=CARTESIAN_POINT('',(82.5,7.65404249467096E-15,-125.));
#1155=CARTESIAN_POINT('',(82.5,-7.65404249467096E-15,125.));
#1156=VECTOR('',#1157,1.);
#1157=DIRECTION('',(1.13686837721616E-16,6.12323399573677E-17,-1.));
#1158=CARTESIAN_POINT('',(-82.5,-7.65404249467096E-15,125.));
#1159=CARTESIAN_POINT('',(-82.5,-7.65404249467096E-15,125.));
#1160=VECTOR('',#1161,1.);
#1161=DIRECTION('',(1.,0.,0.));
#1162=CARTESIAN_POINT('',(-82.5,7.65404249467096E-15,-125.));
#1163=CARTESIAN_POINT('',(-82.5,7.65404249467096E-15,-125.));
#1164=VECTOR('',#1165,1.);
#1165=DIRECTION('',(-1.13686837721616E-16,-6.12323399573677E-17,1.));
#1166=CARTESIAN_POINT('',(82.5,7.65404249467096E-15,-125.));
#1167=VECTOR('',#1168,1.);
#1168=DIRECTION('',(-1.,0.,0.));
#1169=CARTESIAN_POINT('',(-66.5,-6.03138548580071E-15,98.5));
#1170=AXIS2_PLACEMENT_3D('',#1171,#1172,#1173);
#1171=CARTESIAN_POINT('',(-66.5,-6.2456986756515E-15,102.));
#1172=DIRECTION('',(0.,1.,6.12323399573677E-17));
#1173=DIRECTION('',(6.12323399573677E-17,6.12323399573677E-17,-1.));
#1174=CARTESIAN_POINT('',(-69.5,-4.86797102661073E-15,79.5));
#1175=AXIS2_PLACEMENT_3D('',#1176,#1177,#1178);
#1176=CARTESIAN_POINT('',(-69.5,-5.02105187650415E-15,82.));
#1177=DIRECTION('',(0.,1.,6.12323399573677E-17));
#1178=DIRECTION('',(6.12323399573677E-17,6.12323399573677E-17,-1.));
#1179=CARTESIAN_POINT('',(-68.5,6.46001186550229E-15,-105.5));
#1180=AXIS2_PLACEMENT_3D('',#1181,#1182,#1183);
#1181=CARTESIAN_POINT('',(-68.5,6.2456986756515E-15,-102.));
#1182=DIRECTION('',(0.,1.,6.12323399573677E-17));
#1183=DIRECTION('',(6.12323399573677E-17,6.12323399573677E-17,-1.));
#1184=CARTESIAN_POINT('',(-70.5,5.17413272639757E-15,-84.5));
#1185=AXIS2_PLACEMENT_3D('',#1186,#1187,#1188);
#1186=CARTESIAN_POINT('',(-70.5,5.02105187650415E-15,-82.));
#1187=DIRECTION('',(0.,1.,6.12323399573677E-17));
#1188=DIRECTION('',(6.12323399573677E-17,6.12323399573677E-17,-1.));
#1189=CARTESIAN_POINT('',(-82.5,7.65404249467096E-15,-125.));
#1190=VECTOR('',#1191,1.);
#1191=DIRECTION('',(0.,1.,0.));
#1192=CARTESIAN_POINT('',(82.5,7.65404249467096E-15,-125.));
#1193=VECTOR('',#1194,1.);
#1194=DIRECTION('',(0.,1.,0.));
#1195=CARTESIAN_POINT('',(-82.5,-7.65404249467096E-15,125.));
#1196=VECTOR('',#1197,1.);
#1197=DIRECTION('',(0.,1.,0.));
#1198=CARTESIAN_POINT('',(82.5,-7.65404249467096E-15,125.));
#1199=VECTOR('',#1200,1.);
#1200=DIRECTION('',(0.,1.,0.));
ENDSEC;
END-ISO-10303-21;
