ISO-10303-21;
HEADER;
FILE_DESCRIPTION(('STEP AP203'),
    '1');
FILE_NAME('Обратная пластина',
    '',
    ('UNSPECIFIED'),
    ('UNSPECIFIED'),
    'C3D Converter',
    'C3D Toolkit',
    '');
FILE_SCHEMA(('CONFIG_CONTROL_DESIGN'));
ENDSEC;

DATA;
#1=PRODUCT_DEFINITION('','UNSPECIFIED',#28,#31);
#2=SHAPE_DEFINITION_REPRESENTATION(#26,#3);
#3=SHAPE_REPRESENTATION('NONE',(#4),#8);
#4=AXIS2_PLACEMENT_3D('',#5,#6,#7);
#5=CARTESIAN_POINT('',(0.,0.,0.));
#6=DIRECTION('',(0.,0.,1.));
#7=DIRECTION('',(1.,0.,0.));
#8=(GEOMETRIC_REPRESENTATION_CONTEXT(3)GLOBAL_UNCERTAINTY_ASSIGNED_CONTEXT((#10))
GLOBAL_UNIT_ASSIGNED_CONTEXT((#9,#11,#12))REPRESENTATION_CONTEXT('NONE','NONE'));
#9=(LENGTH_UNIT()NAMED_UNIT(*)SI_UNIT(.MILLI.,.METRE.));
#10=UNCERTAINTY_MEASURE_WITH_UNIT(LENGTH_MEASURE(1.E-5),#9,'NONE','NONE');
#11=(NAMED_UNIT(*)PLANE_ANGLE_UNIT()SI_UNIT($,.RADIAN.));
#12=(NAMED_UNIT(*)SI_UNIT($,.STERADIAN.)SOLID_ANGLE_UNIT());
#13=MANIFOLD_SOLID_BREP('',#14);
#14=CLOSED_SHELL('',(#53,#54,#55,#56,#57,#58,#59,#60,#61,#62,#63,#64,#65,#66));
#15=COLOUR_RGB('',0.564705882352941,0.564705882352941,0.564705882352941);
#16=FILL_AREA_STYLE_COLOUR('',#15);
#17=FILL_AREA_STYLE($,(#16));
#18=SURFACE_STYLE_FILL_AREA(#17);
#19=SURFACE_SIDE_STYLE('',(#18));
#20=SURFACE_STYLE_USAGE(.BOTH.,#19);
#21=PRESENTATION_STYLE_ASSIGNMENT((#20));
#22=MECHANICAL_DESIGN_GEOMETRIC_PRESENTATION_REPRESENTATION('NONE',(#23),#8);
#23=STYLED_ITEM('',(#21),#13);
#24=ADVANCED_BREP_SHAPE_REPRESENTATION('NONE',(#13),#8);
#25=SHAPE_REPRESENTATION_RELATIONSHIP('','',#3,#24);
#26=PRODUCT_DEFINITION_SHAPE('NONE','NONE',#1);
#27=MECHANICAL_CONTEXT('NONE',#32,'mechanical');
#28=PRODUCT_DEFINITION_FORMATION_WITH_SPECIFIED_SOURCE('ANY','UNSPECIFIED',#29,.NOT_KNOWN.);
#29=PRODUCT('','\X2\0414043504420430043B044C\X0\','NONE',(#27));
#30=PRODUCT_RELATED_PRODUCT_CATEGORY('detail','',(#29));
#31=DESIGN_CONTEXT('detailed design',#32,'design');
#32=APPLICATION_CONTEXT('configuration controlled 3d designs of mechanical parts and assemblies');
#33=APPLICATION_PROTOCOL_DEFINITION('international standard','config_control_design',
1994,#32);
#34=CC_DESIGN_DATE_AND_TIME_ASSIGNMENT(#35,#39,(#1));
#35=DATE_AND_TIME(#36,#37);
#36=CALENDAR_DATE(0,1,1);
#37=LOCAL_TIME(0,0,0.,#38);
#38=COORDINATED_UNIVERSAL_TIME_OFFSET(0,0,.AHEAD.);
#39=DATE_TIME_ROLE('creation_date');
#40=CC_DESIGN_APPROVAL(#41,(#1));
#41=APPROVAL(#42,'UNSPECIFIED');
#42=APPROVAL_STATUS('not_yet_approved');
#43=APPROVAL_DATE_TIME(#44,#41);
#44=DATE_AND_TIME(#45,#46);
#45=CALENDAR_DATE(0,1,1);
#46=LOCAL_TIME(0,0,0.,#47);
#47=COORDINATED_UNIVERSAL_TIME_OFFSET(0,0,.AHEAD.);
#48=PERSON('UNSPECIFIED','Nik','UNSPECIFIED',('UNSPECIFIED'),('UNSPECIFIED'),('UNSPECIFIED'));
#49=ORGANIZATION('UNSPECIFIED','UNSPECIFIED','UNSPECIFIED');
#50=PERSON_AND_ORGANIZATION(#48,#49);
#51=PERSON_AND_ORGANIZATION_ROLE('creator');
#52=CC_DESIGN_PERSON_AND_ORGANIZATION_ASSIGNMENT(#50,#51,(#28,#1));
#53=ADVANCED_FACE('',(#67,#69),#71,.F.);
#54=ADVANCED_FACE('',(#76,#78),#80,.F.);
#55=ADVANCED_FACE('',(#85,#87,#89,#91,#93,#95,#97),#99,.F.);
#56=ADVANCED_FACE('',(#104,#106),#108,.F.);
#57=ADVANCED_FACE('',(#113,#115),#117,.F.);
#58=ADVANCED_FACE('',(#122,#124,#126,#128,#130,#132,#134),#136,.T.);
#59=ADVANCED_FACE('',(#141),#143,.T.);
#60=ADVANCED_FACE('',(#148),#150,.T.);
#61=ADVANCED_FACE('',(#155),#157,.T.);
#62=ADVANCED_FACE('',(#162),#164,.T.);
#63=ADVANCED_FACE('',(#169,#171),#173,.F.);
#64=ADVANCED_FACE('',(#178,#180),#182,.F.);
#65=ADVANCED_FACE('',(#187,#189),#191,.F.);
#66=ADVANCED_FACE('',(#196,#198),#200,.F.);
#67=FACE_OUTER_BOUND('',#68,.T.);
#68=EDGE_LOOP('',(#205));
#69=FACE_BOUND('',#70,.T.);
#70=EDGE_LOOP('',(#206,#207));
#71=CYLINDRICAL_SURFACE('',#72,1.5);
#72=AXIS2_PLACEMENT_3D('',#73,#74,#75);
#73=CARTESIAN_POINT('',(-30.5,-8.,-46.));
#74=DIRECTION('',(0.,1.,6.12323399573677E-17));
#75=DIRECTION('',(6.12323399573676E-17,6.12323399573676E-17,-1.));
#76=FACE_OUTER_BOUND('',#77,.T.);
#77=EDGE_LOOP('',(#208));
#78=FACE_BOUND('',#79,.T.);
#79=EDGE_LOOP('',(#209,#210));
#80=CYLINDRICAL_SURFACE('',#81,1.5);
#81=AXIS2_PLACEMENT_3D('',#82,#83,#84);
#82=CARTESIAN_POINT('',(-30.5,-7.99999999999999,-103.));
#83=DIRECTION('',(0.,1.,6.12323399573677E-17));
#84=DIRECTION('',(6.12323399573676E-17,6.12323399573676E-17,-1.));
#85=FACE_BOUND('',#86,.T.);
#86=EDGE_LOOP('',(#211,#212,#213,#214));
#87=FACE_BOUND('',#88,.T.);
#88=EDGE_LOOP('',(#215));
#89=FACE_BOUND('',#90,.T.);
#90=EDGE_LOOP('',(#216));
#91=FACE_BOUND('',#92,.T.);
#92=EDGE_LOOP('',(#217));
#93=FACE_BOUND('',#94,.T.);
#94=EDGE_LOOP('',(#218));
#95=FACE_BOUND('',#96,.T.);
#96=EDGE_LOOP('',(#219));
#97=FACE_BOUND('',#98,.T.);
#98=EDGE_LOOP('',(#220));
#99=PLANE('',#100);
#100=AXIS2_PLACEMENT_3D('',#101,#102,#103);
#101=CARTESIAN_POINT('',(0.,0.,0.));
#102=DIRECTION('',(0.,1.,6.12323399573677E-17));
#103=DIRECTION('',(6.12323399573677E-17,6.12323399573677E-17,-1.));
#104=FACE_BOUND('',#105,.T.);
#105=EDGE_LOOP('',(#221,#222));
#106=FACE_OUTER_BOUND('',#107,.T.);
#107=EDGE_LOOP('',(#223));
#108=CONICAL_SURFACE('',#109,2.125,0.785398163397448);
#109=AXIS2_PLACEMENT_3D('',#110,#111,#112);
#110=CARTESIAN_POINT('',(-30.5,0.625000000000003,-46.));
#111=DIRECTION('',(0.,-1.,-6.12323399573677E-17));
#112=DIRECTION('',(6.12323399573677E-17,-6.12323399573677E-17,1.));
#113=FACE_BOUND('',#114,.T.);
#114=EDGE_LOOP('',(#224,#225));
#115=FACE_OUTER_BOUND('',#116,.T.);
#116=EDGE_LOOP('',(#226));
#117=CONICAL_SURFACE('',#118,2.125,0.785398163397448);
#118=AXIS2_PLACEMENT_3D('',#119,#120,#121);
#119=CARTESIAN_POINT('',(-30.5,0.625000000000006,-103.));
#120=DIRECTION('',(0.,-1.,-6.12323399573677E-17));
#121=DIRECTION('',(6.12323399573677E-17,-6.12323399573677E-17,1.));
#122=FACE_BOUND('',#123,.T.);
#123=EDGE_LOOP('',(#227,#228,#229,#230));
#124=FACE_BOUND('',#125,.T.);
#125=EDGE_LOOP('',(#231));
#126=FACE_BOUND('',#127,.T.);
#127=EDGE_LOOP('',(#232));
#128=FACE_BOUND('',#129,.T.);
#129=EDGE_LOOP('',(#233));
#130=FACE_BOUND('',#131,.T.);
#131=EDGE_LOOP('',(#234));
#132=FACE_BOUND('',#133,.T.);
#133=EDGE_LOOP('',(#235));
#134=FACE_BOUND('',#135,.T.);
#135=EDGE_LOOP('',(#236));
#136=PLANE('',#137);
#137=AXIS2_PLACEMENT_3D('',#138,#139,#140);
#138=CARTESIAN_POINT('',(0.,2.,1.22464679914735E-16));
#139=DIRECTION('',(0.,1.,6.12323399573677E-17));
#140=DIRECTION('',(6.12323399573677E-17,6.12323399573677E-17,-1.));
#141=FACE_BOUND('',#142,.T.);
#142=EDGE_LOOP('',(#237,#238,#239,#240));
#143=PLANE('',#144);
#144=AXIS2_PLACEMENT_3D('',#145,#146,#147);
#145=CARTESIAN_POINT('',(82.5,-7.65404249467096E-15,125.));
#146=DIRECTION('',(1.,0.,1.13686837721616E-16));
#147=DIRECTION('',(1.13686837721616E-16,6.12323399573677E-17,-1.));
#148=FACE_BOUND('',#149,.T.);
#149=EDGE_LOOP('',(#241,#242,#243,#244));
#150=PLANE('',#151);
#151=AXIS2_PLACEMENT_3D('',#152,#153,#154);
#152=CARTESIAN_POINT('',(-82.5,-7.65404249467096E-15,125.));
#153=DIRECTION('',(0.,0.,1.));
#154=DIRECTION('',(1.,0.,0.));
#155=FACE_BOUND('',#156,.T.);
#156=EDGE_LOOP('',(#245,#246,#247,#248));
#157=PLANE('',#158);
#158=AXIS2_PLACEMENT_3D('',#159,#160,#161);
#159=CARTESIAN_POINT('',(-82.5,7.65404249467096E-15,-125.));
#160=DIRECTION('',(-1.,0.,-1.13686837721616E-16));
#161=DIRECTION('',(-1.13686837721616E-16,-6.12323399573677E-17,1.));
#162=FACE_BOUND('',#163,.T.);
#163=EDGE_LOOP('',(#249,#250,#251,#252));
#164=PLANE('',#165);
#165=AXIS2_PLACEMENT_3D('',#166,#167,#168);
#166=CARTESIAN_POINT('',(82.5,7.65404249467096E-15,-125.));
#167=DIRECTION('',(0.,0.,-1.));
#168=DIRECTION('',(-1.,0.,0.));
#169=FACE_OUTER_BOUND('',#170,.T.);
#170=EDGE_LOOP('',(#253));
#171=FACE_OUTER_BOUND('',#172,.T.);
#172=EDGE_LOOP('',(#254));
#173=CYLINDRICAL_SURFACE('',#174,3.5);
#174=AXIS2_PLACEMENT_3D('',#175,#176,#177);
#175=CARTESIAN_POINT('',(-66.5,-6.2456986756515E-15,102.));
#176=DIRECTION('',(0.,1.,6.12323399573677E-17));
#177=DIRECTION('',(6.12323399573677E-17,6.12323399573677E-17,-1.));
#178=FACE_OUTER_BOUND('',#179,.T.);
#179=EDGE_LOOP('',(#255));
#180=FACE_OUTER_BOUND('',#181,.T.);
#181=EDGE_LOOP('',(#256));
#182=CYLINDRICAL_SURFACE('',#183,2.5);
#183=AXIS2_PLACEMENT_3D('',#184,#185,#186);
#184=CARTESIAN_POINT('',(-69.5,-5.02105187650415E-15,82.));
#185=DIRECTION('',(0.,1.,6.12323399573677E-17));
#186=DIRECTION('',(6.12323399573677E-17,6.12323399573677E-17,-1.));
#187=FACE_OUTER_BOUND('',#188,.T.);
#188=EDGE_LOOP('',(#257));
#189=FACE_OUTER_BOUND('',#190,.T.);
#190=EDGE_LOOP('',(#258));
#191=CYLINDRICAL_SURFACE('',#192,3.5);
#192=AXIS2_PLACEMENT_3D('',#193,#194,#195);
#193=CARTESIAN_POINT('',(-68.5,6.2456986756515E-15,-102.));
#194=DIRECTION('',(0.,1.,6.12323399573677E-17));
#195=DIRECTION('',(6.12323399573677E-17,6.12323399573677E-17,-1.));
#196=FACE_OUTER_BOUND('',#197,.T.);
#197=EDGE_LOOP('',(#259));
#198=FACE_OUTER_BOUND('',#199,.T.);
#199=EDGE_LOOP('',(#260));
#200=CYLINDRICAL_SURFACE('',#201,2.5);
#201=AXIS2_PLACEMENT_3D('',#202,#203,#204);
#202=CARTESIAN_POINT('',(-70.5,5.02105187650415E-15,-82.));
#203=DIRECTION('',(0.,1.,6.12323399573677E-17));
#204=DIRECTION('',(6.12323399573677E-17,6.12323399573677E-17,-1.));
#205=ORIENTED_EDGE('',*,*,#261,.F.);
#206=ORIENTED_EDGE('',*,*,#262,.T.);
#207=ORIENTED_EDGE('',*,*,#263,.T.);
#208=ORIENTED_EDGE('',*,*,#264,.F.);
#209=ORIENTED_EDGE('',*,*,#265,.T.);
#210=ORIENTED_EDGE('',*,*,#266,.T.);
#211=ORIENTED_EDGE('',*,*,#267,.F.);
#212=ORIENTED_EDGE('',*,*,#268,.F.);
#213=ORIENTED_EDGE('',*,*,#269,.F.);
#214=ORIENTED_EDGE('',*,*,#270,.F.);
#215=ORIENTED_EDGE('',*,*,#271,.T.);
#216=ORIENTED_EDGE('',*,*,#272,.T.);
#217=ORIENTED_EDGE('',*,*,#273,.T.);
#218=ORIENTED_EDGE('',*,*,#274,.T.);
#219=ORIENTED_EDGE('',*,*,#275,.T.);
#220=ORIENTED_EDGE('',*,*,#276,.T.);
#221=ORIENTED_EDGE('',*,*,#263,.F.);
#222=ORIENTED_EDGE('',*,*,#262,.F.);
#223=ORIENTED_EDGE('',*,*,#272,.F.);
#224=ORIENTED_EDGE('',*,*,#266,.F.);
#225=ORIENTED_EDGE('',*,*,#265,.F.);
#226=ORIENTED_EDGE('',*,*,#271,.F.);
#227=ORIENTED_EDGE('',*,*,#277,.T.);
#228=ORIENTED_EDGE('',*,*,#278,.T.);
#229=ORIENTED_EDGE('',*,*,#279,.T.);
#230=ORIENTED_EDGE('',*,*,#280,.T.);
#231=ORIENTED_EDGE('',*,*,#261,.T.);
#232=ORIENTED_EDGE('',*,*,#264,.T.);
#233=ORIENTED_EDGE('',*,*,#281,.T.);
#234=ORIENTED_EDGE('',*,*,#282,.T.);
#235=ORIENTED_EDGE('',*,*,#283,.T.);
#236=ORIENTED_EDGE('',*,*,#284,.T.);
#237=ORIENTED_EDGE('',*,*,#267,.T.);
#238=ORIENTED_EDGE('',*,*,#285,.T.);
#239=ORIENTED_EDGE('',*,*,#280,.F.);
#240=ORIENTED_EDGE('',*,*,#286,.F.);
#241=ORIENTED_EDGE('',*,*,#268,.T.);
#242=ORIENTED_EDGE('',*,*,#286,.T.);
#243=ORIENTED_EDGE('',*,*,#279,.F.);
#244=ORIENTED_EDGE('',*,*,#287,.F.);
#245=ORIENTED_EDGE('',*,*,#269,.T.);
#246=ORIENTED_EDGE('',*,*,#287,.T.);
#247=ORIENTED_EDGE('',*,*,#278,.F.);
#248=ORIENTED_EDGE('',*,*,#288,.F.);
#249=ORIENTED_EDGE('',*,*,#270,.T.);
#250=ORIENTED_EDGE('',*,*,#288,.T.);
#251=ORIENTED_EDGE('',*,*,#277,.F.);
#252=ORIENTED_EDGE('',*,*,#285,.F.);
#253=ORIENTED_EDGE('',*,*,#281,.F.);
#254=ORIENTED_EDGE('',*,*,#273,.F.);
#255=ORIENTED_EDGE('',*,*,#282,.F.);
#256=ORIENTED_EDGE('',*,*,#274,.F.);
#257=ORIENTED_EDGE('',*,*,#283,.F.);
#258=ORIENTED_EDGE('',*,*,#275,.F.);
#259=ORIENTED_EDGE('',*,*,#284,.F.);
#260=ORIENTED_EDGE('',*,*,#276,.F.);
#261=EDGE_CURVE('',#289,#289,#290,.F.);
#262=EDGE_CURVE('',#291,#292,#293,.T.);
#263=EDGE_CURVE('',#292,#291,#294,.T.);
#264=EDGE_CURVE('',#295,#295,#296,.F.);
#265=EDGE_CURVE('',#297,#298,#299,.T.);
#266=EDGE_CURVE('',#298,#297,#300,.T.);
#267=EDGE_CURVE('',#301,#302,#303,.T.);
#268=EDGE_CURVE('',#304,#301,#305,.T.);
#269=EDGE_CURVE('',#306,#304,#307,.T.);
#270=EDGE_CURVE('',#302,#306,#308,.T.);
#271=EDGE_CURVE('',#309,#309,#310,.F.);
#272=EDGE_CURVE('',#311,#311,#312,.F.);
#273=EDGE_CURVE('',#313,#313,#314,.T.);
#274=EDGE_CURVE('',#315,#315,#316,.T.);
#275=EDGE_CURVE('',#317,#317,#318,.T.);
#276=EDGE_CURVE('',#319,#319,#320,.T.);
#277=EDGE_CURVE('',#321,#322,#323,.T.);
#278=EDGE_CURVE('',#322,#324,#325,.T.);
#279=EDGE_CURVE('',#324,#326,#327,.T.);
#280=EDGE_CURVE('',#326,#321,#328,.T.);
#281=EDGE_CURVE('',#329,#329,#330,.F.);
#282=EDGE_CURVE('',#331,#331,#332,.F.);
#283=EDGE_CURVE('',#333,#333,#334,.F.);
#284=EDGE_CURVE('',#335,#335,#336,.F.);
#285=EDGE_CURVE('',#302,#321,#337,.T.);
#286=EDGE_CURVE('',#301,#326,#338,.T.);
#287=EDGE_CURVE('',#304,#324,#339,.T.);
#288=EDGE_CURVE('',#306,#322,#340,.T.);
#289=VERTEX_POINT('',#341);
#290=CIRCLE('',#342,1.5);
#291=VERTEX_POINT('',#346);
#292=VERTEX_POINT('',#347);
#293=CIRCLE('',#348,1.5);
#294=CIRCLE('',#352,1.5);
#295=VERTEX_POINT('',#356);
#296=CIRCLE('',#357,1.5);
#297=VERTEX_POINT('',#361);
#298=VERTEX_POINT('',#362);
#299=CIRCLE('',#363,1.5);
#300=CIRCLE('',#367,1.5);
#301=VERTEX_POINT('',#371);
#302=VERTEX_POINT('',#372);
#303=LINE('',#373,#374);
#304=VERTEX_POINT('',#376);
#305=LINE('',#377,#378);
#306=VERTEX_POINT('',#380);
#307=LINE('',#381,#382);
#308=LINE('',#384,#385);
#309=VERTEX_POINT('',#387);
#310=CIRCLE('',#388,2.75);
#311=VERTEX_POINT('',#392);
#312=CIRCLE('',#393,2.75);
#313=VERTEX_POINT('',#397);
#314=CIRCLE('',#398,3.5);
#315=VERTEX_POINT('',#402);
#316=CIRCLE('',#403,2.5);
#317=VERTEX_POINT('',#407);
#318=CIRCLE('',#408,3.5);
#319=VERTEX_POINT('',#412);
#320=CIRCLE('',#413,2.5);
#321=VERTEX_POINT('',#417);
#322=VERTEX_POINT('',#418);
#323=LINE('',#419,#420);
#324=VERTEX_POINT('',#422);
#325=LINE('',#423,#424);
#326=VERTEX_POINT('',#426);
#327=LINE('',#427,#428);
#328=LINE('',#430,#431);
#329=VERTEX_POINT('',#433);
#330=CIRCLE('',#434,3.5);
#331=VERTEX_POINT('',#438);
#332=CIRCLE('',#439,2.5);
#333=VERTEX_POINT('',#443);
#334=CIRCLE('',#444,3.5);
#335=VERTEX_POINT('',#448);
#336=CIRCLE('',#449,2.5);
#337=LINE('',#453,#454);
#338=LINE('',#456,#457);
#339=LINE('',#459,#460);
#340=LINE('',#462,#463);
#341=CARTESIAN_POINT('',(-30.5,2.,-47.5));
#342=AXIS2_PLACEMENT_3D('',#343,#344,#345);
#343=CARTESIAN_POINT('',(-30.5,2.,-46.));
#344=DIRECTION('',(0.,1.,6.12323399573677E-17));
#345=DIRECTION('',(6.12323399573676E-17,6.12323399573677E-17,-1.));
#346=CARTESIAN_POINT('',(-30.5,1.25,-44.5));
#347=CARTESIAN_POINT('',(-30.5,1.25,-47.5));
#348=AXIS2_PLACEMENT_3D('',#349,#350,#351);
#349=CARTESIAN_POINT('',(-30.5,1.25,-46.));
#350=DIRECTION('',(-6.84227765783602E-49,-1.,-6.12323399573676E-17));
#351=DIRECTION('',(-1.22464679914735E-16,-6.12323399573676E-17,1.));
#352=AXIS2_PLACEMENT_3D('',#353,#354,#355);
#353=CARTESIAN_POINT('',(-30.5,1.25,-46.));
#354=DIRECTION('',(-6.84227765783602E-49,-1.,-6.12323399573676E-17));
#355=DIRECTION('',(1.22464679914735E-16,6.12323399573676E-17,-1.));
#356=CARTESIAN_POINT('',(-30.5,2.00000000000001,-104.5));
#357=AXIS2_PLACEMENT_3D('',#358,#359,#360);
#358=CARTESIAN_POINT('',(-30.5,2.00000000000001,-103.));
#359=DIRECTION('',(0.,1.,6.12323399573677E-17));
#360=DIRECTION('',(6.12323399573676E-17,6.12323399573677E-17,-1.));
#361=CARTESIAN_POINT('',(-30.5,1.25000000000001,-101.5));
#362=CARTESIAN_POINT('',(-30.5,1.25000000000001,-104.5));
#363=AXIS2_PLACEMENT_3D('',#364,#365,#366);
#364=CARTESIAN_POINT('',(-30.5,1.25000000000001,-103.));
#365=DIRECTION('',(-6.84227765783602E-49,-1.,-6.12323399573676E-17));
#366=DIRECTION('',(-1.22464679914735E-16,-6.12323399573676E-17,1.));
#367=AXIS2_PLACEMENT_3D('',#368,#369,#370);
#368=CARTESIAN_POINT('',(-30.5,1.25000000000001,-103.));
#369=DIRECTION('',(-6.84227765783602E-49,-1.,-6.12323399573676E-17));
#370=DIRECTION('',(1.22464679914735E-16,6.12323399573676E-17,-1.));
#371=CARTESIAN_POINT('',(82.5,-7.65404249467096E-15,125.));
#372=CARTESIAN_POINT('',(82.5,7.65404249467096E-15,-125.));
#373=CARTESIAN_POINT('',(82.5,-7.65404249467096E-15,125.));
#374=VECTOR('',#375,1.);
#375=DIRECTION('',(1.13686837721616E-16,6.12323399573677E-17,-1.));
#376=CARTESIAN_POINT('',(-82.5,-7.65404249467096E-15,125.));
#377=CARTESIAN_POINT('',(-82.5,-7.65404249467096E-15,125.));
#378=VECTOR('',#379,1.);
#379=DIRECTION('',(1.,0.,0.));
#380=CARTESIAN_POINT('',(-82.5,7.65404249467096E-15,-125.));
#381=CARTESIAN_POINT('',(-82.5,7.65404249467096E-15,-125.));
#382=VECTOR('',#383,1.);
#383=DIRECTION('',(-1.13686837721616E-16,-6.12323399573677E-17,1.));
#384=CARTESIAN_POINT('',(82.5,7.65404249467096E-15,-125.));
#385=VECTOR('',#386,1.);
#386=DIRECTION('',(-1.,0.,0.));
#387=CARTESIAN_POINT('',(-30.5,6.13854208072611E-15,-100.25));
#388=AXIS2_PLACEMENT_3D('',#389,#390,#391);
#389=CARTESIAN_POINT('',(-30.5,6.30693101560887E-15,-103.));
#390=DIRECTION('',(0.,-1.,-6.12323399573677E-17));
#391=DIRECTION('',(6.12323399573677E-17,-6.12323399573677E-17,1.));
#392=CARTESIAN_POINT('',(-30.5,2.64829870315615E-15,-43.25));
#393=AXIS2_PLACEMENT_3D('',#394,#395,#396);
#394=CARTESIAN_POINT('',(-30.5,2.81668763803891E-15,-46.));
#395=DIRECTION('',(0.,-1.,-6.12323399573677E-17));
#396=DIRECTION('',(6.12323399573677E-17,-6.12323399573677E-17,1.));
#397=CARTESIAN_POINT('',(-66.5,-6.03138548580071E-15,98.5));
#398=AXIS2_PLACEMENT_3D('',#399,#400,#401);
#399=CARTESIAN_POINT('',(-66.5,-6.2456986756515E-15,102.));
#400=DIRECTION('',(0.,1.,6.12323399573677E-17));
#401=DIRECTION('',(6.12323399573677E-17,6.12323399573677E-17,-1.));
#402=CARTESIAN_POINT('',(-69.5,-4.86797102661073E-15,79.5));
#403=AXIS2_PLACEMENT_3D('',#404,#405,#406);
#404=CARTESIAN_POINT('',(-69.5,-5.02105187650415E-15,82.));
#405=DIRECTION('',(0.,1.,6.12323399573677E-17));
#406=DIRECTION('',(6.12323399573677E-17,6.12323399573677E-17,-1.));
#407=CARTESIAN_POINT('',(-68.5,6.46001186550229E-15,-105.5));
#408=AXIS2_PLACEMENT_3D('',#409,#410,#411);
#409=CARTESIAN_POINT('',(-68.5,6.2456986756515E-15,-102.));
#410=DIRECTION('',(0.,1.,6.12323399573677E-17));
#411=DIRECTION('',(6.12323399573677E-17,6.12323399573677E-17,-1.));
#412=CARTESIAN_POINT('',(-70.5,5.17413272639757E-15,-84.5));
#413=AXIS2_PLACEMENT_3D('',#414,#415,#416);
#414=CARTESIAN_POINT('',(-70.5,5.02105187650415E-15,-82.));
#415=DIRECTION('',(0.,1.,6.12323399573677E-17));
#416=DIRECTION('',(6.12323399573677E-17,6.12323399573677E-17,-1.));
#417=CARTESIAN_POINT('',(82.5,2.00000000000001,-125.));
#418=CARTESIAN_POINT('',(-82.5,2.00000000000001,-125.));
#419=CARTESIAN_POINT('',(82.5,2.00000000000001,-125.));
#420=VECTOR('',#421,1.);
#421=DIRECTION('',(-1.,0.,0.));
#422=CARTESIAN_POINT('',(-82.5,1.99999999999999,125.));
#423=CARTESIAN_POINT('',(-82.5,2.00000000000001,-125.));
#424=VECTOR('',#425,1.);
#425=DIRECTION('',(-1.13686837721616E-16,-6.03961325396085E-17,1.));
#426=CARTESIAN_POINT('',(82.5,1.99999999999999,125.));
#427=CARTESIAN_POINT('',(-82.5,1.99999999999999,125.));
#428=VECTOR('',#429,1.);
#429=DIRECTION('',(1.,0.,0.));
#430=CARTESIAN_POINT('',(82.5,1.99999999999999,125.));
#431=VECTOR('',#432,1.);
#432=DIRECTION('',(1.13686837721616E-16,6.03961325396085E-17,-1.));
#433=CARTESIAN_POINT('',(-66.5,1.99999999999999,98.5));
#434=AXIS2_PLACEMENT_3D('',#435,#436,#437);
#435=CARTESIAN_POINT('',(-66.5,1.99999999999999,102.));
#436=DIRECTION('',(0.,1.,6.12323399573677E-17));
#437=DIRECTION('',(6.12323399573677E-17,6.12323399573677E-17,-1.));
#438=CARTESIAN_POINT('',(-69.5,2.,79.5));
#439=AXIS2_PLACEMENT_3D('',#440,#441,#442);
#440=CARTESIAN_POINT('',(-69.5,1.99999999999999,82.));
#441=DIRECTION('',(0.,1.,6.12323399573677E-17));
#442=DIRECTION('',(6.12323399573677E-17,6.12323399573677E-17,-1.));
#443=CARTESIAN_POINT('',(-68.5,2.00000000000001,-105.5));
#444=AXIS2_PLACEMENT_3D('',#445,#446,#447);
#445=CARTESIAN_POINT('',(-68.5,2.00000000000001,-102.));
#446=DIRECTION('',(0.,1.,6.12323399573677E-17));
#447=DIRECTION('',(6.12323399573677E-17,6.12323399573677E-17,-1.));
#448=CARTESIAN_POINT('',(-70.5,2.00000000000001,-84.5));
#449=AXIS2_PLACEMENT_3D('',#450,#451,#452);
#450=CARTESIAN_POINT('',(-70.5,2.,-82.));
#451=DIRECTION('',(0.,1.,6.12323399573677E-17));
#452=DIRECTION('',(6.12323399573677E-17,6.12323399573677E-17,-1.));
#453=CARTESIAN_POINT('',(82.5,7.65404249467096E-15,-125.));
#454=VECTOR('',#455,1.);
#455=DIRECTION('',(0.,1.,0.));
#456=CARTESIAN_POINT('',(82.5,-7.65404249467096E-15,125.));
#457=VECTOR('',#458,1.);
#458=DIRECTION('',(0.,1.,0.));
#459=CARTESIAN_POINT('',(-82.5,-7.65404249467096E-15,125.));
#460=VECTOR('',#461,1.);
#461=DIRECTION('',(0.,1.,0.));
#462=CARTESIAN_POINT('',(-82.5,7.65404249467096E-15,-125.));
#463=VECTOR('',#464,1.);
#464=DIRECTION('',(0.,1.,0.));
ENDSEC;
END-ISO-10303-21;
